<svg width="120" height="120" viewBox="0 0 120 120" fill="none" xmlns="http://www.w3.org/2000/svg">
<circle cx="60" cy="60" r="60" fill="#F9F9F9"/>
<path d="M84.8427 66.602C81.1462 66.602 76.7518 65.7341 75.504 63.2984C74.7519 61.83 75.5158 60.2419 76.289 59.1682C79.0988 55.266 80.5841 50.9146 80.5841 46.5844C80.5842 35.234 71.3502 26 60.0001 26C48.65 26 39.4159 35.234 39.4159 46.5841C39.4159 50.9143 40.9012 55.2658 43.711 59.168C44.4842 60.2417 45.2481 61.8298 44.496 63.2981C43.2483 65.7339 38.8539 66.6018 35.1573 66.6018C31.2107 66.6018 28 69.8124 28 73.7591C28 77.7058 31.2107 80.9165 35.1573 80.9165C37.2065 80.9165 40.0652 80.4196 42.5037 79.779C41.8484 80.2781 41.1525 80.8031 40.5014 81.2711C37.696 83.2878 36.8028 86.5319 38.1703 89.7371C38.9762 91.626 40.544 93.1008 42.4713 93.7831C44.2471 94.4117 46.1112 94.2885 47.7203 93.4363C52.5181 90.8948 55.632 86.6206 57.9059 83.4997C58.5734 82.5832 59.4374 81.3974 60 80.8198C60.5626 81.3974 61.4266 82.5832 62.0941 83.4997C64.3679 86.6207 67.4817 90.8948 72.2797 93.4363C73.2118 93.9299 74.2293 94.179 75.2657 94.179C76.0186 94.179 76.7815 94.0477 77.5287 93.7831C79.4562 93.1008 81.0238 91.6262 81.8297 89.7371C83.1972 86.5318 82.304 83.2878 79.4986 81.2712C78.8475 80.8031 78.1518 80.2782 77.4963 79.779C79.9347 80.4196 82.7935 80.9165 84.8427 80.9165C88.7893 80.9165 92 77.7058 92 73.7591C92 69.8124 88.7895 66.602 84.8427 66.602ZM84.8427 76.7425C82.3099 76.7425 77.6956 75.6797 75.6944 74.8098C73.9003 74.0301 71.8601 74.701 70.9487 76.3708C70.0468 78.0234 70.5828 79.9568 72.2521 81.0725C72.7392 81.3981 73.5522 82.0192 74.413 82.6766C75.2391 83.3079 76.1759 84.0233 77.062 84.6605C78.5772 85.7496 78.4032 87.1317 77.9902 88.0992C77.6464 88.9051 76.9532 89.559 76.1356 89.8483C75.6675 90.014 74.9572 90.131 74.2336 89.7478C70.2879 87.6578 67.502 83.834 65.4679 81.0419C63.5079 78.3515 62.0917 76.4076 60 76.4076C57.9082 76.4076 56.4921 78.3515 54.5321 81.0419C52.498 83.8338 49.7123 87.6577 45.7664 89.7478C45.0425 90.1313 44.3324 90.0141 43.8644 89.8483C43.0468 89.559 42.3536 88.9051 42.0098 88.0992C41.597 87.1317 41.4229 85.7496 42.938 84.6605C43.8242 84.0234 44.7609 83.3079 45.587 82.6766C46.4479 82.019 47.2607 81.3981 47.7476 81.0727C49.4172 79.9569 49.9533 78.0235 49.0513 76.371C48.1398 74.7008 46.099 74.0297 44.3056 74.8099C42.3044 75.68 37.6901 76.7426 35.1573 76.7426C33.5123 76.7426 32.1741 75.4043 32.1741 73.7594C32.1741 72.1144 33.5124 70.7761 35.1573 70.7761C41.6384 70.7761 46.3963 68.7442 48.2111 65.2013C49.5286 62.6289 49.1232 59.541 47.0984 56.7291C44.7703 53.496 43.59 50.083 43.59 46.5843C43.59 37.5356 50.9515 30.1741 60.0001 30.1741C69.0488 30.1741 76.4101 37.5356 76.4101 46.5841C76.4101 50.0827 75.2298 53.4959 72.9017 56.729C70.877 59.5408 70.4715 62.6289 71.789 65.2012C73.6037 68.7441 78.3618 70.776 84.8428 70.776C86.4879 70.776 87.826 72.1143 87.826 73.7592C87.826 75.4042 86.4879 76.7425 84.8427 76.7425Z" fill="#AAC8F8"/>
<path d="M53.054 46.1832C51.5439 46.1832 50.3149 47.4247 50.3149 48.9577C50.3149 50.4904 51.5438 51.733 53.054 51.733C54.566 51.733 55.7947 50.4905 55.7947 48.9577C55.7946 47.4246 54.566 46.1832 53.054 46.1832Z" fill="#AAC8F8"/>
<path d="M66.9256 46.1616C65.4009 46.1616 64.1641 47.4135 64.1641 48.9578C64.1641 50.5021 65.4009 51.7539 66.9256 51.7539C68.4484 51.7539 69.6852 50.5021 69.6852 48.9578C69.6852 47.4135 68.4484 46.1616 66.9256 46.1616Z" fill="#AAC8F8"/>
</svg>
