<svg width="100" height="100" viewBox="0 0 100 100" fill="none" xmlns="http://www.w3.org/2000/svg">
<circle cx="50" cy="50" r="50" fill="white"/>
<path d="M66.4363 37.7226C66.4363 28.3949 59.0877 20.8333 50.0226 20.8333C40.9576 20.8333 33.609 28.3949 33.609 37.7226C33.609 40.1356 34.2287 42.4793 35.1834 44.7227C37.5266 50.2289 36.7509 57.1655 30.8053 57.8425C29.0043 58.0475 27.1701 58.0135 25.3477 57.7289L24.2945 57.5644C22.1502 57.2295 20.3769 59.2693 20.9382 61.425C21.2475 62.6126 22.2107 63.4992 23.392 63.6836L24.5425 63.8633C28.7617 64.5222 33.0296 64.142 37.0131 62.8069C38.8746 62.1831 40.8253 64.0633 39.6696 65.6502C37.3897 68.7808 34.4368 71.2764 30.6765 72.7905L29.6844 73.19C27.6647 74.0032 27.1201 76.682 28.6537 78.2601C29.4986 79.1295 30.7636 79.4017 31.8763 78.9537L32.9599 78.5174C39.6408 75.8274 45.0139 70.5235 47.9032 63.7665L48.9323 61.3601L49.023 61.2329C49.6827 60.3081 51.0779 60.3758 51.6449 61.3601L52.674 63.7665C55.5633 70.5235 60.9364 75.8274 67.6173 78.5174L68.7009 78.9537C69.8136 79.4017 71.0786 79.1295 71.9235 78.2601C73.4571 76.682 72.9125 74.0032 70.8928 73.19L69.9007 72.7905C66.2331 71.3138 63.2522 68.8698 60.9665 65.7877C59.8177 64.2386 61.6683 62.4011 63.5092 62.976C67.3422 64.1731 71.4221 64.4935 75.4575 63.8633L76.6079 63.6836C77.7893 63.4992 78.7525 62.6126 79.0617 61.425C79.6231 59.2693 77.8498 57.2295 75.7054 57.5644L74.6522 57.7289C72.8567 58.0093 71.0499 58.0465 69.2745 57.8514C63.3091 57.1959 62.5261 50.2334 64.8694 44.7085C65.8201 42.467 66.4363 40.1266 66.4363 37.7226Z" stroke="black" stroke-width="4"/>
<circle cx="44.5833" cy="40.4166" r="2.08333" fill="#17BAFF"/>
<circle cx="55.4166" cy="40.4166" r="2.08333" fill="#17BAFF"/>
</svg>
