<svg width="120" height="120" viewBox="0 0 120 120" fill="none" xmlns="http://www.w3.org/2000/svg">
<circle cx="60" cy="60" r="60" fill="#F9F9F9"/>
<path d="M79.2415 68.7817C77.8169 69.3689 76.2438 68.9412 74.8084 69.4342C73.4998 70.547 72.1623 69.7133 70.8356 69.4958C68.9471 69.474 67.0622 69.4559 65.1737 69.4342C63.3359 68.9738 61.4293 69.6226 59.5952 69.1116C59.3922 69.1007 59.1892 69.0862 58.9862 69.0753C58.1344 68.6947 57.1919 69.1514 56.3401 68.7781C56.1009 68.7563 55.858 68.7346 55.6188 68.7165C55.5282 68.5642 55.5354 68.4156 55.6514 68.2779C56.0211 68.1909 56.3981 68.1727 56.7823 68.2416C55.974 68.0531 55.2672 68.4373 54.5241 68.6222C54.2631 68.6295 54.0239 68.5606 53.8028 68.4265C52.0085 68.0422 50.2142 67.6616 48.42 67.2774C47.3362 66.9439 46.0965 67.3898 45.1033 66.6068C44.2986 66.5815 43.4903 66.5597 42.6856 66.5343C39.4124 66.6068 36.9838 65.0011 34.9394 62.6341C34.3123 61.9889 33.3771 61.9997 32.6522 61.5611C32.8008 61.4016 32.9458 61.1878 33.1524 61.4959C33.098 61.3183 32.9567 61.3146 32.8044 61.3074C32.4166 61.282 32.007 61.4016 31.6517 61.1443C31.5466 61.0029 31.4886 60.8326 31.4161 60.6731C31.1986 60.7854 31.543 60.8869 31.4197 61.0065C31.369 61.1189 31.282 61.1805 31.1914 61.2422C31.05 61.34 30.8434 61.2095 30.7347 61.3908C30.9195 61.311 31.0065 61.4343 31.0899 61.5648C28.1466 62.1338 25.6962 63.6671 23.3474 65.4288C23.0574 65.6463 22.9849 65.8601 22.9668 66.1574C22.3107 67.0744 21.3284 67.5166 20.3569 67.9806C20.1503 68.1184 19.9401 68.2597 19.7335 68.3975C19.4435 68.7563 19.1752 69.155 18.6098 69.0282C18.1096 69.0934 17.5876 69.0826 17.1889 69.4777C16.6306 69.8546 16.3407 69.5502 16.1304 69.0572C15.7861 67.2448 17.0257 65.7731 17.2034 64.0731C17.439 63.3373 17.5368 62.5579 17.8993 61.862C17.9936 61.8004 18.0117 61.7206 17.9573 61.6228C18.3017 60.8905 17.5876 59.9952 18.3125 59.321C18.3053 59.2014 18.298 59.0854 18.2908 58.9658C17.8631 58.3568 18.2763 57.6101 17.9537 56.9903C17.7725 56.3306 17.5912 55.6745 17.4136 55.0148C17.584 54.7828 17.8159 54.7393 18.0769 54.7792C18.1965 54.8082 18.2545 54.9459 18.3162 54.964C18.7729 55.1018 18.2618 54.8299 18.3778 54.8082C18.1929 54.3732 18.2038 53.931 18.3198 53.4815C18.3814 53.3184 18.472 53.177 18.5917 53.0538C19.487 53.0103 20.2156 52.2455 21.1725 52.4484C22.3215 52.7457 23.4416 53.0828 24.0832 54.2137L24.1013 54.2246C24.9713 54.6378 26.0804 54.6233 26.6169 55.6346C26.6677 55.7361 26.7474 55.7687 26.8525 55.7325C27.4796 55.9935 28.2372 55.9319 28.7555 56.4756L28.7302 56.4574C29.2739 56.7837 29.8828 56.2943 30.4302 56.5952C30.7999 56.7547 31.2131 56.7619 31.5901 56.9142C31.8076 57.0012 31.9236 56.8344 31.6807 56.8525C31.4379 56.8707 31.7822 56.6169 31.5756 56.7402C31.543 56.6133 31.5829 56.5227 31.6916 56.4647C33.504 56.2182 35.3164 55.9717 37.1251 55.7252C37.2665 55.834 37.4333 55.8739 37.6036 55.8666C37.7341 55.8594 37.8755 55.9282 37.9987 55.834C37.8755 55.8231 37.7885 55.7579 37.7377 55.6382C41.2936 54.4094 45.0453 54.3623 48.7172 53.8367C51.1857 53.4525 53.6505 53.0502 56.0827 52.4811C58.718 50.8137 61.6649 50.8354 64.6046 50.9949C69.0305 51.2341 73.4563 51.5277 77.8205 52.3687C77.4871 52.684 77.1427 52.7203 76.9434 52.5644C77.4472 52.6514 78.1142 52.6985 78.7884 52.4593C81.0394 52.6007 83.265 52.9015 85.4543 53.4416C85.3601 53.6156 85.2006 53.6519 85.023 53.6772C84.8744 53.699 84.7874 53.67 84.7946 53.7026C85.2948 53.6446 85.8422 53.815 86.3968 53.5576C88.8 53.9092 91.1996 54.2645 93.6028 54.6161C93.7442 54.6777 93.7986 54.7828 93.7696 54.9242C93.65 55.1272 93.5811 54.7792 93.6137 55.0148C93.6391 55.2178 93.6246 55.2105 93.7768 55.0909C93.9581 54.9495 94.2082 54.9024 94.4257 54.8154C94.6721 54.761 94.915 54.7248 95.1144 54.935C96.2453 55.4425 97.4379 55.6709 98.6739 55.6999C100.32 55.9862 102.128 55.7252 103.448 57.1172C104.173 57.6065 105.467 57.8784 105.445 58.6867C105.42 59.64 104.26 60.22 103.411 60.7456C102.774 61.137 102.128 61.5829 101.324 61.5974C100.997 61.4016 100.932 61.0754 100.889 60.7456C99.9933 60.2345 99.62 60.8398 99.2792 61.4995C99.2937 61.7822 99.3155 62.0614 99.4315 62.3223C99.5149 62.5145 99.6091 62.7102 99.4569 62.9132C93.273 65.9979 86.7411 67.9154 79.8758 68.6947C79.3393 68.4011 78.792 68.6077 78.473 68.5497C78.6035 68.5062 78.937 68.4881 79.2415 68.7817Z" fill="black"/>
<path d="M15.3474 51.7124C15.4598 51.2049 14.5898 50.7591 15.2495 50.2153C15.583 50.0957 15.9564 49.987 16.1811 50.3458C16.7031 51.1832 17.4933 51.0382 18.269 50.9838C18.9033 50.9584 19.041 51.8465 19.7044 51.7668C19.5485 53.3109 18.0624 52.9339 17.2214 53.4921C17.0728 53.5683 16.9169 53.6226 16.7538 53.6589C16.0107 53.2094 15.9817 52.2452 15.3474 51.7124Z" fill="black"/>
<path d="M101.276 60.4084C101.295 60.8108 101.313 61.2131 101.331 61.6155C101.146 62.6739 100.16 62.5978 99.4641 62.9313C99.3445 62.8153 99.2212 62.6957 99.1016 62.5797C98.7428 61.7967 100.287 61.6952 99.7251 60.8325C100.124 60.2526 100.613 60.0133 101.276 60.4084Z" fill="black"/>
<path d="M16.7537 53.6589C16.7754 53.4922 16.8008 53.3218 16.8225 53.1551C17.4242 52.8905 18.0296 52.8832 18.6313 53.1587C18.6313 53.2819 18.6313 53.4016 18.6313 53.5248C18.1238 53.9126 18.711 54.5687 18.2688 54.9747C17.9825 54.9892 17.6997 55.0037 17.4134 55.0182C17.0835 54.6159 16.8153 54.1881 16.7537 53.6589Z" fill="black"/>
<path d="M31.0862 61.5647C31.0282 61.398 30.2344 61.7061 30.8071 61.137C30.9558 60.992 31.1479 60.8941 31.3219 60.7709C31.4415 60.6223 31.5611 60.6295 31.6807 60.7709C31.9526 61.1913 32.3875 61.1116 32.7899 61.1442C32.924 61.1551 33.1814 61.1152 33.0944 61.3581C33.0545 61.4668 32.8008 61.4958 32.6449 61.5611C32.1266 61.5611 31.6046 61.5611 31.0862 61.5647Z" fill="black"/>
<path d="M28.7553 56.4826C28.0267 56.4717 27.3996 56.2071 26.8523 55.7395C27.5954 55.7105 28.411 55.4967 28.7553 56.4826Z" fill="black"/>
<path d="M78.7954 52.4703C78.1067 53.0865 77.3527 52.6877 76.6096 52.5355C77.0156 52.4848 77.4216 52.4304 77.8275 52.3796C78.1502 52.4086 78.4728 52.4376 78.7954 52.4703Z" fill="black"/>
<path d="M86.4038 53.572C85.8601 54.0614 85.2475 53.8946 84.5986 53.7895C84.798 53.3545 85.2004 53.5901 85.4577 53.4524C85.7767 53.4923 86.092 53.5321 86.4038 53.572Z" fill="black"/>
<path d="M79.2413 68.7815C78.8462 68.7344 78.4511 68.6873 77.7297 68.6039C78.6976 68.3393 79.3174 68.2052 79.8829 68.7163C79.669 68.7344 79.4551 68.7598 79.2413 68.7815Z" fill="black"/>
<path d="M37.7449 55.6453C38.0204 55.6851 38.2922 55.725 38.9193 55.8156C38.0602 56.0911 37.5745 56.2107 37.1287 55.7323C37.3353 55.7033 37.5383 55.6743 37.7449 55.6453Z" fill="black"/>
<path d="M16.8228 53.1551C17.7144 52.5498 19.0774 52.9232 19.7045 51.7668C20.0307 51.8865 20.3569 52.0097 20.6831 52.1293C20.8861 52.3359 21.0855 52.5425 21.2885 52.7492" fill="black"/>
<path d="M18.269 50.9839C17.2794 52.2308 16.5291 51.5131 15.9201 50.6214C15.7135 50.3206 15.5177 50.2734 15.2495 50.2155C16.3913 49.5485 17.2141 50.6323 18.2146 50.7483C18.2182 50.828 18.2363 50.9078 18.269 50.9839Z" fill="black"/>
<path d="M51.019 66.5089C52.266 65.3889 53.1939 66.4147 54.1509 66.5089C53.2084 66.5089 52.266 66.5089 51.019 66.5089Z" fill="black"/>
<path d="M101.276 60.4084C100.657 60.3722 100.102 60.4737 99.8265 61.1334C99.6888 61.456 99.5112 61.7061 99.1016 61.4995C98.9856 61.4741 98.7717 61.4379 98.7717 61.4306C98.9131 60.3831 100.341 59.8067 101.276 60.4084Z" fill="black"/>
<path d="M99.1015 61.4957C99.3444 61.3725 99.5836 61.2529 99.8265 61.1296C100.131 61.3218 100.664 61.5211 99.9679 61.8437C99.5873 62.0213 99.2719 62.1917 99.1015 62.5796C98.5216 62.2171 99.0073 61.8582 99.1015 61.4957Z" fill="black"/>
<path d="M93.6643 63.308C94.3639 62.8296 95.0925 62.5867 95.9117 63.0072C95.9443 63.0253 95.9588 63.1196 95.9443 63.1703C95.9334 63.221 95.8754 63.2609 95.8392 63.308C95.1142 63.5835 94.3893 63.5835 93.6643 63.308Z" fill="black"/>
<path d="M86.799 65.9977C85.9834 66.4906 85.9834 66.4906 84.9685 66.4471C85.1461 66.0339 85.5557 66.2478 85.8348 66.1282C86.1284 65.9977 86.4329 65.7113 86.799 65.9977Z" fill="black"/>
<path d="M55.4739 68.4481C55.1585 68.4119 54.8395 68.3793 54.5242 68.343C55.3397 67.7776 56.1988 68.0458 57.0579 68.2995C56.5323 68.3503 56.0031 68.3974 55.4739 68.4481Z" fill="black"/>
<path d="M66.5764 52.1438C67.2579 52.1438 67.9393 52.1438 68.6244 52.1438C67.9285 52.5317 67.2216 52.4483 66.5764 52.1438Z" fill="black"/>
<path d="M18.2689 54.9712C18.5734 54.5362 17.5185 53.7605 18.6314 53.5212C18.6241 54.094 18.751 54.7138 18.5661 55.2176C18.4429 55.5511 18.3414 55.1161 18.2689 54.9712Z" fill="black"/>
<path d="M101.885 60.267C102.005 60.2018 102.128 60.0785 102.262 60.0676C102.476 60.0459 102.777 59.9988 102.799 60.3177C102.806 60.4301 102.603 60.6222 102.462 60.6621C102.215 60.731 102.012 60.5969 101.885 60.267Z" fill="black"/>
<path d="M31.6805 60.7708C31.5609 60.7708 31.4413 60.7708 31.3217 60.7708C31.0571 60.662 30.749 60.604 30.5387 60.43C30.372 60.2887 30.5496 60.1074 30.7417 60.0929C31.2347 60.0531 31.4884 60.3757 31.6805 60.7708Z" fill="black"/>
<path d="M30.6003 56.816C30.9266 56.787 31.2528 56.758 31.579 56.729C31.8509 56.7689 32.1227 56.8087 32.8658 56.9211C31.7711 57.1821 31.1658 57.309 30.6003 56.816Z" fill="black"/>
<path d="M93.6643 63.3081C94.3893 63.3081 95.1142 63.3081 95.8392 63.3081C95.1142 63.8591 94.3893 63.8554 93.6643 63.3081Z" fill="black"/>
<path d="M93.7876 54.9094C93.9869 54.942 94.1827 54.9747 94.382 55.0109C93.9652 55.4423 93.4795 55.3915 92.9321 55.2175C93.1351 54.8079 93.5266 55.0435 93.7876 54.9094Z" fill="black"/>
</svg>
