<svg width="100" height="100" viewBox="0 0 100 100" fill="none" xmlns="http://www.w3.org/2000/svg">
<circle cx="50" cy="50" r="50" fill="white"/>
<path d="M61.5955 55.2691C60.7409 55.6213 59.7971 55.3647 58.936 55.6605C58.151 56.3281 57.3486 55.8279 56.5527 55.6975C55.4197 55.6844 54.2889 55.6735 53.156 55.6605C52.0535 55.3843 50.9096 55.7736 49.8093 55.4669C49.6875 55.4604 49.5658 55.4517 49.444 55.4452C48.9329 55.2169 48.3676 55.4909 47.8565 55.2669C47.713 55.2538 47.5673 55.2408 47.4238 55.2299C47.3694 55.1386 47.3738 55.0494 47.4434 54.9668C47.6652 54.9146 47.8913 54.9037 48.1218 54.945C47.6369 54.832 47.2129 55.0625 46.7671 55.1734C46.6105 55.1777 46.467 55.1364 46.3343 55.0559C45.2579 54.8254 44.1815 54.5971 43.1051 54.3666C42.4549 54.1665 41.7112 54.434 41.1153 53.9643C40.6326 53.9491 40.1477 53.936 39.6649 53.9208C37.7013 53.9643 36.2443 53.001 35.0178 51.581C34.6416 51.1939 34.0806 51.2004 33.6457 50.9373C33.7348 50.8416 33.8218 50.7133 33.9458 50.8982C33.9131 50.7916 33.8283 50.7894 33.737 50.7851C33.5043 50.7699 33.2586 50.8416 33.0455 50.6872C32.9824 50.6024 32.9476 50.5002 32.9041 50.4045C32.7737 50.4719 32.9802 50.5328 32.9063 50.6046C32.8759 50.672 32.8237 50.709 32.7693 50.7459C32.6845 50.8046 32.5606 50.7264 32.4953 50.8351C32.6062 50.7873 32.6584 50.8612 32.7084 50.9395C30.9427 51.2809 29.4727 52.2007 28.0635 53.2576C27.8896 53.388 27.8461 53.5163 27.8352 53.6947C27.4416 54.2448 26.8523 54.5101 26.2695 54.7885C26.1455 54.8711 26.0194 54.9559 25.8955 55.0386C25.7215 55.2538 25.5606 55.493 25.2214 55.4169C24.9213 55.4561 24.6081 55.4495 24.3689 55.6866C24.034 55.9127 23.8601 55.7301 23.7339 55.4343C23.5274 54.347 24.2711 53.4642 24.3776 52.4443C24.519 52.0028 24.5777 51.5353 24.7951 51.1178C24.8517 51.0808 24.8625 51.033 24.8299 50.9743C25.0365 50.535 24.6081 49.9979 25.043 49.5934C25.0387 49.5216 25.0343 49.4521 25.03 49.3803C24.7734 49.015 25.0213 48.567 24.8278 48.1952C24.719 47.7994 24.6103 47.4058 24.5037 47.01C24.6059 46.8708 24.7451 46.8447 24.9017 46.8687C24.9734 46.8861 25.0082 46.9687 25.0452 46.9796C25.3192 47.0622 25.0126 46.8991 25.0822 46.8861C24.9713 46.6251 24.9778 46.3598 25.0474 46.0902C25.0844 45.9923 25.1387 45.9075 25.2105 45.8336C25.7476 45.8075 26.1847 45.3486 26.7588 45.4704C27.4481 45.6487 28.1201 45.851 28.505 46.5294L28.5158 46.5359C29.0377 46.7839 29.7032 46.7752 30.025 47.3819C30.0554 47.4427 30.1033 47.4623 30.1663 47.4406C30.5425 47.5971 30.997 47.5602 31.308 47.8864L31.2928 47.8755C31.619 48.0712 31.9843 47.7776 32.3126 47.9581C32.5345 48.0538 32.7824 48.0582 33.0085 48.1495C33.139 48.2017 33.2086 48.1016 33.0629 48.1125C32.9172 48.1234 33.1238 47.9712 32.9998 48.0451C32.9802 47.969 33.0042 47.9146 33.0694 47.8798C34.1567 47.732 35.244 47.5841 36.3291 47.4362C36.4139 47.5015 36.5139 47.5254 36.6161 47.521C36.6944 47.5167 36.7792 47.558 36.8532 47.5015C36.7792 47.4949 36.727 47.4558 36.6966 47.384C38.8299 46.6469 41.0805 46.6186 43.2834 46.3033C44.7643 46.0728 46.243 45.8314 47.7021 45.49C49.2831 44.4897 51.051 44.5027 52.8146 44.5984C55.4697 44.7419 58.1249 44.9181 60.7431 45.4226C60.543 45.6118 60.3364 45.6335 60.2168 45.54C60.5191 45.5922 60.9192 45.6205 61.3237 45.4769C62.6741 45.5617 64.0093 45.7422 65.3227 46.0662C65.2662 46.1706 65.1705 46.1924 65.064 46.2076C64.9748 46.2206 64.9226 46.2032 64.927 46.2228C65.2271 46.188 65.5554 46.2902 65.8881 46.1358C67.3299 46.3468 68.7695 46.5599 70.2112 46.7708C70.296 46.8078 70.3286 46.8708 70.3112 46.9556C70.2395 47.0774 70.1981 46.8687 70.2177 47.01C70.2329 47.1318 70.2242 47.1274 70.3156 47.0557C70.4243 46.9709 70.5743 46.9426 70.7048 46.8904C70.8527 46.8578 70.9984 46.836 71.118 46.9622C71.7965 47.2666 72.5119 47.4036 73.2534 47.421C74.2407 47.5928 75.3258 47.4362 76.1173 48.2713C76.5523 48.5648 77.3286 48.7279 77.3155 49.2129C77.3003 49.7848 76.6045 50.1327 76.0956 50.448C75.7129 50.6829 75.3258 50.9503 74.843 50.959C74.6473 50.8416 74.6082 50.6459 74.5821 50.448C74.045 50.1414 73.821 50.5046 73.6166 50.9003C73.6253 51.0699 73.6383 51.2374 73.7079 51.394C73.7579 51.5092 73.8145 51.6266 73.7231 51.7484C70.0133 53.599 66.0947 54.7493 61.9761 55.2169C61.6542 55.0407 61.3259 55.1647 61.1345 55.1299C61.2128 55.1038 61.4129 55.0929 61.5955 55.2691Z" fill="black"/>
<path d="M23.2641 45.0389C23.3315 44.7345 22.8096 44.467 23.2054 44.1408C23.4054 44.0691 23.6294 44.0038 23.7642 44.2191C24.0774 44.7214 24.5514 44.6344 25.0168 44.6018C25.3973 44.5866 25.48 45.1194 25.8779 45.0715C25.7844 45.9979 24.8928 45.7718 24.3883 46.1066C24.2992 46.1523 24.2057 46.1849 24.1078 46.2067C23.662 45.937 23.6446 45.3586 23.2641 45.0389Z" fill="black"/>
<path d="M74.8148 50.2461C74.8256 50.4875 74.8365 50.7289 74.8474 50.9703C74.7365 51.6052 74.145 51.5596 73.7275 51.7596C73.6557 51.69 73.5818 51.6183 73.51 51.5487C73.2947 51.079 74.2211 51.0181 73.884 50.5005C74.1232 50.1526 74.4168 50.0091 74.8148 50.2461Z" fill="black"/>
<path d="M24.1077 46.1956C24.1207 46.0956 24.1359 45.9934 24.149 45.8934C24.51 45.7346 24.8731 45.7303 25.2341 45.8955C25.2341 45.9695 25.2341 46.0412 25.2341 46.1152C24.9297 46.3479 25.2819 46.7415 25.0166 46.985C24.8448 46.9937 24.6752 47.0024 24.5034 47.0111C24.3056 46.7697 24.1446 46.5131 24.1077 46.1956Z" fill="black"/>
<path d="M32.706 50.9372C32.6712 50.8372 32.195 51.022 32.5386 50.6806C32.6277 50.5936 32.743 50.5349 32.8474 50.461C32.9191 50.3718 32.9909 50.3762 33.0627 50.461C33.2258 50.7133 33.4867 50.6654 33.7281 50.685C33.8085 50.6915 33.9629 50.6676 33.9107 50.8133C33.8868 50.8785 33.7346 50.8959 33.6411 50.9351C33.3301 50.9351 33.017 50.9351 32.706 50.9372Z" fill="black"/>
<path d="M31.3078 47.8905C30.8707 47.884 30.4945 47.7253 30.1661 47.4447C30.6119 47.4273 31.1012 47.299 31.3078 47.8905Z" fill="black"/>
<path d="M61.3275 45.4823C60.9143 45.852 60.462 45.6128 60.0162 45.5215C60.2598 45.491 60.5033 45.4584 60.7469 45.428C60.9404 45.4454 61.134 45.4628 61.3275 45.4823Z" fill="black"/>
<path d="M65.8921 46.1435C65.566 46.4371 65.1985 46.3371 64.8092 46.274C64.9288 46.0131 65.1702 46.1544 65.3246 46.0718C65.5159 46.0957 65.7051 46.1196 65.8921 46.1435Z" fill="black"/>
<path d="M61.5952 55.2669C61.3581 55.2387 61.1211 55.2104 60.6884 55.1604C61.269 55.0016 61.6408 54.9212 61.9801 55.2278C61.8518 55.2387 61.7235 55.2539 61.5952 55.2669Z" fill="black"/>
<path d="M36.7006 47.3887C36.8659 47.4126 37.029 47.4365 37.4052 47.4909C36.8898 47.6561 36.5984 47.7279 36.3309 47.4409C36.4549 47.4235 36.5767 47.4061 36.7006 47.3887Z" fill="black"/>
<path d="M24.149 45.8934C24.684 45.5303 25.5016 45.7542 25.8778 45.0605C26.0735 45.1323 26.2693 45.2062 26.465 45.278C26.5867 45.402 26.7064 45.5259 26.8281 45.6499" fill="black"/>
<path d="M25.0167 44.5898C24.4231 45.3378 23.9729 44.9073 23.6076 44.3723C23.4837 44.1918 23.3662 44.1636 23.2053 44.1288C23.8903 43.7286 24.3839 44.3788 24.9841 44.4484C24.9863 44.4963 24.9972 44.5441 25.0167 44.5898Z" fill="black"/>
<path d="M44.6639 53.9058C45.412 53.2339 45.9687 53.8493 46.5428 53.9058C45.9774 53.9058 45.412 53.9058 44.6639 53.9058Z" fill="black"/>
<path d="M74.8142 50.2437C74.4423 50.222 74.1096 50.2829 73.9443 50.6786C73.8617 50.8722 73.7551 51.0222 73.5094 50.8983C73.4398 50.883 73.3115 50.8613 73.3115 50.857C73.3963 50.2285 74.2531 49.8827 74.8142 50.2437Z" fill="black"/>
<path d="M73.5101 50.8961C73.6558 50.8222 73.7994 50.7504 73.9451 50.6765C74.1277 50.7918 74.4474 50.9114 74.0299 51.1049C73.8015 51.2115 73.6124 51.3137 73.5101 51.5463C73.1622 51.3289 73.4536 51.1136 73.5101 50.8961Z" fill="black"/>
<path d="M70.2482 51.9855C70.6679 51.6984 71.105 51.5527 71.5964 51.805C71.616 51.8158 71.6247 51.8724 71.616 51.9028C71.6095 51.9333 71.5747 51.9572 71.5529 51.9855C71.118 52.1507 70.6831 52.1507 70.2482 51.9855Z" fill="black"/>
<path d="M66.1293 53.5977C65.64 53.8934 65.64 53.8934 65.0311 53.8673C65.1377 53.6194 65.3834 53.7477 65.5509 53.6759C65.727 53.5977 65.9097 53.4259 66.1293 53.5977Z" fill="black"/>
<path d="M47.3365 55.0694C47.1473 55.0476 46.9559 55.0281 46.7667 55.0063C47.256 54.6671 47.7714 54.828 48.2868 54.9802C47.9714 55.0107 47.654 55.0389 47.3365 55.0694Z" fill="black"/>
<path d="M53.9972 45.2864C54.406 45.2864 54.8148 45.2864 55.2258 45.2864C54.8083 45.5191 54.3843 45.469 53.9972 45.2864Z" fill="black"/>
<path d="M25.0165 46.9826C25.1992 46.7217 24.5664 46.2563 25.234 46.1128C25.2296 46.4564 25.3057 46.8282 25.1948 47.1305C25.1209 47.3306 25.06 47.0696 25.0165 46.9826Z" fill="black"/>
<path d="M75.1797 50.1594C75.2514 50.1203 75.3254 50.0463 75.4058 50.0398C75.5341 50.0268 75.7146 49.9985 75.7277 50.1898C75.732 50.2573 75.6103 50.3725 75.5254 50.3964C75.3776 50.4377 75.2558 50.3573 75.1797 50.1594Z" fill="black"/>
<path d="M33.0625 50.4626C32.9908 50.4626 32.919 50.4626 32.8473 50.4626C32.6885 50.3974 32.5037 50.3626 32.3775 50.2582C32.2775 50.1734 32.3841 50.0647 32.4993 50.056C32.7951 50.032 32.9473 50.2256 33.0625 50.4626Z" fill="black"/>
<path d="M32.4147 48.091C32.6104 48.0736 32.8061 48.0562 33.0018 48.0388C33.1649 48.0627 33.328 48.0867 33.7738 48.1541C33.1171 48.3106 32.7539 48.3868 32.4147 48.091Z" fill="black"/>
<path d="M70.2482 51.9841C70.6831 51.9841 71.118 51.9841 71.5529 51.9841C71.118 52.3147 70.6831 52.3125 70.2482 51.9841Z" fill="black"/>
<path d="M70.322 46.9468C70.4416 46.9663 70.5591 46.9859 70.6787 47.0077C70.4286 47.2664 70.1372 47.236 69.8088 47.1316C69.9306 46.8859 70.1655 47.0272 70.322 46.9468Z" fill="black"/>
</svg>
