<svg width="120" height="120" viewBox="0 0 120 120" fill="none" xmlns="http://www.w3.org/2000/svg">
<circle cx="60" cy="60" r="60" fill="#F9F9F9"/>
<path d="M58.7661 26.2933C58.5344 26.4668 58.2832 26.8922 58.2062 27.2592C58.1097 27.781 57.9744 27.9545 57.5685 28.0516C56.4479 28.2834 54.6903 28.9786 53.6856 29.5969C51.0392 31.181 48.8368 34.3492 48.3733 37.208C48.2575 37.8838 48.0646 38.2127 47.4463 38.7338C46.5575 39.5262 46.1523 40.3567 46.1523 41.4773C46.1523 42.5015 46.6158 43.4868 47.4463 44.1238L48.084 44.6456V47.5043V50.3638L47.3887 50.982C45.7262 52.4308 45.7262 54.8649 47.3492 56.2561L48.0063 56.8161L46.2098 70.9183C45.2246 78.6647 44.3357 85.04 44.2198 85.0789C44.1234 85.1177 43.8333 85.3106 43.6016 85.5042C43.1957 85.8324 43.1575 86.026 43.0992 88.2859C43.0222 90.7006 43.0222 90.72 42.6163 90.4883C42.3845 90.3724 41.9405 90.0629 41.6504 89.8319C40.9163 89.2136 40.3175 89.2525 39.5064 89.9478C38.7528 90.6236 37.6905 91.1072 36.9758 91.1072C36.2611 91.1072 35.817 91.3972 35.5464 92.0342C35.2564 92.7101 35.5076 93.5025 36.1258 93.8307C36.7635 94.1589 38.6175 93.9271 39.7381 93.3672L40.704 92.8842L41.7281 93.3866C42.617 93.8307 43.0222 93.9084 44.5099 93.9084C45.9975 93.9084 46.4027 93.8314 47.2722 93.406L48.2769 92.9036L49.301 93.406C50.1705 93.8501 50.557 93.9084 52.1411 93.9084C53.7446 93.9084 54.0922 93.8314 54.9228 93.406L55.8887 92.9036L56.951 93.406C57.8593 93.8307 58.3033 93.9084 59.7716 93.9084C61.278 93.9084 61.645 93.8314 62.4957 93.3866L63.5004 92.8842L64.5246 93.3866C65.4134 93.8307 65.8187 93.9084 67.3063 93.9084C68.794 93.9084 69.1992 93.8314 70.0881 93.406L71.1122 92.8842L72.0975 93.406C72.9669 93.8501 73.3146 93.9084 74.9375 93.9084C76.5411 93.9084 76.8887 93.8508 77.7387 93.406L78.7046 92.8842L79.6704 93.3866C80.3081 93.696 81.0804 93.9084 81.9109 93.966C83.1086 94.0437 83.205 94.0236 83.5915 93.5219C83.8232 93.2318 84.0168 92.7683 84.0168 92.5172C84.0168 91.8608 83.205 91.1072 82.4716 91.1072C81.6986 91.1072 80.8105 90.7207 79.8827 89.9672C78.9169 89.1942 78.4728 89.2136 77.4292 90.0449C76.9657 90.412 76.5209 90.7207 76.4439 90.7207C76.3475 90.7207 76.2899 89.6771 76.2899 88.4025C76.2899 86.2196 76.251 86.0454 75.8458 85.6208C75.5946 85.3696 75.3053 85.1378 75.1887 85.099C75.034 85.0407 74.2999 79.7478 73.1799 70.9579L71.4002 56.8938L72.076 56.1791C73.003 55.2132 73.1966 54.7879 73.1966 53.6291C73.1966 52.4509 72.8871 51.7744 71.9601 50.9633L71.2649 50.3645V47.5439V44.7233L71.9601 44.1245C72.8878 43.3133 73.1966 42.6368 73.1966 41.4198C73.1966 40.2416 72.636 39.1404 71.7478 38.561C71.2843 38.271 71.1296 37.9622 70.936 36.9963C70.0277 32.5528 66.4737 29.0952 61.7595 28.0523C61.3536 27.9559 61.219 27.8206 61.219 27.4729C61.219 27.2217 61.0455 26.7971 60.8131 26.5071C60.3503 25.9263 59.442 25.8298 58.7661 26.2933ZM61.8955 31.1227C63.422 31.5286 64.909 32.4362 66.0102 33.6338C66.8796 34.5997 67.9037 36.512 68.0196 37.4009L68.0772 37.8838L59.6932 37.9414L51.3091 37.9802L51.425 37.2655C51.6179 36.0679 52.5262 34.5032 53.6662 33.3632C55.888 31.1616 58.882 30.3504 61.8955 31.1227ZM70.2601 41.342C70.299 41.5349 70.2213 41.7674 70.0672 41.8638C69.9319 41.9603 65.2379 42.038 59.655 42.038C48.9333 42.038 48.8368 42.038 49.165 41.188C49.2809 40.898 50.2079 40.8792 59.732 40.9174C69.7966 40.975 70.2025 40.9944 70.2601 41.342ZM53.492 47.5432V50.1514H52.3333H51.1738V47.5432V44.9356H52.3333H53.492V47.5432ZM62.9197 47.4856L62.8621 50.055L59.7327 50.1126L56.5839 50.1514V47.5432V44.9356H59.7716H62.9786L62.9197 47.4856ZM68.1737 47.5432V50.1514H67.0149H65.8554V47.5432V44.9356H67.0149H68.1737V47.5432ZM70.2025 53.6284V54.1114L59.8479 54.169C50.8068 54.2078 49.4544 54.169 49.2421 53.9178C49.0492 53.686 49.0492 53.5701 49.2421 53.3384C49.4544 53.0872 50.8068 53.0484 59.8479 53.0872L70.2025 53.1448V53.6284ZM54.7479 57.3573C54.1103 57.7826 50.8456 59.6179 50.7297 59.6179C50.6527 59.6179 50.6333 59.3862 50.6909 59.0774C50.7297 58.7874 50.8262 58.2274 50.8838 57.8215L50.9996 57.1068H53.0674C54.8444 57.1061 55.0761 57.145 54.7479 57.3573ZM68.4248 57.2414C68.4831 57.3379 68.5601 57.9561 68.599 58.6319L68.6566 59.8684L65.5848 61.6267L62.5325 63.4037L61.6436 62.9596C60.0207 62.129 57.9536 62.4573 56.6207 63.7326C55.7707 64.5437 55.4036 65.2778 55.1525 66.6496L54.9401 67.7897L52.1584 69.3932C50.6132 70.282 49.3378 70.9773 49.2802 70.9384C49.1838 70.842 50.0719 63.6944 50.2072 63.5008C50.2648 63.4238 52.7378 61.9556 55.7131 60.2362L61.1218 57.1068H64.7341C66.7249 57.1061 68.3867 57.1637 68.4248 57.2414ZM69.2172 63.4231C69.5073 64.4854 69.9708 69.4889 69.7966 69.6631C69.5454 69.9143 47.8509 82.4324 47.7933 82.3748C47.7357 82.2978 48.6433 75.2273 48.7397 74.9567C48.8167 74.7443 54.3615 71.479 54.825 71.3631C54.9408 71.3242 55.1532 71.5178 55.2885 71.7884C55.7138 72.6384 56.2349 72.7543 59.8285 72.7543H63.1896L63.769 72.1749L64.3483 71.5955L64.2713 68.7174L64.213 65.8579L66.5313 64.5056C67.8066 63.752 68.9078 63.1338 68.9848 63.1143C69.0625 63.0949 69.1597 63.249 69.2172 63.4231ZM60.7367 65.8961C61.1808 66.3214 61.2197 66.5143 61.2197 68.0214V69.6631H59.6744H58.1292V68.0984C58.1292 66.4179 58.3033 65.8767 58.9597 65.6067C59.6932 65.3167 60.2538 65.3937 60.7367 65.8961ZM70.4926 73.179C70.4926 73.3143 70.6667 74.7631 70.8791 76.4048C71.0914 78.0472 71.2461 79.4189 71.2073 79.4377C71.1878 79.4571 68.9668 80.7512 66.3002 82.2971L61.4126 85.1177L55.3468 85.0789L49.2615 85.0206L59.732 78.9742C65.4891 75.6706 70.2601 72.9472 70.3378 72.9472C70.4343 72.9472 70.4926 73.0631 70.4926 73.179ZM71.8831 84.19L71.999 85.117H69.7585C68.5414 85.117 67.5755 85.0594 67.6526 85.0011C67.7109 84.9241 68.6184 84.3829 69.662 83.7841C71.7672 82.5483 71.7089 82.5483 71.8831 84.19ZM73.3513 89.3094C73.4089 90.7193 73.2743 90.7971 72.289 89.9471C71.4196 89.1741 70.8014 89.2129 69.739 90.0435C68.1168 91.3376 66.7644 91.357 64.9097 90.1212C64.2915 89.6959 63.5962 89.3677 63.3832 89.3677C63.1514 89.3677 62.6685 89.6383 62.3014 89.9471C60.582 91.4541 58.9403 91.4736 57.0856 89.9665C56.1392 89.2129 55.6756 89.2129 54.7285 89.9665C52.8738 91.4736 51.2321 91.4541 49.5127 89.9471C48.6627 89.2129 47.9674 89.1935 47.1174 89.9471C46.7504 90.2558 46.3833 90.5077 46.3063 90.5264C46.2099 90.5264 46.1516 89.9658 46.1516 89.2705V88.0146L59.732 88.0535L73.293 88.1111L73.3513 89.3094Z" fill="#AAC8F8"/>
<path d="M36.8203 37.6333C36.3568 38.0004 36.1251 38.7734 36.3374 39.3527C36.4727 39.7392 37.1874 40.2416 39.2544 41.4392C40.7615 42.2892 42.2103 43.0039 42.4421 43.0039C43.0214 43.0039 43.8333 42.1733 43.8333 41.6127C43.8333 40.821 43.3115 40.3568 40.7233 38.8698C38.2115 37.4016 37.458 37.1698 36.8203 37.6333Z" fill="#AAC8F8"/>
<path d="M78.6071 38.8504C76.0571 40.3575 75.5159 40.8404 75.5159 41.594C75.5159 42.1733 76.3277 43.0039 76.9071 43.0039C77.3706 43.0039 81.9106 40.5122 82.6253 39.8551C83.1658 39.3527 83.2047 38.3286 82.6641 37.7881C81.9876 37.1115 81.2146 37.3239 78.6071 38.8504Z" fill="#AAC8F8"/>
<path d="M34.4062 46.5391C33.8463 47.138 33.865 47.9304 34.4638 48.5097C34.9273 48.9927 34.9856 48.9927 38.1344 48.9927C41.2832 48.9927 41.3415 48.9927 41.805 48.5097C42.3843 47.9304 42.4232 47.2733 41.882 46.5974L41.4955 46.0951H38.1531C34.928 46.0944 34.8121 46.1138 34.4062 46.5391Z" fill="#AAC8F8"/>
<path d="M77.4667 46.5967C76.9262 47.2725 76.9644 47.9296 77.5444 48.509C78.0079 48.9919 78.0662 48.9919 81.215 48.9919C84.3638 48.9919 84.4214 48.9919 84.8856 48.509C85.5039 47.9102 85.5233 47.0796 84.9245 46.519C84.4991 46.1131 84.3062 46.0936 81.1769 46.0936H77.8532L77.4667 46.5967Z" fill="#AAC8F8"/>
<path d="M39.1973 53.6284C36.3768 55.2896 35.9708 55.7149 36.3386 56.7578C36.5509 57.376 37.0144 57.6848 37.691 57.6848C38.2509 57.6848 43.1774 54.8642 43.5445 54.3424C43.6992 54.1107 43.8345 53.7242 43.8345 53.473C43.8345 52.8548 43.0039 52.0818 42.3468 52.1012C42.0367 52.1026 40.685 52.759 39.1973 53.6284Z" fill="#AAC8F8"/>
<path d="M75.9981 52.5662C75.4381 53.1067 75.3798 53.7444 75.8052 54.3432C76.2305 54.942 81.1175 57.6855 81.7551 57.6855C82.7987 57.6855 83.4745 56.1785 82.8174 55.3285C82.4115 54.8261 77.4469 52.0832 76.9445 52.0832C76.6746 52.0832 76.2492 52.2956 75.9981 52.5662Z" fill="#AAC8F8"/>
</svg>
