<svg width="100" height="100" viewBox="0 0 100 100" fill="none" xmlns="http://www.w3.org/2000/svg">
<circle cx="50" cy="50" r="50" fill="white"/>
<line x1="33.3008" y1="37.8333" x2="26.1666" y2="37.8333" stroke="#17BAFF" stroke-width="4" stroke-linecap="round"/>
<line x1="33.8229" y1="43.5653" x2="27.6445" y2="47.1324" stroke="#17BAFF" stroke-width="4" stroke-linecap="round"/>
<line x1="33.577" y1="31.849" x2="27.3987" y2="28.2819" stroke="#17BAFF" stroke-width="4" stroke-linecap="round"/>
<line x1="73.4758" y1="37.8333" x2="66.3417" y2="37.8333" stroke="#17BAFF" stroke-width="4" stroke-linecap="round"/>
<line x1="65.8196" y1="31.1686" x2="71.9979" y2="27.6015" stroke="#17BAFF" stroke-width="4" stroke-linecap="round"/>
<line x1="66.0654" y1="42.8849" x2="72.2438" y2="46.452" stroke="#17BAFF" stroke-width="4" stroke-linecap="round"/>
<path d="M40.7294 45.0496C40.7887 44.546 41.2155 44.1664 41.7226 44.1664H58.2774C58.7845 44.1664 59.2113 44.546 59.2706 45.0496L62.1058 69.1492C62.3156 70.9327 60.9221 72.4998 59.1264 72.4998H40.8736C39.0778 72.4998 37.6844 70.9327 37.8942 69.1492L40.7294 45.0496Z" stroke="black" stroke-width="4"/>
<path d="M34.1666 73.4998C34.1666 72.9475 34.6143 72.4998 35.1666 72.4998H64.8333C65.3856 72.4998 65.8333 72.9475 65.8333 73.4998V78.9998C65.8333 79.552 65.3856 79.9998 64.8333 79.9998H35.1666C34.6143 79.9998 34.1666 79.552 34.1666 78.9998V73.4998Z" stroke="black" stroke-width="4"/>
<path d="M41.6667 27.4998C41.6667 22.8975 45.3976 19.1665 50 19.1665C54.6024 19.1665 58.3333 22.8975 58.3333 27.4998V29.9998C58.3333 30.4601 57.9602 30.8332 57.5 30.8332H42.5C42.0398 30.8332 41.6667 30.4601 41.6667 29.9998V27.4998Z" stroke="black" stroke-width="4"/>
<circle cx="50.4167" cy="37.0833" r="2.08333" fill="#17BAFF"/>
</svg>
