<svg width="120" height="120" viewBox="0 0 120 120" fill="none" xmlns="http://www.w3.org/2000/svg">
<circle cx="60" cy="60" r="60" fill="#F9F9F9"/>
<path d="M86.3957 21.4629C85.2159 22.0528 79.5086 27.6738 77.9124 29.8251C76.2638 32.0975 75.1189 34.5956 74.0088 38.5166L73.0372 41.9L64.154 50.7998L55.2716 59.7171L50.1534 59.6134C39.6573 59.4226 34.2969 58.1905 30.4621 55.0676C28.7447 53.6622 26.9402 51.1118 25.9861 48.7531C25.9164 48.5623 25.743 48.6659 25.2576 49.187C23.0723 51.6154 21.2852 55.4833 20.2788 59.9767C19.9495 61.3996 19.8972 62.2152 19.8798 65.0601C19.8798 69.1545 20.1054 70.2471 21.632 73.8388C21.6843 73.9425 21.1807 73.8562 20.5394 73.6305C19.8972 73.4223 18.822 73.1966 18.1798 73.1278L17 73.0058L17.0523 74.359L17.1046 75.7296L18.3366 75.8341C19.8284 75.9727 20.3494 76.1287 22.5173 77.1525C24.4255 78.0369 25.9347 78.4185 27.6695 78.4185H28.8841L26.9585 80.3616C24.8943 82.4781 24.0439 83.6404 23.7494 84.7854C23.6457 85.2019 23.5063 85.5312 23.42 85.5312C23.3337 85.5312 22.709 85.2533 22.0494 84.9239C20.5751 84.178 19.1696 83.7964 17.9376 83.7964H17.0174V85.0973V86.3982H17.677C18.8742 86.3982 20.5916 86.8835 22.3265 87.6991C24.5989 88.7569 25.5879 89 27.6869 89C29.7171 89 30.896 88.7395 32.7703 87.8551C34.939 86.8313 35.928 86.5542 37.5931 86.4496C39.7793 86.3111 41.2013 86.6056 43.4572 87.6294C45.9205 88.7569 46.9094 89 49.0259 89C51.1598 89 52.2185 88.7395 54.6469 87.6294C58.2725 85.9468 61.0834 85.9468 64.7613 87.6294C67.2246 88.7569 68.2484 89 70.3649 89C72.5859 88.9826 73.1932 88.844 75.7427 87.6991C78.2069 86.6064 79.594 86.3111 81.7976 86.4496C83.4802 86.5542 84.504 86.8487 86.5856 87.8551C88.4076 88.7229 89.6562 89 91.7038 89C93.8029 89 94.7918 88.7569 97.0643 87.6991C98.7991 86.8835 100.517 86.3982 101.731 86.3982H102.373V85.0973V83.7964H101.454C100.187 83.7964 98.9385 84.1606 96.9257 85.0973C93.1616 86.867 90.1773 86.8495 86.2562 85.0276C84.0526 84.0212 83.116 83.7955 80.9132 83.7955C78.9004 83.7955 77.7904 84.0726 75.6042 85.0964C71.9263 86.8487 68.8034 86.8312 65.0384 85.079C62.766 84.0203 61.8633 83.7955 59.7294 83.7955C57.4909 83.7955 56.7799 83.9689 54.4726 85.0276C52.1305 86.1202 50.5864 86.4679 48.4177 86.3459C46.5783 86.2414 45.4682 85.9294 43.1958 84.8368L41.6866 84.1258L42.3114 83.2239C43.005 82.1827 44.2893 79.546 44.6361 78.4534C44.8269 77.8286 44.9132 77.7249 45.2086 77.8112C48.5745 78.8002 51.1075 78.5919 54.4377 77.0479C56.7625 75.9727 57.4046 75.8158 59.6945 75.8158C61.9844 75.8158 62.6265 75.9718 64.9513 77.0479C68.8723 78.8699 71.8209 78.8864 75.5859 77.1167C77.8758 76.0415 78.8299 75.8158 81.0335 75.8158C83.2022 75.8158 84.0526 76.0241 86.4113 77.1167C90.2104 78.8516 93.1598 78.869 96.8377 77.1516C99.0065 76.1452 99.5615 75.9718 101.053 75.8333L102.285 75.7287L102.338 74.3581L102.389 73.0049L101.209 73.126C100.567 73.1957 99.5092 73.4205 98.8671 73.6288C98.2075 73.837 97.6873 73.993 97.6873 73.9756C97.6873 73.9582 97.9304 73.3857 98.2075 72.7095C99.2653 70.2463 99.5084 68.806 99.5084 65.0584C99.4909 62.2134 99.4387 61.3979 99.1093 59.975C98.1029 55.4815 96.3158 51.6128 94.1296 49.1844C93.6443 48.6642 93.4709 48.5596 93.4012 48.7505C93.3489 48.889 92.9673 49.6349 92.5682 50.4156C89.7608 55.8823 85.2507 58.3116 75.9161 59.3529C74.962 59.4565 70.7465 59.5785 66.5475 59.6308L58.9138 59.7179L66.8072 51.8071C71.1447 47.4696 74.8914 43.8266 75.1345 43.7403C75.3776 43.6366 76.9391 43.1678 78.6042 42.6825C82.0564 41.6761 85.0407 40.3229 87.0187 38.8486C88.8755 37.4432 94.6001 31.6662 95.2423 30.5387C95.9708 29.2204 95.9882 27.9883 95.2772 26.8782C94.5662 25.7682 90.2461 21.5866 89.4828 21.2573C88.5296 20.8556 87.4883 20.9244 86.3957 21.4629ZM88.9452 24.0995C89.8993 24.7931 92.935 27.9683 93.0744 28.4196C93.1441 28.6279 93.0919 28.9921 92.9359 29.27C92.7974 29.5306 91.1836 31.248 89.3277 33.0516C86.1012 36.2433 84.6608 37.4066 82.6829 38.3947C81.7288 38.8634 79.4041 39.7304 79.0747 39.7304C78.9702 39.7304 80.3756 38.2213 82.215 36.3819C85.0251 33.571 85.5461 32.9645 85.5461 32.548C85.5461 31.8544 84.9388 31.2297 84.2618 31.2297C83.7939 31.2297 83.2728 31.681 80.393 34.5608C78.5545 36.3993 77.0445 37.8222 77.0445 37.7185C77.0445 36.9029 78.5023 33.6938 79.6637 31.993C80.6004 30.5875 86.3948 24.5326 87.3663 23.9262C88.0434 23.4922 88.147 23.5097 88.9452 24.0995ZM26.5943 54.9631C28.8153 57.7731 32.4932 59.907 37.0555 60.9831C40.2298 61.7464 43.492 62.1106 49.8763 62.3886L52.4616 62.4923L48.5928 66.361L44.7415 70.2297L43.1453 70.6811C39.8481 71.6526 36.4656 72.8498 34.54 73.7342C31.2088 75.2608 30.6887 75.4342 29.2483 75.625C27.3401 75.8681 26.542 75.6424 25.5007 74.6012C24.5292 73.6297 23.4191 71.4261 22.8981 69.483C22.3779 67.5922 22.343 63.2721 22.7944 60.9823C23.2109 58.9869 24.009 56.4888 24.7897 54.754C25.3448 53.5219 25.4319 53.4356 25.6401 53.7127C25.7613 53.9053 26.1952 54.4603 26.5943 54.9631ZM95.5037 57.0621C97.1349 61.729 97.4119 66.517 96.267 70.2646C95.7468 71.9306 94.7579 73.7168 93.8377 74.6195C92.7965 75.6607 92.0332 75.8516 90.1424 75.6259C88.7892 75.4525 88.2865 75.2791 85.4581 74.0296C83.793 73.2837 81.9536 72.9544 80.1665 73.1104C78.4491 73.2489 77.8244 73.4397 75.6556 74.4287C73.384 75.4525 72.3776 75.6947 70.2786 75.6947C68.1796 75.6773 67.3466 75.4865 65.0915 74.4287C62.6109 73.2837 62.021 73.1452 59.6962 73.1452C57.3715 73.1452 56.7816 73.2837 54.3009 74.4287C52.0459 75.4873 51.2129 75.6782 49.1139 75.6947C47.5699 75.6947 45.6442 75.4002 45.6442 75.1571C45.6442 75.1048 45.8525 74.3938 46.0956 73.5783L46.5295 72.0865L51.3175 67.2986L56.088 62.5106L64.4328 62.4069C69.03 62.3546 73.7317 62.2161 74.8766 62.1124C81.9379 61.4876 86.0663 60.3078 89.6231 57.8969C90.8377 57.0639 92.7634 55.1731 93.457 54.1492L93.9432 53.4034L94.4111 54.3401C94.6707 54.8594 95.1561 56.0732 95.5037 57.0621ZM37.35 77.6029C34.262 80.691 34.0189 80.9863 34.0189 81.5588C34.0189 82.3221 34.4703 82.7734 35.2335 82.7909C35.7189 82.8083 36.1354 82.4441 39.1545 79.4423C41.0105 77.5864 42.5205 76.1809 42.5205 76.302C42.5205 76.8745 41.0462 80.1882 40.2481 81.4551C38.9297 83.5367 38.6344 83.7973 37.6454 83.7973C36.2922 83.7973 35.095 84.1266 33.1345 85.0293C31.1217 85.966 29.474 86.3999 27.9126 86.3999C27.0447 86.3999 26.8713 86.3477 26.6291 85.966C26.1264 85.1853 26.4209 84.7339 29.5612 81.5771C32.7537 78.3506 34.6968 76.7717 36.5702 75.8176C37.6977 75.2625 40.1609 74.291 40.526 74.2736C40.6114 74.2553 39.1894 75.7644 37.35 77.6029Z" fill="#AAC8F8"/>
</svg>
