<svg width="101" height="102" viewBox="0 0 101 102" fill="none" xmlns="http://www.w3.org/2000/svg">
<circle cx="50.4423" cy="50.9468" r="50" fill="white"/>
<path d="M61.8152 56.3334C62.6486 57.1668 64.0198 57.1069 64.7454 56.1782C70.1566 49.2525 74.2411 41.2368 76.6216 32.5083C77.7959 28.2027 73.9035 24.1675 69.5271 25.2779C60.6615 27.5274 52.5365 31.558 45.5486 36.9731C44.615 37.6966 44.553 39.0712 45.3882 39.9064V39.9064C46.1176 40.6357 47.279 40.6902 48.0956 40.06C54.6343 35.0138 62.2284 31.2566 70.5108 29.155C71.8926 28.8044 73.1376 30.0805 72.7625 31.4559C70.5348 39.6242 66.7193 47.1297 61.6664 53.6219C61.0314 54.4377 61.0843 55.6024 61.8152 56.3334V56.3334Z" fill="black"/>
<path d="M57.1283 64.4144C57.9515 63.6607 57.9585 62.3762 57.1693 61.587V61.587C56.3962 60.8138 55.1477 60.8071 54.3399 61.5439C47.048 68.1951 38.1922 73.1624 28.3799 75.8385C27.0046 76.2136 25.7285 74.9686 26.0791 73.5868C28.6016 63.645 33.5098 54.6952 40.1691 47.3717C40.9045 46.563 40.8975 45.3151 40.1246 44.5422V44.5422C39.3351 43.7528 38.05 43.7601 37.2972 44.5846C30.1596 52.4027 24.8998 61.9703 22.2019 72.603C21.0915 76.9795 25.1267 80.8718 29.4324 79.6975C39.9085 76.8404 49.358 71.5285 57.1283 64.4144Z" fill="black"/>
<path d="M36.2474 35.7739L65.6255 65.152M72.3277 65.4264C74.973 68.4528 77.3142 72.2318 74.602 74.944C71.8898 77.6561 68.1108 75.3149 65.0845 72.6697C63.4212 71.2158 63.4554 68.6454 65.0175 67.0833L66.7413 65.3595C68.3034 63.7974 70.8738 63.7631 72.3277 65.4264ZM28.7298 36.3151C26.0845 33.2887 23.7433 29.5097 26.4555 26.7975C29.1676 24.0853 32.9466 26.4266 35.973 29.0718C37.6363 30.5257 37.6021 33.0961 36.04 34.6582L34.3162 36.382C32.7541 37.9441 30.1836 37.9784 28.7298 36.3151Z" stroke="#17BAFF" stroke-width="4" stroke-linecap="round"/>
<circle cx="50.9113" cy="50.9112" r="5.77968" transform="rotate(45 50.9113 50.9112)" fill="white" stroke="#17BAFF" stroke-width="3.29585"/>
</svg>
