<svg width="120" height="120" viewBox="0 0 120 120" fill="none" xmlns="http://www.w3.org/2000/svg">
<g clip-path="url(#clip0)">
<circle cx="60" cy="60" r="60" fill="#004CC5"/>
<path d="M51.6926 48.7699C52.0047 49.0819 52.4138 49.2381 52.8229 49.2381C53.2319 49.2381 53.641 49.0819 53.9532 48.7699L59.407 43.3161C59.248 42.1467 58.7001 41.0976 57.8967 40.3049L51.6924 46.5093C51.0683 47.1335 51.0683 48.1457 51.6926 48.7699Z" fill="#AAC8F8"/>
<path d="M62.4151 64.2467C63.2176 64.3781 64.1164 64.4505 65.127 64.4505C71.1634 64.4505 74.2971 62.5453 75.8632 60.9469C77.2668 59.5143 78.0189 57.6998 77.981 55.8382C77.9456 54.0995 77.9809 48.8106 77.9814 48.7467C77.9814 44.0943 74.1962 40.3092 69.5439 40.3092H36.4385C31.7862 40.3092 28.001 44.0943 28.001 48.7575C28.0015 48.8108 28.0369 54.0993 28.0014 55.8382C27.9635 57.7 28.7156 59.5145 30.1192 60.9471C31.6853 62.5454 34.8191 64.4507 40.8554 64.4507C41.8476 64.4507 42.7324 64.381 43.5236 64.2543C44.1028 64.8932 45.0352 65.8748 46.1399 66.8638C48.824 69.2667 51.0568 70.4349 52.9659 70.4349C54.8751 70.4349 57.1079 69.2667 59.792 66.8638C60.901 65.8708 61.8365 64.8855 62.4151 64.2467ZM46.855 63.1383C49.4379 61.6471 50.1276 59.1805 50.6443 57.3307C51.2774 55.0639 51.5289 54.6196 52.9912 54.6196C54.4534 54.6196 54.705 55.0639 55.3382 57.3307C55.8527 59.1729 56.5391 61.6266 59.0956 63.1198C57.0813 65.1664 54.4847 67.2379 52.9661 67.2379C51.4521 67.2377 48.8662 65.1785 46.855 63.1383ZM33.3077 59.4547C32.9713 59.2259 32.6663 58.9786 32.4026 58.7095C31.5937 57.8838 31.177 56.9135 31.1976 55.9031C31.2339 54.1214 31.1994 48.9548 31.1979 48.7465C31.1979 45.8569 33.5487 43.5061 36.4384 43.5061H49.2561H53.7775H64.3094H68.8308H69.5437C70.9773 43.5061 72.2778 44.0852 73.225 45.0197C74.0284 45.8126 74.5762 46.8615 74.7352 48.0309C74.7666 48.2617 74.7843 48.4967 74.7843 48.7356C74.7829 48.9546 74.7484 54.1211 74.7846 55.9031C74.8053 56.9132 74.3885 57.8837 73.5797 58.7093C71.9722 60.3499 68.9703 61.2533 65.127 61.2533C63.7699 61.2533 62.7187 61.1183 61.8922 60.874C60.5543 60.4785 59.8075 59.7953 59.314 58.9309C58.9054 58.215 58.6701 57.375 58.4172 56.4704C58.2481 55.8651 58.0611 55.1964 57.788 54.549C57.3787 53.578 56.7746 52.6563 55.7472 52.0684C55.0485 51.6685 54.1549 51.4224 52.9912 51.4224C48.9754 51.4224 48.1602 54.3401 47.5652 56.4704C46.8185 59.1427 46.229 61.2535 40.8554 61.2535C39.2401 61.2535 37.7758 61.0919 36.4988 60.7851C35.236 60.4817 34.1598 60.0342 33.3077 59.4547Z" fill="#AAC8F8"/>
<path d="M90.3277 64.1411V27.4662C90.3277 25.5224 88.3399 24 85.8021 24C83.2645 24 81.2765 25.5224 81.2765 27.4662V64.1413C80.2685 64.8192 79.604 65.9703 79.604 67.2737V79.2537C79.604 80.5547 80.2659 81.7041 81.2708 82.3826C81.1538 85.041 78.955 87.168 76.2682 87.168C73.8829 87.168 71.8427 85.4398 71.3678 83.1704C72.6175 82.2386 73.5859 80.9278 74.0942 79.3645C74.3672 78.5249 73.908 77.623 73.0683 77.35C72.2281 77.0771 71.3269 77.5362 71.0538 78.3759C70.4457 80.2457 68.7157 81.5022 66.7484 81.5022C64.7812 81.5022 63.0512 80.2459 62.4429 78.3758C62.1699 77.5362 61.268 77.077 60.4283 77.35C59.5888 77.623 59.1295 78.5251 59.4025 79.3646C59.9283 80.9814 60.9462 82.3286 62.2586 83.265C62.5209 86.634 63.9716 89.7681 66.4042 92.1675C69.053 94.78 72.556 96.2188 76.268 96.2188C83.9441 96.2188 90.2019 90.0352 90.3245 82.3881C91.3339 81.7103 91.9999 80.5584 91.9999 79.2537V67.2736C92.0002 65.9701 91.3357 64.8192 90.3277 64.1411ZM65.6948 84.6268C65.6954 84.6268 65.6961 84.6266 65.6967 84.6268C66.0417 84.6736 66.3927 84.6992 66.7485 84.6992C67.3163 84.6992 67.8721 84.6364 68.4096 84.519C68.8063 85.8428 69.5364 87.0527 70.5529 88.0412C72.0937 89.5397 74.1235 90.3648 76.2684 90.3648C80.5 90.3648 83.9929 87.1448 84.4275 83.0265H87.0931C86.6495 88.6117 81.9658 93.0217 76.2685 93.0217C71.1606 93.0217 66.8227 89.4227 65.6948 84.6268ZM83.377 79.8295C83.0595 79.8295 82.801 79.5711 82.801 79.2535V67.2736C82.801 66.9561 83.0594 66.6978 83.377 66.6978H88.2274C88.5448 66.6978 88.8033 66.9559 88.8033 67.2736V79.2535C88.8033 79.571 88.545 79.8295 88.2274 79.8295H83.377ZM87.1306 63.5007H84.4736V27.5818C84.6138 27.4504 85.0719 27.197 85.8021 27.197C86.5323 27.197 86.9906 27.4504 87.1306 27.5818V63.5007V63.5007Z" fill="#AAC8F8"/>
</g>
<defs>
<clipPath id="clip0">
<rect width="120" height="120" fill="white"/>
</clipPath>
</defs>
</svg>
