<svg width="100" height="100" viewBox="0 0 100 100" fill="none" xmlns="http://www.w3.org/2000/svg">
<circle cx="50" cy="50" r="50" fill="white"/>
<path fill-rule="evenodd" clip-rule="evenodd" d="M23.4654 48.1438C23.0936 42.3797 27.6685 37.5 33.4447 37.5H67.1128C72.889 37.5 77.4639 42.3796 77.092 48.1438L76.7157 53.9771C76.3762 59.2391 72.0093 63.3333 66.7365 63.3333H59.9388C59.811 63.5382 59.6551 63.7841 59.4749 64.0606C58.9453 64.8735 58.1958 65.9677 57.327 67.0709C56.4674 68.1622 55.4429 69.3245 54.3573 70.2323C53.3468 71.0773 51.9373 72.0001 50.3477 72.0001C48.7634 72.0001 47.3468 71.0821 46.3269 70.2409C45.23 69.3362 44.1887 68.1769 43.3121 67.0867C42.4261 65.985 41.6594 64.8921 41.1167 64.0798C40.9262 63.7945 40.7619 63.5419 40.6285 63.3333H33.821C28.5482 63.3333 24.1813 59.2391 23.8418 53.9772L23.4654 48.1438ZM33.4447 41.5H67.1128C70.5785 41.5 73.3235 44.4278 73.1003 47.8863L72.724 53.7196C72.5203 56.8768 69.9002 59.3333 66.7365 59.3333H58.7162C58.1722 59.3333 57.2359 58.8809 56.7128 57.5614C56.3258 56.5851 55.769 55.3897 54.9852 54.3694C54.2901 53.4644 52.743 51.8333 50.2787 51.8333C47.8145 51.8333 46.2674 53.4644 45.5723 54.3694C44.7885 55.3897 44.2317 56.5851 43.8447 57.5614C43.3216 58.8809 42.3853 59.3333 41.8412 59.3333H33.821C30.6573 59.3333 28.0372 56.8768 27.8335 53.7196L27.4571 47.8863C27.234 44.4278 29.979 41.5 33.4447 41.5ZM44.8347 62.4342C45.2824 63.0815 45.8288 63.8334 46.4292 64.5801C47.2279 65.5733 48.0745 66.4973 48.8721 67.1551C49.7465 67.8764 50.2309 68.0001 50.3477 68.0001C50.4593 68.0001 50.9334 67.8812 51.7914 67.1637C52.5743 66.509 53.4032 65.588 54.1845 64.596C54.7732 63.8485 55.3076 63.0959 55.7447 62.4482C54.5201 61.6699 53.5526 60.4437 52.9943 59.0354C52.3301 57.3598 51.4136 55.8333 50.2787 55.8333C49.1439 55.8333 48.2274 57.3598 47.5632 59.0354C47.0082 60.4353 46.0489 61.6553 44.8347 62.4342Z" fill="black"/>
<line x1="52.2132" y1="40.2163" x2="47.2658" y2="49.2114" stroke="#17BAFF" stroke-width="4" stroke-linecap="round"/>
<line x1="61.0914" y1="40.1757" x2="57.9544" y2="46.5831" stroke="#17BAFF" stroke-width="4" stroke-linecap="round"/>
</svg>
