<svg width="120" height="120" viewBox="0 0 120 120" fill="none" xmlns="http://www.w3.org/2000/svg">
<circle cx="60" cy="60" r="60" fill="#F9F9F9"/>
<path d="M90 30H31V89H90V30ZM88.82 87.82H32.18V31.18H88.82V87.82Z" fill="black"/>
<path d="M45.2543 49.4229V46.1425H41.8028V49.4229H40.6228V42.1187H41.8028V45.1395H45.2543V42.1187H46.4225V49.4229H45.2543Z" fill="black"/>
<path d="M54.0218 43.2397C53.6088 43.2397 53.2725 42.9152 53.2725 42.514C53.2725 42.1128 53.6088 41.7883 54.0218 41.7883C54.423 41.7883 54.7593 42.101 54.7593 42.514C54.7593 42.9152 54.423 43.2397 54.0218 43.2397ZM53.4377 49.4229V44.0421H54.5941V49.417H53.4377V49.4229Z" fill="black"/>
<path d="M41.9092 62.5149C41.3782 62.5149 40.859 62.45 40.4401 62.3438L40.505 61.2287C40.918 61.3821 41.4903 61.5001 42.0213 61.5001C42.8237 61.5001 43.4727 61.1638 43.4727 60.3732C43.4727 58.8392 40.2808 59.4882 40.2808 57.1282C40.2808 55.8715 41.2661 54.9983 42.9653 54.9983C43.396 54.9983 43.8444 55.0514 44.2869 55.1281L44.222 56.1783C43.7972 56.0485 43.337 55.9718 42.9004 55.9718C41.9918 55.9718 41.5257 56.3966 41.5257 56.9984C41.5257 58.4616 44.7176 57.9188 44.7176 60.2021C44.7117 61.5414 43.6556 62.5149 41.9092 62.5149Z" fill="black"/>
<path d="M46.5052 56.2314C46.0922 56.2314 45.7559 55.9069 45.7559 55.5057C45.7559 55.1045 46.0922 54.78 46.5052 54.78C46.9064 54.78 47.2427 55.0927 47.2427 55.5057C47.2427 55.9069 46.9064 56.2314 46.5052 56.2314ZM45.9211 62.4087V57.0338H47.0775V62.4087H45.9211Z" fill="black"/>
<path d="M74.8017 62.4086V58.9453C74.8017 58.2727 74.6188 57.8833 73.9993 57.8833C73.1851 57.8833 72.5951 58.7388 72.5951 59.8067V62.4027H71.4387V57.0278H72.542C72.542 57.311 72.5184 57.7771 72.4653 58.078L72.4771 58.0898C72.7898 57.3995 73.4388 56.9216 74.3474 56.9216C75.5687 56.9216 75.9463 57.6886 75.9463 58.6444V62.4086H74.8017V62.4086Z" fill="black"/>
<path d="M80.8137 62.4086V58.9453C80.8137 58.2727 80.6308 57.8833 80.0113 57.8833C79.1971 57.8833 78.6071 58.7388 78.6071 59.8067V62.4027H77.4507V57.0278H78.554C78.554 57.311 78.5304 57.7771 78.4773 58.078L78.4891 58.0898C78.8018 57.3995 79.4508 56.9216 80.3594 56.9216C81.5807 56.9216 81.9583 57.6886 81.9583 58.6444V62.4086H80.8137V62.4086Z" fill="black"/>
<path d="M41.9092 75.5007C41.3782 75.5007 40.859 75.4358 40.4401 75.3296L40.505 74.2145C40.918 74.3679 41.4903 74.4859 42.0213 74.4859C42.8237 74.4859 43.4727 74.1496 43.4727 73.359C43.4727 71.825 40.2808 72.474 40.2808 70.114C40.2808 68.8573 41.2661 67.9841 42.9653 67.9841C43.396 67.9841 43.8444 68.0372 44.2869 68.1139L44.222 69.1641C43.7972 69.0343 43.337 68.9576 42.9004 68.9576C41.9918 68.9576 41.5257 69.3824 41.5257 69.9842C41.5257 71.4474 44.7176 70.9046 44.7176 73.1879C44.7117 74.5272 43.6556 75.5007 41.9092 75.5007Z" fill="black"/>
<path d="M47.7854 75.4889C46.6408 75.4889 46.2927 75.0464 46.2927 73.8428V70.9105H45.2661V70.0137H46.2927V68.3027L47.4373 67.99V70.0137H48.8533V70.9105H47.4491V73.4829C47.4491 74.2853 47.6084 74.4977 48.1512 74.4977C48.3872 74.4977 48.6468 74.4623 48.8533 74.4092V75.3591C48.5465 75.4358 48.1453 75.4889 47.7854 75.4889Z" fill="black"/>
<path d="M75.0494 78.1616C73.6452 78.1616 72.7661 77.6188 72.7661 76.5804C72.7661 75.9727 73.1673 75.4653 73.6334 75.2293C73.3089 75.07 73.1024 74.7868 73.1024 74.4269C73.1024 74.0375 73.3384 73.6717 73.7219 73.5065C73.1909 73.2115 72.9195 72.6628 72.9195 71.9902C72.9195 70.8515 73.7868 69.9016 75.3208 69.9016C75.6453 69.9016 75.9167 69.9429 76.2058 70.0078H78.023V70.9164H77.2029C77.433 71.0993 77.5687 71.4238 77.5687 71.8132C77.5687 72.9814 76.7545 73.8015 75.2441 73.8015C75.0376 73.8015 74.7898 73.7779 74.6246 73.7484C74.4063 73.8369 74.3119 73.9962 74.3119 74.1496C74.3119 74.421 74.5479 74.5272 75.1969 74.5272H76.1173C77.2855 74.5272 77.9463 75.0818 77.9463 76.0848C77.9463 77.2412 76.7781 78.1616 75.0494 78.1616ZM75.8046 75.4771H74.7957C74.7013 75.4771 74.5892 75.4771 74.5066 75.4653C74.1408 75.6718 73.9107 75.9963 73.9107 76.3621C73.9107 76.9344 74.4535 77.2589 75.2323 77.2589C76.2412 77.2589 76.8017 76.8282 76.8017 76.2441C76.8017 75.7839 76.489 75.4771 75.8046 75.4771ZM75.2618 70.763C74.4948 70.763 74.0405 71.2291 74.0405 71.8899C74.0405 72.592 74.4712 73.005 75.25 73.005C75.9757 73.005 76.4536 72.6038 76.4536 71.9017C76.4536 71.1819 76.0111 70.763 75.2618 70.763Z" fill="black"/>
<path d="M52.2046 46.8032H48.7767C48.7413 48.0481 49.2959 48.6086 50.3697 48.6086C50.9243 48.6086 51.4966 48.4788 51.9391 48.2605L52.0453 49.1809C51.5025 49.411 50.8417 49.529 50.1868 49.529C48.5112 49.529 47.5908 48.6617 47.5908 46.7678C47.5908 45.1453 48.4758 43.9358 50.0452 43.9358C51.5792 43.9358 52.24 44.986 52.24 46.2604C52.2341 46.4138 52.2223 46.5967 52.2046 46.8032ZM49.998 44.7913C49.349 44.7913 48.8947 45.2692 48.7944 45.9949H51.0777C51.1013 45.2574 50.6765 44.7913 49.998 44.7913Z" fill="black"/>
<path d="M59.6504 49.4228V45.9595C59.6504 45.2869 59.4675 44.8975 58.848 44.8975C58.0338 44.8975 57.4438 45.753 57.4438 46.8209V49.4169H56.2874V44.042H57.3907C57.3907 44.3252 57.3671 44.7913 57.314 45.0922L57.3258 45.104C57.6385 44.4137 58.2875 43.9358 59.1961 43.9358C60.4174 43.9358 60.795 44.7028 60.795 45.6586V49.4228H59.6504Z" fill="black"/>
<path d="M62.1462 49.4228V48.6027L64.5357 45.0627C64.2643 45.0745 63.7864 45.0863 63.2377 45.0863H62.1993V44.042H65.9104V44.8562L63.5504 48.3844C63.8218 48.3726 64.459 48.3608 64.9015 48.3608H65.9517V49.4228H62.1462Z" fill="black"/>
<path d="M52.9068 59.789H49.4789C49.4435 61.0339 49.9981 61.5944 51.0719 61.5944C51.6265 61.5944 52.1988 61.4646 52.6413 61.2463L52.7475 62.1667C52.2047 62.3968 51.5439 62.5148 50.889 62.5148C49.2134 62.5148 48.293 61.6475 48.293 59.7536C48.293 58.1311 49.178 56.9216 50.7474 56.9216C52.2814 56.9216 52.9422 57.9718 52.9422 59.2462C52.9422 59.3996 52.9304 59.5825 52.9068 59.789ZM50.7002 57.7771C50.0512 57.7771 49.5969 58.255 49.4966 58.9807H51.7799C51.8035 58.2432 51.3846 57.7771 50.7002 57.7771Z" fill="black"/>
<path d="M54.0571 62.4086V54.5085H55.2135V62.4086H54.0571Z" fill="black"/>
<path d="M63.3261 62.4086V58.9807C63.3261 58.3081 63.1668 57.8892 62.5473 57.8892C61.857 57.8892 61.1608 58.6562 61.1608 59.8362V62.4086H60.0221V58.9689C60.0221 58.3612 59.8923 57.8892 59.2433 57.8892C58.5058 57.8892 57.8686 58.7093 57.8686 59.8362V62.4086H56.7122V57.0337H57.8155C57.8155 57.3169 57.7919 57.7712 57.7388 58.0839L57.7624 58.0957C58.0751 57.3818 58.7477 56.9275 59.5796 56.9275C60.6416 56.9275 60.9838 57.6119 61.0723 58.0839C61.3024 57.5647 61.8924 56.9275 62.8659 56.9275C63.8925 56.9275 64.4648 57.4821 64.4648 58.7034V62.4145H63.3261V62.4086Z" fill="black"/>
<path d="M68.8366 62.4086C68.8366 62.0605 68.8484 61.7065 68.8897 61.4115L68.8779 61.3997C68.6183 62.0369 67.9457 62.5148 67.0902 62.5148C66.1698 62.5148 65.5857 61.9956 65.5857 61.1401C65.5857 59.907 66.8188 59.1931 68.754 59.1931V58.845C68.754 58.1724 68.4708 57.8302 67.6271 57.8302C67.1315 57.8302 66.4825 57.9836 66.0282 58.2609L65.922 57.2756C66.453 57.0691 67.1256 56.9216 67.8159 56.9216C69.462 56.9216 69.9163 57.6355 69.9163 58.7388V60.9336C69.9163 61.3997 69.9281 61.9484 69.9517 62.4027H68.8366V62.4086ZM68.7599 59.9719C67.0725 59.9719 66.7067 60.4793 66.7067 60.9454C66.7067 61.3466 66.9899 61.6062 67.4442 61.6062C68.2348 61.6062 68.7658 60.851 68.7658 60.0781V59.9719H68.7599Z" fill="black"/>
<path d="M50.6885 69.2173C50.2755 69.2173 49.9392 68.8928 49.9392 68.4916C49.9392 68.0904 50.2755 67.7659 50.6885 67.7659C51.0897 67.7659 51.426 68.0786 51.426 68.4916C51.426 68.8928 51.0897 69.2173 50.6885 69.2173ZM50.1044 75.3946V70.0197H51.2608V75.3946H50.1044Z" fill="black"/>
<path d="M64.2053 75.3947C64.2053 75.1115 64.2289 74.6454 64.282 74.3445L64.2702 74.3327C63.9575 75.023 63.3085 75.5009 62.3999 75.5009C61.1786 75.5009 60.801 74.7339 60.801 73.7781V70.0139H61.9456V73.4772C61.9456 74.1498 62.1285 74.5392 62.748 74.5392C63.5622 74.5392 64.1522 73.6837 64.1522 72.6158V70.0198H65.3086V75.3947H64.2053Z" fill="black"/>
<path d="M70.3588 75.3945V71.9312C70.3588 71.2586 70.1759 70.8692 69.5564 70.8692C68.7422 70.8692 68.1523 71.7247 68.1523 72.7926V75.3886H66.9958V70.0137H68.0992C68.0992 70.2969 68.0756 70.763 68.0225 71.0639L68.0343 71.0757C68.347 70.3854 68.996 69.9075 69.9046 69.9075C71.1259 69.9075 71.5035 70.6745 71.5035 71.6303V75.3945H70.3588Z" fill="black"/>
<path d="M59.5499 70.9164V70.0196H58.1339V67.9959L56.9893 68.3086V70.0196H54.3697V69.5889C54.3697 68.7452 54.6824 68.3676 55.3786 68.3676C55.5674 68.3676 55.768 68.3912 55.9627 68.4325V67.4826C55.7562 67.4472 55.5438 67.4236 55.3255 67.4236C53.9272 67.4236 53.2251 68.1375 53.2251 69.6066V70.0196H52.1985V70.9164H53.2251V75.3945H54.3697V70.9164H56.9893V73.8487C56.9893 75.0523 57.3374 75.4948 58.482 75.4948C58.8419 75.4948 59.2372 75.4417 59.5558 75.3768V74.4269C59.3493 74.48 59.0897 74.5154 58.8537 74.5154C58.3109 74.5154 58.1516 74.2971 58.1516 73.5006V70.9282H59.5499V70.9164Z" fill="black"/>
</svg>
