<svg width="100" height="100" viewBox="0 0 100 100" fill="none" xmlns="http://www.w3.org/2000/svg">
<circle cx="50" cy="50" r="50" fill="white"/>
<path d="M73.1667 27H27V73.1667H73.1667V27ZM72.2433 72.2433H27.9233V27.9233H72.2433V72.2433Z" fill="black"/>
<path d="M38.1537 42.1959V39.629H35.453V42.1959H34.5297V36.4805H35.453V38.8442H38.1537V36.4805H39.0678V42.1959H38.1537Z" fill="black"/>
<path d="M45.0139 37.3608C44.6908 37.3608 44.4276 37.1069 44.4276 36.7929C44.4276 36.479 44.6908 36.2251 45.0139 36.2251C45.3279 36.2251 45.591 36.4698 45.591 36.7929C45.591 37.1069 45.3279 37.3608 45.0139 37.3608ZM44.5569 42.1991V37.9887H45.4617V42.1945H44.5569V42.1991Z" fill="black"/>
<path d="M35.5359 52.4427C35.1204 52.4427 34.7142 52.3919 34.3864 52.3088L34.4372 51.4362C34.7603 51.5563 35.2081 51.6486 35.6236 51.6486C36.2515 51.6486 36.7593 51.3855 36.7593 50.7668C36.7593 49.5665 34.2617 50.0743 34.2617 48.2277C34.2617 47.2443 35.0327 46.561 36.3623 46.561C36.6993 46.561 37.0502 46.6026 37.3964 46.6626L37.3457 47.4844C37.0133 47.3828 36.6532 47.3228 36.3115 47.3228C35.6006 47.3228 35.2358 47.6552 35.2358 48.1261C35.2358 49.271 37.7335 48.8463 37.7335 50.6329C37.7288 51.6809 36.9025 52.4427 35.5359 52.4427Z" fill="black"/>
<path d="M39.1323 47.5249C38.8092 47.5249 38.546 47.2709 38.546 46.957C38.546 46.6431 38.8092 46.3892 39.1323 46.3892C39.4463 46.3892 39.7094 46.6338 39.7094 46.957C39.7094 47.2709 39.4463 47.5249 39.1323 47.5249ZM38.6753 52.3585V48.1527H39.5802V52.3585H38.6753Z" fill="black"/>
<path d="M61.274 52.3589V49.6489C61.274 49.1226 61.1308 48.8179 60.6461 48.8179C60.009 48.8179 59.5473 49.4874 59.5473 50.323V52.3543H58.6425V48.1485H59.5058C59.5058 48.3701 59.4873 48.7348 59.4458 48.9703L59.455 48.9795C59.6997 48.4394 60.2075 48.0654 60.9185 48.0654C61.8741 48.0654 62.1696 48.6656 62.1696 49.4135V52.3589H61.274V52.3589Z" fill="black"/>
<path d="M65.9783 52.3589V49.6489C65.9783 49.1226 65.8352 48.8179 65.3504 48.8179C64.7133 48.8179 64.2517 49.4874 64.2517 50.323V52.3543H63.3468V48.1485H64.2101C64.2101 48.3701 64.1917 48.7348 64.1501 48.9703L64.1593 48.9795C64.404 48.4394 64.9119 48.0654 65.6228 48.0654C66.5785 48.0654 66.8739 48.6656 66.8739 49.4135V52.3589H65.9783V52.3589Z" fill="black"/>
<path d="M35.5359 62.6033C35.1204 62.6033 34.7142 62.5525 34.3864 62.4694L34.4372 61.5969C34.7603 61.7169 35.2081 61.8092 35.6236 61.8092C36.2515 61.8092 36.7593 61.5461 36.7593 60.9275C36.7593 59.7271 34.2617 60.235 34.2617 58.3883C34.2617 57.4049 35.0327 56.7217 36.3623 56.7217C36.6993 56.7217 37.0502 56.7632 37.3964 56.8232L37.3457 57.645C37.0133 57.5434 36.6532 57.4834 36.3115 57.4834C35.6006 57.4834 35.2358 57.8158 35.2358 58.2867C35.2358 59.4317 37.7335 59.0069 37.7335 60.7936C37.7288 61.8416 36.9025 62.6033 35.5359 62.6033Z" fill="black"/>
<path d="M40.1342 62.5926C39.2385 62.5926 38.9661 62.2464 38.9661 61.3046V59.0101H38.1628V58.3084H38.9661V56.9695L39.8618 56.7249V58.3084H40.9698V59.0101H39.871V61.023C39.871 61.6508 39.9957 61.817 40.4204 61.817C40.6051 61.817 40.8082 61.7893 40.9698 61.7478V62.4911C40.7297 62.5511 40.4158 62.5926 40.1342 62.5926Z" fill="black"/>
<path d="M61.4679 64.6848C60.3692 64.6848 59.6813 64.26 59.6813 63.4475C59.6813 62.972 59.9952 62.575 60.3599 62.3903C60.106 62.2656 59.9444 62.044 59.9444 61.7624C59.9444 61.4577 60.1291 61.1715 60.4292 61.0422C60.0137 60.8114 59.8013 60.382 59.8013 59.8557C59.8013 58.9647 60.48 58.2214 61.6803 58.2214C61.9342 58.2214 62.1466 58.2538 62.3728 58.3045H63.7947V59.0155H63.153C63.3331 59.1586 63.4392 59.4125 63.4392 59.7172C63.4392 60.6313 62.8021 61.2731 61.6203 61.2731C61.4587 61.2731 61.2648 61.2546 61.1355 61.2315C60.9647 61.3008 60.8908 61.4254 60.8908 61.5454C60.8908 61.7578 61.0755 61.8409 61.5833 61.8409H62.3035C63.2176 61.8409 63.7347 62.2749 63.7347 63.0597C63.7347 63.9646 62.8206 64.6848 61.4679 64.6848ZM62.0589 62.5842H61.2694C61.1955 62.5842 61.1078 62.5842 61.0432 62.575C60.757 62.7365 60.5769 62.9905 60.5769 63.2767C60.5769 63.7245 61.0016 63.9784 61.611 63.9784C62.4005 63.9784 62.8391 63.6414 62.8391 63.1844C62.8391 62.8243 62.5944 62.5842 62.0589 62.5842ZM61.6341 58.8955C61.034 58.8955 60.6785 59.2602 60.6785 59.7773C60.6785 60.3266 61.0155 60.6498 61.6249 60.6498C62.1927 60.6498 62.5667 60.3359 62.5667 59.7865C62.5667 59.2233 62.2204 58.8955 61.6341 58.8955Z" fill="black"/>
<path d="M43.5919 40.1463H40.9096C40.8819 41.1204 41.3159 41.559 42.1561 41.559C42.5901 41.559 43.0379 41.4574 43.3842 41.2866L43.4673 42.0068C43.0425 42.1869 42.5255 42.2792 42.013 42.2792C40.7019 42.2792 39.9817 41.6005 39.9817 40.1186C39.9817 38.849 40.6742 37.9026 41.9022 37.9026C43.1026 37.9026 43.6196 38.7244 43.6196 39.7216C43.615 39.8416 43.6058 39.9847 43.5919 40.1463ZM41.8653 38.572C41.3575 38.572 41.002 38.946 40.9235 39.5138H42.7101C42.7286 38.9367 42.3962 38.572 41.8653 38.572Z" fill="black"/>
<path d="M49.4182 42.1961V39.4861C49.4182 38.9598 49.2751 38.6551 48.7904 38.6551C48.1533 38.6551 47.6916 39.3245 47.6916 40.1601V42.1915H46.7867V37.9857H47.6501C47.6501 38.2073 47.6316 38.572 47.59 38.8075L47.5993 38.8167C47.844 38.2765 48.3518 37.9026 49.0628 37.9026C50.0184 37.9026 50.3139 38.5028 50.3139 39.2507V42.1961H49.4182Z" fill="black"/>
<path d="M51.3712 42.1984V41.5567L53.241 38.7867C53.0286 38.796 52.6546 38.8052 52.2253 38.8052H51.4128V37.988H54.3166V38.6251L52.47 41.3859C52.6823 41.3767 53.1809 41.3674 53.5272 41.3674H54.349V42.1984H51.3712Z" fill="black"/>
<path d="M44.1417 50.3091H41.4594C41.4317 51.2832 41.8657 51.7218 42.7059 51.7218C43.1399 51.7218 43.5877 51.6203 43.934 51.4494L44.0171 52.1696C43.5923 52.3497 43.0753 52.442 42.5628 52.442C41.2517 52.442 40.5315 51.7634 40.5315 50.2814C40.5315 49.0118 41.224 48.0654 42.452 48.0654C43.6524 48.0654 44.1694 48.8872 44.1694 49.8844C44.1694 50.0044 44.1602 50.1475 44.1417 50.3091ZM42.4151 48.7348C41.9073 48.7348 41.5518 49.1088 41.4733 49.6766H43.2599C43.2784 49.0996 42.9506 48.7348 42.4151 48.7348Z" fill="black"/>
<path d="M45.0417 52.358V46.1763H45.9466V52.358H45.0417Z" fill="black"/>
<path d="M52.2945 52.359V49.6767C52.2945 49.1504 52.1699 48.8226 51.6851 48.8226C51.145 48.8226 50.6002 49.4228 50.6002 50.3461V52.359H49.7092V49.6674C49.7092 49.1919 49.6076 48.8226 49.0998 48.8226C48.5227 48.8226 48.0241 49.4643 48.0241 50.3461V52.359H47.1193V48.1532H47.9826C47.9826 48.3748 47.9641 48.7303 47.9226 48.9749L47.941 48.9842C48.1857 48.4256 48.712 48.0701 49.363 48.0701C50.194 48.0701 50.4617 48.6056 50.531 48.9749C50.711 48.5687 51.1727 48.0701 51.9344 48.0701C52.7377 48.0701 53.1856 48.504 53.1856 49.4597V52.3636H52.2945V52.359Z" fill="black"/>
<path d="M56.6065 52.3589C56.6065 52.0865 56.6158 51.8095 56.6481 51.5787L56.6388 51.5695C56.4357 52.0681 55.9094 52.442 55.24 52.442C54.5198 52.442 54.0627 52.0358 54.0627 51.3663C54.0627 50.4015 55.0276 49.8428 56.5419 49.8428V49.5705C56.5419 49.0442 56.3203 48.7764 55.6601 48.7764C55.2723 48.7764 54.7645 48.8964 54.409 49.1134L54.3259 48.3424C54.7414 48.1808 55.2677 48.0654 55.8078 48.0654C57.0959 48.0654 57.4514 48.624 57.4514 49.4874V51.2048C57.4514 51.5695 57.4606 51.9988 57.4791 52.3543H56.6065V52.3589ZM56.5465 50.4522C55.2261 50.4522 54.9399 50.8493 54.9399 51.214C54.9399 51.5279 55.1615 51.7311 55.517 51.7311C56.1356 51.7311 56.5511 51.1401 56.5511 50.5353V50.4522H56.5465Z" fill="black"/>
<path d="M42.4058 57.6862C42.0826 57.6862 41.8195 57.4323 41.8195 57.1184C41.8195 56.8045 42.0826 56.5505 42.4058 56.5505C42.7197 56.5505 42.9829 56.7952 42.9829 57.1184C42.9829 57.4323 42.7197 57.6862 42.4058 57.6862ZM41.9487 62.5199V58.3141H42.8536V62.5199H41.9487Z" fill="black"/>
<path d="M52.9825 62.5192C52.9825 62.2976 53.001 61.9329 53.0426 61.6975L53.0333 61.6882C52.7886 62.2284 52.2808 62.6023 51.5698 62.6023C50.6142 62.6023 50.3187 62.0022 50.3187 61.2543V58.3088H51.2144V61.0188C51.2144 61.5451 51.3575 61.8498 51.8422 61.8498C52.4793 61.8498 52.941 61.1804 52.941 60.3448V58.3135H53.8459V62.5192H52.9825Z" fill="black"/>
<path d="M57.7975 62.5203V59.8103C57.7975 59.284 57.6544 58.9793 57.1696 58.9793C56.5325 58.9793 56.0709 59.6487 56.0709 60.4844V62.5157H55.166V58.3099H56.0293C56.0293 58.5315 56.0109 58.8962 55.9693 59.1317L55.9786 59.1409C56.2232 58.6008 56.7311 58.2268 57.442 58.2268C58.3977 58.2268 58.6932 58.827 58.6932 59.5749V62.5203H57.7975Z" fill="black"/>
<path d="M49.3398 59.0172V58.3155H48.2318V56.732L47.3361 56.9767V58.3155H45.2863V57.9785C45.2863 57.3183 45.531 57.0228 46.0758 57.0228C46.2235 57.0228 46.3805 57.0413 46.5328 57.0736V56.3303C46.3713 56.3026 46.2051 56.2842 46.0342 56.2842C44.9401 56.2842 44.3907 56.8428 44.3907 57.9923V58.3155H43.5874V59.0172H44.3907V62.5213H45.2863V59.0172H47.3361V61.3117C47.3361 62.2535 47.6085 62.5998 48.5042 62.5998C48.7858 62.5998 49.0951 62.5582 49.3444 62.5075V61.7642C49.1828 61.8057 48.9797 61.8334 48.795 61.8334C48.3703 61.8334 48.2456 61.6626 48.2456 61.0393V59.0265H49.3398V59.0172Z" fill="black"/>
</svg>
