<svg width="120" height="120" viewBox="0 0 120 120" fill="none" xmlns="http://www.w3.org/2000/svg">
<circle cx="60" cy="60" r="60" fill="#F9F9F9"/>
<path fill-rule="evenodd" clip-rule="evenodd" d="M76.4008 62.5538L76.3265 62.3475C75.4973 60.0784 74.2843 57.9702 72.7289 56.1178L72.0647 55.3257C70.9467 53.989 69.9441 52.5615 69.0736 51.0515L67.7906 48.8319C66.524 46.6371 63.7186 45.8862 61.5278 47.1528L60.1127 47.9696C58.413 48.9516 56.6183 49.7643 54.7618 50.3955L54.0481 50.6389C51.7294 51.4269 49.5882 52.6605 47.7482 54.2736L47.5254 54.4675C45.8339 55.9486 44.4683 57.768 43.5194 59.8061C42.5705 61.8442 42.0507 64.0597 41.9888 66.3081V66.3287C41.931 68.5937 42.2982 70.8546 43.0738 72.9834L43.1481 73.1897C43.9774 75.4588 45.1903 77.567 46.7457 79.4194L47.4099 80.2115C48.5279 81.5482 49.5305 82.9757 50.401 84.4857L51.6841 86.7053C52.9506 88.9001 55.7561 89.651 57.9468 88.3844L59.3619 87.5675C61.0616 86.5856 62.8563 85.7729 64.7128 85.1417L65.4266 84.8983C67.7452 84.1103 69.8864 82.8767 71.7264 81.2636L71.9492 81.0697C73.6407 79.5886 75.0063 77.7691 75.9552 75.7311C76.9041 73.693 77.4239 71.4775 77.4858 69.2291V69.2084C77.5436 66.9393 77.1764 64.6826 76.4008 62.5538ZM68.9705 72.4966C68.4341 73.6229 67.6709 74.6254 66.7303 75.4464L66.5982 75.5619C65.571 76.4572 64.3786 77.1462 63.0914 77.5876L62.6459 77.7403C61.6434 78.0868 60.678 78.5241 59.7579 79.0563L58.9246 79.5391C57.7034 80.2445 56.1439 79.8278 55.4384 78.6067C55.4384 78.6067 55.4384 78.6067 55.4384 78.6025L54.7824 77.4597C54.2956 76.614 53.7345 75.8136 53.1033 75.0668L52.7609 74.6625C51.911 73.6518 51.2426 72.5007 50.797 71.2548L50.7599 71.1516C50.3391 69.9799 50.1411 68.7381 50.1864 67.4922C50.2277 66.2504 50.5289 65.025 51.0652 63.9029V63.8988C51.6015 62.7725 52.3648 61.7699 53.3013 60.953L53.4333 60.8375C54.4606 59.9423 55.6529 59.2533 56.9401 58.8118L57.3857 58.6592C58.3882 58.3126 59.3536 57.8753 60.2736 57.3431L61.107 56.8604C62.3282 56.1549 63.8877 56.5716 64.5932 57.7928C64.5932 57.7928 64.5932 57.7928 64.5932 57.7969L65.2492 58.9397C65.736 59.7855 66.2971 60.5859 66.9283 61.3326L67.2707 61.7369C68.1206 62.7477 68.789 63.8987 69.2345 65.1447L69.2717 65.2478C69.6925 66.4195 69.8905 67.6613 69.8451 68.9073C69.8039 70.1491 69.5068 71.3703 68.9705 72.4966Z" fill="black"/>
<path d="M69.5565 31.1414C69.2636 30.7124 68.7025 30.5638 68.2363 30.799C65.4803 32.1894 64.1024 34.1697 63.5743 36.3397C62.7492 35.8199 61.8415 35.4981 60.9628 35.3042C60.4636 35.1928 59.952 35.4692 59.7746 35.9478C58.7267 38.745 58.7803 42.6437 64.9646 45.3213C65.0472 45.3584 65.1338 45.379 65.2246 45.3914C65.2576 45.4038 65.2906 45.4244 65.3277 45.4327C65.4226 45.4574 65.5175 45.4739 65.6124 45.4739C65.831 45.4739 66.0497 45.4038 66.2271 45.2676C70.1299 42.3591 73.8843 37.5444 69.5565 31.1414Z" fill="black"/>
</svg>
