<svg width="100" height="100" viewBox="0 0 100 100" fill="none" xmlns="http://www.w3.org/2000/svg">
<circle cx="50" cy="50" r="50" fill="white"/>
<path fill-rule="evenodd" clip-rule="evenodd" d="M63.6674 52.1266L63.6055 51.9547C62.9145 50.0637 61.9037 48.3069 60.6075 46.7632L60.054 46.1031C59.1223 44.9892 58.2869 43.7996 57.5614 42.5413L56.4922 40.6917C55.4367 38.8626 53.0989 38.2369 51.2733 39.2924L50.094 39.9731C48.6776 40.7914 47.182 41.4687 45.6349 41.9947L45.0401 42.1975C43.108 42.8542 41.3236 43.8822 39.7902 45.2264L39.6046 45.388C38.195 46.6223 37.057 48.1384 36.2663 49.8368C35.4755 51.5352 35.0423 53.3814 34.9908 55.2552V55.2724C34.9426 57.1598 35.2486 59.0439 35.895 60.8179L35.9568 60.9898C36.6479 62.8807 37.6587 64.6376 38.9548 66.1812L39.5083 66.8413C40.44 67.9553 41.2755 69.1448 42.0009 70.4031L43.0701 72.2528C44.1256 74.0818 46.4635 74.7076 48.2891 73.6521L49.4683 72.9713C50.8848 72.1531 52.3803 71.4758 53.9274 70.9498L54.5222 70.7469C56.4544 70.0903 58.2387 69.0623 59.7721 67.718L59.9578 67.5564C61.3673 66.3222 62.5053 64.806 63.2961 63.1076C64.0868 61.4092 64.52 59.563 64.5716 57.6893V57.6721C64.6197 55.7812 64.3137 53.9006 63.6674 52.1266ZM57.4755 60.4122C57.0285 61.3508 56.3925 62.1862 55.6086 62.8704L55.4986 62.9667C54.6426 63.7127 53.649 64.2869 52.5763 64.6547L52.205 64.782C51.3695 65.0707 50.565 65.4352 49.7984 65.8787L49.1039 66.2809C48.0862 66.8688 46.7866 66.5216 46.1987 65.5039C46.1987 65.5039 46.1987 65.5039 46.1987 65.5005L45.6521 64.5482C45.2464 63.8434 44.7788 63.1764 44.2528 62.5541L43.9675 62.2172C43.2592 61.3749 42.7023 60.4157 42.331 59.3774L42.3 59.2914C41.9493 58.315 41.7843 57.2802 41.8221 56.2419C41.8565 55.207 42.1075 54.1859 42.5544 53.2508V53.2474C43.0014 52.3088 43.6374 51.4733 44.4178 50.7926L44.5279 50.6963C45.3839 49.9503 46.3775 49.3761 47.4502 49.0083L47.8215 48.8811C48.6569 48.5923 49.4614 48.2278 50.2281 47.7843L50.9226 47.3821C51.9403 46.7942 53.2398 47.1414 53.8277 48.1591C53.8277 48.1591 53.8277 48.1591 53.8277 48.1625L54.3744 49.1148C54.7801 49.8196 55.2477 50.4866 55.7737 51.1089L56.059 51.4458C56.7673 52.2881 57.3242 53.2474 57.6955 54.2856L57.7265 54.3716C58.0772 55.348 58.2422 56.3828 58.2044 57.4211C58.17 58.456 57.9224 59.4736 57.4755 60.4122Z" fill="black"/>
<path d="M57.9638 25.9496C57.7197 25.5921 57.2521 25.4683 56.8636 25.6643C54.567 26.8229 53.4187 28.4731 52.9786 30.2815C52.291 29.8483 51.5346 29.5802 50.8023 29.4186C50.3863 29.3258 49.96 29.5561 49.8122 29.9549C48.9389 32.2859 48.9836 35.5348 54.1372 37.7661C54.206 37.7971 54.2782 37.8143 54.3538 37.8246C54.3813 37.8349 54.4088 37.8521 54.4398 37.859C54.5189 37.8796 54.5979 37.8933 54.677 37.8933C54.8592 37.8933 55.0414 37.8349 55.1893 37.7214C58.4417 35.2976 61.5703 31.2854 57.9638 25.9496Z" fill="black"/>
</svg>
