<svg width="100" height="100" viewBox="0 0 100 100" fill="none" xmlns="http://www.w3.org/2000/svg">
<circle cx="50" cy="50" r="50" fill="white"/>
<path d="M30.7233 46.1368C30.6553 44.7206 30.6159 43.3018 30.5071 41.8884C30.4677 41.3733 30.6023 41.0512 31.0851 40.903C31.9025 40.6516 32.7185 40.3852 33.5508 40.1977C33.7194 40.1596 34.0485 40.3961 34.156 40.5877C34.6401 41.4548 35.1229 42.3287 35.5105 43.242C36.2681 45.0292 36.9698 46.8408 37.6784 48.6497C37.9749 49.4053 37.8361 49.6364 37.0473 49.8511C36.7196 49.9395 36.3959 50.0373 36.0681 50.1284C35.0332 50.4138 34.7925 50.3064 34.4076 49.3306C34.0757 48.4921 33.7684 47.6426 33.4433 46.8014C33.3903 46.6641 33.3019 46.5404 33.1645 46.2931C32.8001 46.9373 32.9701 47.5081 33.0054 48.0572C33.0517 48.7775 33.1795 49.4978 33.1632 50.2167C33.1577 50.4709 32.8871 50.8392 32.645 50.9479C31.232 51.5785 31.009 51.4888 30.2174 50.146C29.8965 49.601 29.615 49.0302 29.2777 48.4961C29.0846 48.1917 28.8139 47.9362 28.5773 47.6589C28.4957 47.6984 28.4141 47.7364 28.3325 47.7758C28.5664 48.8155 28.7636 49.8633 29.0424 50.8908C29.4545 52.4116 29.479 52.4048 27.9911 52.9009C27.8198 52.9579 27.6321 52.9851 27.477 53.0721C26.336 53.7068 26.2054 53.1523 26.0205 52.3029C25.5322 50.0523 25.1025 47.7894 24.6401 45.5334C24.549 45.0917 24.4347 44.6527 24.2987 44.2232C24.1491 43.7489 24.2946 43.4214 24.7339 43.227C25.4765 42.8981 26.2231 42.5801 26.9725 42.2662C27.4063 42.0841 27.715 42.1765 27.9884 42.6114C28.648 43.666 29.3593 44.688 30.0556 45.7182C30.1753 45.8949 30.3249 46.0512 30.4609 46.217C30.5493 46.1898 30.6363 46.164 30.7233 46.1368Z" fill="black"/>
<path d="M54.2988 57.5057C54.2988 56.6318 54.3029 55.7579 54.2975 54.8841C54.292 53.998 54.5259 53.7506 55.4127 53.7533C55.8642 53.7547 56.3143 53.7887 56.7659 53.7995C57.3302 53.8145 57.5574 54.1094 57.5574 54.6598C57.5574 56.9417 57.571 59.2236 57.5791 61.5054C57.5805 62.026 57.5546 62.5465 57.5818 63.0656C57.609 63.6011 57.3343 63.8009 56.8542 63.8172C56.2899 63.8362 55.7255 63.843 55.1611 63.8634C54.4471 63.8892 53.9656 63.5304 53.6147 62.9501C53.1619 62.204 52.7131 61.4551 52.2629 60.7077C52.1935 60.7185 52.1242 60.7294 52.0548 60.7403C52.0548 61.4551 52.0303 62.17 52.0603 62.8835C52.1038 63.9096 51.9895 64.0156 50.9695 63.8879C50.5017 63.8294 50.0216 63.8131 49.5497 63.8403C48.9839 63.8743 48.7704 63.6229 48.7731 63.0901C48.7799 61.8914 48.7963 60.6914 48.7677 59.494C48.7296 57.8699 48.663 56.2459 48.5909 54.6218C48.561 53.9422 48.7582 53.7139 49.4232 53.7234C50.0556 53.7329 50.6894 53.7411 51.3218 53.7289C52.3282 53.7098 52.4465 53.7887 52.8151 54.7291C53.0789 55.4005 53.3441 56.0733 53.6433 56.731C53.7834 57.0395 54.0064 57.31 54.1927 57.5981C54.2295 57.5655 54.2635 57.5356 54.2988 57.5057Z" fill="black"/>
<path d="M36.8827 43.5499C36.8528 40.7679 39.1526 38.2346 41.7923 38.3297C45.3623 38.4602 47.129 40.2678 47.1711 43.4099C47.2119 46.4271 45.2073 48.9155 42.3051 48.8244C39.1771 48.7293 37.1099 46.8891 36.8827 43.5499ZM43.7181 43.7945C43.6651 43.4847 43.6297 43.1694 43.5576 42.8636C43.4067 42.2262 43.0925 41.7179 42.3635 41.673C41.4673 41.616 40.8023 41.9652 40.6431 42.7426C40.5343 43.2781 40.6119 43.9073 40.79 44.4319C41.0702 45.2555 41.6455 45.5668 42.2697 45.4254C43.2421 45.2039 43.68 44.701 43.7181 43.7945Z" fill="black"/>
<path d="M63.4548 53.3306C65.3561 53.4937 67.7361 54.9587 68.2189 57.3751C68.6215 59.3988 68.1237 61.0528 66.8671 62.5151C66.3965 63.0628 65.6512 63.4814 64.9508 63.6975C63.8683 64.0318 62.7707 63.9585 61.6664 63.4542C59.6903 62.5518 58.7139 61.0283 58.6771 58.9381C58.6377 56.7676 59.5856 55.0403 61.4855 53.9462C62.0676 53.6133 62.7952 53.529 63.4548 53.3306ZM65.0351 58.4882C65.0297 58.4352 65.0283 58.2069 64.9821 57.9881C64.8012 57.1563 64.5442 56.9688 63.6575 56.8206C62.9217 56.697 62.579 57.1563 62.2866 57.6701C61.8976 58.3537 62.0445 59.6067 62.6171 60.1368C62.8455 60.3488 63.2685 60.5051 63.5691 60.4602C64.7142 60.2917 65.0311 59.8568 65.0351 58.4882Z" fill="black"/>
<path d="M54.2812 43.2472C55.7881 44.0939 56.1213 44.7476 55.784 46.1366C55.4821 47.3815 54.443 48.1466 53.015 48.1928C51.772 48.2336 50.5303 48.3383 49.2886 48.3233C48.3285 48.3124 48.1217 48.0393 48.1013 47.077C48.0714 45.5834 48.0646 44.0885 48.0306 42.5948C48.0048 41.4179 47.9721 40.2409 47.9028 39.0667C47.8674 38.4592 48.1326 38.1194 48.7011 38.1521C50.5738 38.2581 52.4493 38.3668 54.3111 38.5774C55.1611 38.6739 55.7119 39.3032 55.9023 40.1485C56.1076 41.0591 55.9785 41.918 55.2481 42.5785C54.968 42.8327 54.6225 43.0148 54.2812 43.2472ZM51.0294 44.2434C51.1967 44.7965 51.3477 45.2939 51.4973 45.79C51.8604 45.6704 52.2725 45.616 52.5662 45.4013C52.7104 45.2953 52.7485 44.8251 52.6383 44.6307C52.3187 44.0708 51.7543 44.1469 51.0294 44.2434ZM51.315 41.8745C52.029 41.9371 52.6777 41.6177 52.6111 41.2331C52.5023 40.6052 51.9719 40.6799 51.4551 40.6813C51.4089 41.0808 51.364 41.4532 51.315 41.8745Z" fill="black"/>
<path d="M36.8921 60.6537C36.8921 61.4529 36.8744 62.252 36.8975 63.0498C36.922 63.9087 36.8934 63.9536 36.0625 63.906C35.475 63.872 34.8874 63.8027 34.3013 63.8258C33.7464 63.8475 33.5805 63.5988 33.5927 63.1001C33.658 60.5464 33.7178 57.9927 33.7763 55.439C33.7831 55.1685 33.7981 54.8954 33.7654 54.629C33.6879 54.0188 33.9382 53.7211 34.5542 53.7497C35.1186 53.7755 35.683 53.8367 36.2474 53.8394C36.7969 53.8435 36.9315 54.1302 36.9206 54.6168C36.9016 55.5613 36.9152 56.5072 36.9152 57.6611C37.1369 57.3431 37.2906 57.1759 37.3858 56.9802C37.8006 56.1308 38.2072 55.2759 38.6002 54.4156C38.7825 54.0174 39.0477 53.8502 39.5006 53.872C40.2458 53.9087 40.9938 53.8706 41.7405 53.8869C42.3634 53.9005 42.4735 54.0772 42.1743 54.6371C41.5052 55.8902 40.8198 57.1351 40.1166 58.3691C39.9208 58.713 39.8542 58.9807 40.0894 59.3518C40.73 60.3602 41.3257 61.3985 41.9322 62.4287C42.0574 62.6421 42.1702 62.8677 42.2505 63.1014C42.4055 63.5458 42.3348 63.8625 41.7636 63.8652C40.7708 63.8693 39.7753 63.9277 38.7866 63.8652C38.554 63.8503 38.2602 63.4806 38.1433 63.2101C37.8414 62.5089 37.6278 61.7709 37.3626 61.0519C37.3055 60.897 37.1804 60.7679 37.0866 60.6266C37.0226 60.6374 36.9574 60.6456 36.8921 60.6537Z" fill="black"/>
<path d="M67.6279 50.6347C67.7503 50.2419 67.8986 49.6996 68.089 49.1723C68.8859 46.9665 69.6979 44.7662 70.4989 42.5632C70.7111 41.9788 71.1327 41.7885 71.6807 41.9992C72.8395 42.4463 73.9805 42.9383 75.127 43.4153C75.7118 43.6586 76.302 43.8896 76.8678 44.1723C77.016 44.2457 77.1996 44.527 77.1615 44.648C76.9766 45.2256 76.7209 45.7801 76.4883 46.3414C76.2531 46.9122 75.845 46.9733 75.331 46.7328C74.7788 46.4746 74.2362 46.1919 73.6663 45.9826C73.5167 45.9282 73.1536 46.0668 73.1182 46.1851C73.0666 46.3563 73.1672 46.7056 73.3046 46.7763C73.8051 47.0304 74.3545 47.1894 74.8767 47.4055C75.282 47.5727 75.52 47.7942 75.1936 48.278C74.9828 48.5906 74.8386 48.9644 74.7434 49.3313C74.5966 49.8885 74.2919 49.9347 73.8322 49.7268C73.359 49.5134 72.887 49.2905 72.3961 49.1329C72.2465 49.0853 72.033 49.2375 71.8494 49.2987C71.9419 49.4754 71.9895 49.7363 72.1363 49.8151C72.611 50.072 73.1101 50.2962 73.6215 50.4716C74.1899 50.6659 74.296 51.0301 74.0974 51.5276C73.8799 52.0712 73.6759 52.6311 73.3644 53.1204C73.2611 53.2835 72.8055 53.3637 72.5824 53.2835C71.8616 53.0253 71.1803 52.6569 70.4717 52.3634C69.7863 52.0793 69.0859 51.832 68.3895 51.5738C68.006 51.4311 67.579 51.3414 67.6279 50.6347Z" fill="black"/>
<path d="M60.6971 47.8572C60.912 46.8406 61.2424 45.343 61.5444 43.8385C61.7756 42.6873 61.9755 41.5308 62.1768 40.3742C62.3114 39.5968 62.5603 39.4174 63.3382 39.5832C64.0005 39.7246 64.6696 39.8428 65.3224 40.0209C65.8828 40.1744 66.2364 40.4816 66.0174 41.1652C65.7658 41.9575 65.5618 42.7648 65.3592 43.5721C65.1348 44.4677 64.9484 45.3729 64.7172 46.2671C64.5785 46.8012 64.841 47.0241 65.2966 47.1369C65.8216 47.2674 66.352 47.3802 66.8728 47.5256C67.4372 47.6833 67.6304 48.0516 67.4291 48.6142C67.2536 49.1035 67.0972 49.5995 66.9082 50.082C66.6022 50.8689 66.4703 50.9287 65.6325 50.699C64.501 50.3892 63.3722 50.0711 62.2407 49.7599C62.0884 49.7178 61.9306 49.6988 61.7742 49.6757C60.7773 49.5302 60.6549 49.3848 60.6971 47.8572Z" fill="black"/>
<path d="M58.3807 48.961C57.9087 48.9229 57.3226 48.8876 56.7391 48.8264C56.2047 48.7707 56.0088 48.4486 56.0741 47.9294C56.3094 46.0471 56.5447 44.1648 56.7677 42.2798C56.8874 41.27 56.9921 40.2589 57.0819 39.245C57.1322 38.6837 57.3892 38.4269 57.9631 38.507C58.7247 38.613 59.4931 38.6742 60.2479 38.8142C60.947 38.9447 61.0381 39.1784 60.9116 39.8702C60.4152 42.6005 59.9311 45.3323 59.4619 48.0667C59.3626 48.6443 59.213 49.0996 58.3807 48.961Z" fill="black"/>
<path d="M43.6669 58.7464C43.6669 57.3438 43.6682 55.9427 43.6669 54.5401C43.6669 53.779 43.811 53.6241 44.5699 53.6146C45.1588 53.6078 45.7477 53.5969 46.3352 53.6214C46.8316 53.6418 47.0968 53.8619 47.0913 54.4314C47.0641 57.2351 47.0737 60.0389 47.0669 62.844C47.0641 63.6227 46.8982 63.8103 46.1312 63.8633C45.5695 63.9027 45.0051 63.8986 44.4421 63.9272C43.8926 63.9543 43.6573 63.6907 43.6601 63.1566C43.6655 61.6874 43.6628 60.2169 43.6628 58.7478C43.6628 58.7464 43.6641 58.7464 43.6669 58.7464Z" fill="black"/>
<path d="M79.5959 41.247C79.4218 41.3435 79.2124 41.5528 79.0832 41.5121C78.8152 41.4264 78.4807 41.2606 78.3705 41.0323C78.0754 40.4248 78.6466 39.7561 79.4055 39.7507C80.0705 39.7453 80.6444 40.2087 80.824 40.8937C80.9912 41.5338 80.6907 42.2324 80.0923 42.5667C79.2504 43.0369 78.3678 42.9146 77.5246 42.6333C76.0259 42.1345 74.5612 41.5352 73.0652 41.0282C68.1325 39.3552 63.0923 38.1525 57.9066 37.5572C47.2646 36.3354 36.9341 37.7135 26.8388 41.1709C25.3238 41.6874 23.8142 42.2392 22.2652 42.6279C21.0507 42.935 20.0429 42.1916 19.9654 41.1424C19.8947 40.1951 20.8412 39.3539 21.7375 39.6474C22.0435 39.748 22.3699 40.1054 22.4664 40.4139C22.5399 40.6477 22.3359 41.069 22.1237 41.2661C21.7742 41.5909 21.407 41.3911 21.3431 40.9616C21.596 40.9209 21.8748 40.9317 22.0802 40.8149C22.1564 40.7714 22.1332 40.3025 22.0326 40.2468C21.7688 40.1 21.3322 39.9152 21.1554 40.032C20.8004 40.2685 20.3435 40.7034 20.3544 41.0418C20.3666 41.4319 20.7596 41.9646 21.1309 42.1563C22.0598 42.6346 23.0091 42.1984 23.8808 41.8627C28.9577 39.9084 34.1706 38.4542 39.5439 37.6156C45.0016 36.7621 50.4851 36.527 55.9986 37.004C63.2609 37.6319 70.2241 39.4612 77.0105 42.0584C77.7449 42.3397 78.5895 42.4118 79.3878 42.4294C80.0066 42.443 80.4241 41.9796 80.5166 41.353C80.5941 40.823 80.2963 40.4479 79.842 40.206C79.7074 40.134 79.5102 40.0497 79.3946 40.0986C79.1403 40.2046 78.89 40.3636 78.7024 40.5621C78.633 40.6355 78.6942 40.9834 78.7826 41.0255C78.9812 41.1206 79.2328 41.1016 79.464 41.1302C79.5061 41.1696 79.551 41.2076 79.5959 41.247Z" fill="black"/>
<path d="M30.8421 55.8593C30.8598 55.5413 30.8027 55.2613 30.8924 55.2015C31.1332 55.0425 31.4854 54.8387 31.703 54.9134C31.9641 55.0031 32.3041 55.3673 32.3 55.6079C32.2946 55.9857 32.1192 56.4478 31.8553 56.7169C31.4011 57.1803 30.5293 57.1314 30.0384 56.7414C29.4699 56.2888 29.2428 55.4761 29.6644 54.7843C30.0533 54.1469 30.6204 53.6196 31.1277 53.0243C30.2029 53.3464 29.2292 53.6767 28.2649 54.0382C28.1575 54.079 28.148 54.3508 28.0351 54.416C27.7944 54.5546 27.4829 54.7476 27.2626 54.6892C27.0872 54.643 26.841 54.1687 26.9117 54.0382C27.0273 53.8248 27.3592 53.6794 27.6271 53.6114C27.9481 53.5299 28.3261 53.6359 28.6308 53.5272C33.5852 51.7577 38.6608 50.4924 43.8995 49.9678C52.1139 49.1455 60.146 50.1159 68.0082 52.5758C69.3641 52.9999 70.6901 53.5177 72.0419 53.9566C72.299 54.0395 72.6172 53.9159 72.9001 53.9512C73.1626 53.9838 73.5352 54.03 73.6386 54.2026C73.7446 54.3793 73.6712 54.8278 73.5134 54.9528C73.3502 55.0819 72.9001 55.0779 72.7342 54.9406C71.8352 54.1972 71.7944 54.1455 70.6234 53.818C71.0124 54.3249 71.4966 54.84 71.8366 55.4367C72.1643 56.0115 72.0202 56.6231 71.5795 57.1341C71.1742 57.6044 70.6398 57.656 70.0876 57.5269C69.2675 57.3339 68.8391 56.4193 69.2662 55.7955C69.549 55.3809 69.9666 55.2505 70.3786 55.5467C70.5486 55.6691 70.5704 55.9952 70.7173 56.3812C70.2998 56.0591 70.1026 55.8444 69.8591 55.7574C69.783 55.7302 69.4552 56.0578 69.4661 56.2059C69.4878 56.4872 69.6021 56.8365 69.8034 57.0132C70.1814 57.3448 70.6738 57.4358 71.1158 57.1002C71.555 56.7658 71.876 56.3133 71.5945 55.7533C71.3578 55.2831 71.06 54.8088 70.6792 54.4527C69.345 53.2037 67.6274 52.7471 65.9246 52.2768C60.0889 50.6663 54.1484 49.8686 48.091 50.0249C43.0699 50.154 38.1344 50.9096 33.3445 52.4114C32.2674 52.7484 31.3018 53.5448 30.3974 54.2692C30.0424 54.5533 29.833 55.2287 29.8588 55.7098C29.8779 56.0591 30.3416 56.5592 30.7007 56.6625C31.0271 56.7563 31.5194 56.4573 31.8608 56.2208C31.9981 56.1257 31.9859 55.7153 31.9247 55.4788C31.8934 55.3551 31.5752 55.1907 31.4473 55.2314C31.2732 55.2844 31.1536 55.5182 30.8421 55.8593Z" fill="black"/>
<path d="M68.3106 63.4556C68.4683 63.2952 68.6084 63.0302 68.7689 63.0166C69.0001 62.9976 69.4421 63.1416 69.453 63.2504C69.4951 63.673 69.4026 64.1079 69.3618 64.5184C69.8678 64.7018 70.5301 64.8622 71.1135 65.1721C71.8778 65.5784 72.1213 66.6141 71.7677 67.5056C71.4753 68.2409 70.764 68.5874 69.8664 68.4298C69.2939 68.3292 68.8872 67.7366 68.9634 67.1101C69.0232 66.6141 69.4693 66.3232 70.0758 66.3844C70.6266 66.4387 70.8102 66.7744 70.6212 67.3765C70.5831 67.367 70.5165 67.3629 70.5124 67.3452C70.4322 66.9837 70.3601 66.5638 69.861 66.6956C69.6284 66.7568 69.2558 67.121 69.2898 67.2025C69.4326 67.5423 69.6461 67.9772 69.9453 68.0968C70.4811 68.3115 71.0197 68.0995 71.3638 67.5858C71.6956 67.0924 71.7092 66.0731 71.255 65.7606C70.7001 65.3787 70.0405 65.0824 69.385 64.9302C68.69 64.7684 67.9461 64.7847 67.2239 64.7847C55.9835 64.778 44.7432 64.7712 33.5041 64.7983C32.5453 64.8011 31.5607 64.9546 30.6345 65.2088C29.5615 65.5023 29.1358 66.6888 29.7614 67.5423C29.9899 67.8522 30.4836 68.0519 30.8861 68.1199C31.1337 68.162 31.5199 67.9215 31.6994 67.6932C31.9497 67.3751 31.9932 66.9701 31.49 66.7513C31.0221 66.5488 30.7556 66.6983 30.6713 67.1985C30.659 67.2718 30.5992 67.3384 30.5611 67.4077C30.4958 67.3928 30.4305 67.3778 30.3653 67.3615C30.4169 67.1128 30.3897 66.7296 30.538 66.6426C30.8181 66.4768 31.2193 66.3803 31.5294 66.4482C31.7661 66.4999 32.0421 66.8193 32.1129 67.0734C32.2502 67.564 32.0979 68.1348 31.5933 68.2585C31.0684 68.3876 30.368 68.427 29.9328 68.177C28.8801 67.5749 28.974 65.7375 30.047 65.1476C30.606 64.8405 31.2561 64.695 31.7606 64.5157C31.7293 64.1025 31.6559 63.6499 31.6981 63.2055C31.7062 63.1185 32.17 62.9962 32.3998 63.0343C32.5562 63.0601 32.6718 63.3346 32.8051 63.4991C32.7575 63.5398 32.7099 63.5806 32.6623 63.6214C32.5861 63.567 32.5168 63.4923 32.4324 63.461C32.291 63.4094 32.1387 63.3835 31.9905 63.3469C31.9537 63.5099 31.8395 63.7138 31.898 63.8266C31.9945 64.0114 32.1809 64.2071 32.3726 64.271C32.7303 64.3906 33.1165 64.4749 33.4919 64.4762C44.8683 64.4871 56.2447 64.4871 67.6197 64.4762C68.0168 64.4762 68.4588 64.4273 68.7961 64.2452C69.0164 64.127 69.0844 63.7288 69.2218 63.4556C68.9661 63.4556 68.7172 63.4556 68.3106 63.4556Z" fill="black"/>
<path d="M27.8092 37.4164C29.6302 36.8782 31.439 36.2979 33.2723 35.8086C41.8294 33.5254 50.5117 32.8173 59.2837 34.137C65.5179 35.0747 72.6946 37.044 73.9771 38.032C73.8166 38.0184 73.6426 38.0388 73.4957 37.9872C69.7842 36.6866 66.0075 35.6387 62.137 34.9334C58.7941 34.3231 55.4281 33.9657 52.0281 33.8855C44.034 33.6953 36.2779 34.9864 28.7177 37.5441C28.4525 37.6338 28.171 37.6719 27.8976 37.7344C27.8663 37.627 27.8378 37.521 27.8092 37.4164Z" fill="black"/>
<path d="M67.3269 65.8966C56.5856 65.8966 45.8444 65.8966 35.1031 65.8966C35.1031 65.8395 35.1031 65.7824 35.1031 65.7253C45.843 65.7253 56.5815 65.7253 67.3214 65.7253C67.3228 65.7824 67.3255 65.8395 67.3269 65.8966Z" fill="black"/>
<path d="M35.8002 52.6943C45.0223 52.6943 54.2445 52.6943 63.4666 52.6943C63.4666 52.7433 63.4666 52.7935 63.4666 52.8425C54.2445 52.8425 45.0237 52.8425 35.8015 52.8425C35.8015 52.7935 35.8002 52.7433 35.8002 52.6943Z" fill="black"/>
<path d="M50.211 33.0887C50.211 32.1523 50.2056 31.3219 50.2124 30.4916C50.2165 29.9928 50.6435 29.9697 50.9359 30.0145C51.2052 30.0567 51.6322 30.2972 51.654 30.4888C51.7383 31.2227 51.7057 31.9729 51.6703 32.715C51.6635 32.8441 51.4514 33.048 51.3099 33.0711C50.9835 33.1254 50.6435 33.0887 50.211 33.0887Z" fill="black"/>
<path d="M51.0199 70.259C50.6676 70.5336 50.4541 70.819 50.3018 70.7891C50.0801 70.7469 49.902 70.4765 49.7061 70.3025C49.8952 70.1231 50.0611 69.854 50.2814 69.7969C50.431 69.7589 50.6567 70.0198 51.0199 70.259Z" fill="black"/>
<path d="M48.6767 35.4095C48.2904 35.6365 48.0688 35.8716 47.8892 35.8444C47.6934 35.8145 47.5356 35.5373 47.3629 35.3687C47.5574 35.1975 47.7328 34.9284 47.9504 34.889C48.1068 34.8604 48.319 35.1391 48.6767 35.4095Z" fill="black"/>
<path d="M60.8764 36.0542C60.5132 36.2893 60.278 36.557 60.1148 36.519C59.9108 36.4714 59.768 36.1697 59.598 35.9794C59.7829 35.8272 59.9638 35.5622 60.1515 35.5568C60.3405 35.55 60.5364 35.8055 60.8764 36.0542Z" fill="black"/>
<path d="M65.6846 36.9002C65.3269 37.1557 65.0943 37.437 64.9488 37.3976C64.7353 37.3405 64.5857 37.0524 64.4075 36.8621C64.5871 36.7004 64.7571 36.4272 64.9502 36.4082C65.1283 36.3919 65.3323 36.6488 65.6846 36.9002Z" fill="black"/>
<path d="M34.1225 37.4608C33.7717 37.7067 33.5649 37.965 33.3841 37.9487C33.1882 37.931 33.0155 37.6565 32.8333 37.4934C33.0155 37.3017 33.1719 37.0082 33.3909 36.9511C33.5377 36.9117 33.773 37.2039 34.1225 37.4608Z" fill="black"/>
<path d="M67.2576 36.6924C67.5337 37.0281 67.8329 37.2387 67.8084 37.4005C67.7758 37.6138 67.4902 37.7905 67.3134 37.9821C67.142 37.8123 66.8578 37.6573 66.832 37.467C66.8075 37.2795 67.0428 37.058 67.2576 36.6924Z" fill="black"/>
<path d="M29.4007 38.7622C29.0512 39.034 28.8322 39.3235 28.688 39.2895C28.4691 39.2378 28.3045 38.9633 28.1155 38.7826C28.2909 38.61 28.4473 38.3314 28.6459 38.2974C28.8159 38.2688 29.0335 38.5216 29.4007 38.7622Z" fill="black"/>
<path d="M52.681 69.4895C52.9503 69.8877 53.2005 70.0943 53.1896 70.2886C53.1801 70.4748 52.9013 70.6488 52.7408 70.8268C52.5559 70.6447 52.2798 70.4884 52.2159 70.2696C52.1737 70.1228 52.4308 69.8891 52.681 69.4895Z" fill="black"/>
<path d="M56.0076 35.4938C55.6513 35.7398 55.4459 35.9912 55.2582 35.979C55.0692 35.9668 54.8992 35.6895 54.7197 35.5291C54.9019 35.3497 55.0624 35.0684 55.2718 35.0249C55.4323 34.991 55.6567 35.256 56.0076 35.4938Z" fill="black"/>
<path d="M47.7884 69.4993C48.0563 69.8703 48.331 70.0891 48.2984 70.2427C48.2508 70.4628 47.9815 70.6368 47.806 70.8298C47.6224 70.6626 47.3042 70.5063 47.2892 70.3256C47.2729 70.1217 47.5313 69.8975 47.7884 69.4993Z" fill="black"/>
<path d="M57.7286 36.4621C57.4526 36.1292 57.1534 35.9144 57.1846 35.7704C57.2309 35.5543 57.5083 35.3885 57.6878 35.2009C57.8619 35.3695 58.1462 35.5203 58.1788 35.7133C58.2087 35.8859 57.9585 36.1047 57.7286 36.4621Z" fill="black"/>
<path d="M31.0075 37.3123C31.2591 37.6942 31.508 37.9062 31.4849 38.0815C31.4577 38.2813 31.187 38.4484 31.0225 38.6292C30.8443 38.443 30.571 38.2786 30.5193 38.0611C30.4839 37.9102 30.7505 37.686 31.0075 37.3123Z" fill="black"/>
<path d="M69.7083 38.8466C69.4431 38.5041 69.1738 38.3084 69.1806 38.1236C69.1874 37.9374 69.4689 37.7607 69.6308 37.5813C69.8212 37.7525 70.1122 37.8966 70.1666 38.1032C70.206 38.2568 69.9395 38.4919 69.7083 38.8466Z" fill="black"/>
<path d="M77.3958 40.4526C77.0368 40.6905 76.7933 40.9636 76.656 40.9174C76.4465 40.8467 76.2248 40.5763 76.1786 40.3548C76.1555 40.242 76.4996 39.9375 76.6859 39.9294C76.8654 39.9212 77.0558 40.1862 77.3958 40.4526Z" fill="black"/>
<path d="M35.7171 37.6761C35.4872 37.2969 35.2329 37.0591 35.2751 36.8974C35.3295 36.6881 35.6191 36.5399 35.8068 36.366C35.9564 36.5549 36.2189 36.7384 36.2257 36.9327C36.2311 37.1216 35.9768 37.3187 35.7171 37.6761Z" fill="black"/>
<path d="M72.0308 38.0286C72.2661 38.3874 72.5123 38.5967 72.4946 38.7815C72.4755 38.9758 72.2049 39.1471 72.0458 39.3278C71.8649 39.143 71.5807 38.9786 71.5371 38.7652C71.5031 38.6062 71.7806 38.3833 72.0308 38.0286Z" fill="black"/>
<path d="M50.3962 36.0712C50.1214 35.7328 49.8304 35.5235 49.8576 35.3713C49.8957 35.162 50.15 34.9011 50.3594 34.8467C50.4818 34.8154 50.8082 35.1226 50.8395 35.3115C50.8681 35.4868 50.6246 35.7043 50.3962 36.0712Z" fill="black"/>
<path d="M52.7388 36.1066C52.5131 35.741 52.2696 35.5208 52.3023 35.355C52.3404 35.1634 52.6219 35.0193 52.7973 34.8535C52.9728 35.0411 53.2434 35.2082 53.291 35.4243C53.3209 35.5643 53.0217 35.7736 52.7388 36.1066Z" fill="black"/>
<path d="M43.7845 35.7605C43.4037 35.9847 43.182 36.2212 42.9971 36.1954C42.8053 36.1682 42.6489 35.8882 42.4775 35.7197C42.6707 35.5458 42.8447 35.2699 43.061 35.2332C43.2201 35.2046 43.4323 35.49 43.7845 35.7605Z" fill="black"/>
<path d="M24.7662 40.3868C24.4194 40.6559 24.2018 40.9413 24.059 40.9086C23.851 40.8597 23.5994 40.6029 23.5531 40.3936C23.5259 40.2672 23.8374 39.9559 24.0264 39.9274C24.195 39.9016 24.4058 40.1489 24.7662 40.3868Z" fill="black"/>
<path d="M26.3455 40.3604C26.0871 39.9772 25.8409 39.772 25.8545 39.5871C25.8681 39.405 26.1442 39.2406 26.3047 39.0693C26.4788 39.2324 26.7644 39.3792 26.7943 39.5654C26.8229 39.7434 26.5849 39.9636 26.3455 40.3604Z" fill="black"/>
<path d="M46.2153 35.5198C45.8467 35.7535 45.6346 35.9968 45.451 35.9764C45.2579 35.956 45.0933 35.6829 44.9165 35.5198C45.1015 35.3431 45.2674 35.0645 45.4795 35.021C45.6373 34.9897 45.8576 35.2629 46.2153 35.5198Z" fill="black"/>
<path d="M41.3587 36.0597C40.9724 36.2962 40.7331 36.5517 40.5862 36.5068C40.3713 36.4416 40.2217 36.1589 40.0449 35.97C40.2353 35.8232 40.4189 35.5718 40.6175 35.5582C40.7956 35.5473 40.9915 35.7974 41.3587 36.0597Z" fill="black"/>
<path d="M62.5477 37.1831C62.3002 36.8366 62.0527 36.6422 62.0622 36.4628C62.0717 36.278 62.3315 36.1054 62.4825 35.9287C62.6756 36.0945 62.9721 36.2331 63.0278 36.4356C63.07 36.5865 62.7939 36.8216 62.5477 37.1831Z" fill="black"/>
<path d="M38.165 37.1846C37.9025 36.8163 37.6387 36.6056 37.6577 36.4276C37.6768 36.2455 37.9664 35.9777 38.1555 35.9628C38.3091 35.9505 38.6056 36.2414 38.6247 36.4208C38.6451 36.6015 38.403 36.8122 38.165 37.1846Z" fill="black"/>
<path d="M75.1245 39.5087C74.7478 39.7955 74.5546 40.0551 74.3819 40.0429C74.1956 40.0306 73.9005 39.771 73.8882 39.6025C73.876 39.4354 74.1344 39.1404 74.318 39.0997C74.4866 39.063 74.7151 39.2872 75.1245 39.5087Z" fill="black"/>
<path d="M52.1383 32.9122C52.1383 32.0179 52.1383 31.125 52.1383 30.2307C52.1737 30.2294 52.2104 30.2294 52.2457 30.228C52.2457 31.125 52.2457 32.0234 52.2457 32.9203C52.2104 32.9176 52.175 32.9149 52.1383 32.9122Z" fill="black"/>
<path d="M49.6952 30.2416C49.6952 31.1237 49.6952 32.0057 49.6952 32.8864C49.6598 32.8864 49.6245 32.8877 49.5891 32.8877C49.5891 32.0016 49.5891 31.1141 49.5891 30.228C49.6245 30.2321 49.6598 30.2362 49.6952 30.2416Z" fill="black"/>
<path d="M48.9475 33.2346C48.9865 33.2346 49.0182 32.5963 49.0182 31.809C49.0182 31.0216 48.9865 30.3833 48.9475 30.3833C48.9084 30.3833 48.8768 31.0216 48.8768 31.809C48.8768 32.5963 48.9084 33.2346 48.9475 33.2346Z" fill="black"/>
<path d="M48.3549 52.1847C48.3549 51.5663 48.3549 50.948 48.3549 50.3296C48.3889 50.3296 48.4229 50.3296 48.4555 50.3296C48.4555 50.9466 48.4555 51.5623 48.4555 52.1793C48.4229 52.182 48.3889 52.1834 48.3549 52.1847Z" fill="black"/>
<path d="M49.8445 68.5741C49.8445 67.9544 49.8445 67.3346 49.8445 66.7149C49.8745 66.7136 49.9044 66.7108 49.9329 66.7095C49.9329 67.3265 49.9329 67.9449 49.9329 68.5619C49.9044 68.5646 49.8745 68.5687 49.8445 68.5741Z" fill="black"/>
<path d="M51.2611 66.6992C51.2611 67.3258 51.2611 67.9523 51.2611 68.5788C51.2298 68.5802 51.1985 68.5815 51.1672 68.5829C51.1672 67.9509 51.1672 67.319 51.1672 66.687C51.1985 66.6911 51.2298 66.6952 51.2611 66.6992Z" fill="black"/>
<path d="M50.3142 52.1702C50.3142 51.5627 50.3142 50.9538 50.3142 50.3463C50.3455 50.3463 50.3768 50.345 50.408 50.345C50.408 50.9525 50.408 51.5613 50.408 52.1688C50.3768 52.1688 50.3455 52.1688 50.3142 52.1702Z" fill="black"/>
<path d="M51.1069 50.332C51.1069 50.9518 51.1069 51.5729 51.1069 52.1926C51.0769 52.1926 51.047 52.194 51.0171 52.194C51.0171 51.5742 51.0171 50.9531 51.0171 50.3334C51.047 50.3334 51.0769 50.332 51.1069 50.332Z" fill="black"/>
<path d="M47.6744 52.2097C47.6744 51.5709 47.6744 50.9308 47.6744 50.292C47.7043 50.2907 47.7329 50.2907 47.7628 50.2893C47.7628 50.9281 47.7628 51.5682 47.7628 52.2069C47.7342 52.2083 47.7043 52.2097 47.6744 52.2097Z" fill="black"/>
<path d="M50.4708 68.5633C50.4708 67.9408 50.4708 67.317 50.4708 66.6946C50.5035 66.6959 50.5361 66.6959 50.5701 66.6973C50.5701 67.3225 50.5701 67.9463 50.5701 68.5714C50.5361 68.5687 50.5035 68.566 50.4708 68.5633Z" fill="black"/>
<path d="M53.1485 66.7175C53.1485 67.287 53.1485 67.8551 53.1485 68.4245C53.12 68.4259 53.0928 68.4272 53.0642 68.4272C53.0642 67.8578 53.0642 67.2897 53.0642 66.7202C53.0928 66.7202 53.1213 66.7189 53.1485 66.7175Z" fill="black"/>
<path d="M51.806 68.5739C51.806 67.9583 51.806 67.344 51.806 66.7283C51.8386 66.7269 51.8713 66.7256 51.9053 66.7256C51.9053 67.3426 51.9053 67.9583 51.9053 68.5753C51.8726 68.5753 51.8386 68.5739 51.806 68.5739Z" fill="black"/>
<path d="M49.285 66.735C49.285 67.352 49.285 67.969 49.285 68.5874C49.2537 68.5874 49.2211 68.586 49.1898 68.586C49.1898 67.969 49.1898 67.3507 49.1898 66.7336C49.2211 66.7336 49.2524 66.735 49.285 66.735Z" fill="black"/>
<path d="M49.6536 52.2526C49.6536 51.6111 49.6536 50.9696 49.6536 50.3282C49.6821 50.3268 49.7093 50.3268 49.7379 50.3254C49.7379 50.9669 49.7379 51.6084 49.7379 52.2512C49.7107 52.2512 49.6821 52.2512 49.6536 52.2526Z" fill="black"/>
<path d="M52.2347 52.2015C52.2347 51.6443 52.2347 51.0871 52.2347 50.5285C52.2605 50.5271 52.285 50.5258 52.3108 50.5244C52.3108 51.083 52.3108 51.6402 52.3108 52.1988C52.285 52.2001 52.2605 52.2001 52.2347 52.2015Z" fill="black"/>
<path d="M55.0003 31.1985C55.0003 31.7367 55.0003 32.2762 55.0003 32.8144C54.9663 32.8144 54.9323 32.8144 54.8983 32.813C54.8983 32.2721 54.8983 31.7299 54.8983 31.189C54.9323 31.193 54.9663 31.1958 55.0003 31.1985Z" fill="black"/>
<path d="M47.8635 68.4058C47.8635 67.8622 47.8635 67.32 47.8635 66.7763C47.8934 66.7736 47.9233 66.7722 47.9546 66.7695C47.9546 67.3172 47.9546 67.8663 47.9546 68.414C47.9247 68.4113 47.8934 68.4086 47.8635 68.4058Z" fill="black"/>
<path d="M47.5519 32.8376C47.5519 32.2722 47.5519 31.7055 47.5519 31.1401C47.5846 31.1401 47.6172 31.1415 47.6499 31.1415C47.6499 31.7069 47.6499 32.2722 47.6499 32.8363C47.6172 32.8363 47.5846 32.8363 47.5519 32.8376Z" fill="black"/>
<path d="M47.0995 50.5113C47.0995 51.0834 47.0995 51.6556 47.0995 52.2278C47.0669 52.2264 47.0329 52.2251 47.0002 52.2251C47.0002 51.6461 47.0002 51.0671 47.0002 50.4868C47.0329 50.495 47.0669 50.5031 47.0995 50.5113Z" fill="black"/>
<path d="M48.4726 68.5686C48.4658 68.4653 48.455 68.3634 48.455 68.2601C48.4536 67.7477 48.4536 67.234 48.5855 66.7175C48.5855 67.3318 48.5855 67.9475 48.5855 68.5618C48.5488 68.5645 48.5107 68.5659 48.4726 68.5686Z" fill="black"/>
</svg>
