<svg width="120" height="120" viewBox="0 0 120 120" fill="none" xmlns="http://www.w3.org/2000/svg">
<circle cx="60" cy="60" r="60" fill="#F9F9F9"/>
<path d="M36.8682 55.3625C36.7866 53.6632 36.7392 51.9605 36.6087 50.2644C36.5614 49.6463 36.7229 49.2598 37.3023 49.082C38.2831 48.7803 39.2623 48.4607 40.2611 48.2356C40.4635 48.1899 40.8584 48.4737 40.9873 48.7037C41.5683 49.7442 42.1477 50.7928 42.6128 51.8888C43.5218 54.0334 44.3639 56.2073 45.2142 58.378C45.57 59.2848 45.4035 59.5621 44.457 59.8197C44.0637 59.9257 43.6752 60.0432 43.2819 60.1524C42.04 60.4949 41.7511 60.3661 41.2893 59.1951C40.891 58.1889 40.5222 57.1696 40.1322 56.16C40.0685 55.9953 39.9624 55.8469 39.7976 55.5501C39.3602 56.3231 39.5642 57.0081 39.6067 57.667C39.6622 58.5313 39.8156 59.3957 39.796 60.2584C39.7894 60.5634 39.4647 61.0054 39.1742 61.1358C37.4785 61.8926 37.2109 61.7849 36.2611 60.1736C35.8759 59.5196 35.5381 58.8347 35.1334 58.1937C34.9016 57.8284 34.5768 57.5218 34.2929 57.1891C34.195 57.2364 34.097 57.2821 33.9991 57.3294C34.2798 58.577 34.5165 59.8344 34.851 61.0674C35.3455 62.8923 35.3749 62.8842 33.5895 63.4794C33.3839 63.5479 33.1586 63.5805 32.9726 63.6849C31.6033 64.4465 31.4467 63.7811 31.2247 62.7618C30.6388 60.0611 30.1231 57.3457 29.5682 54.6384C29.4589 54.1084 29.3218 53.5816 29.1586 53.0663C28.9791 52.4971 29.1537 52.104 29.6808 51.8708C30.5719 51.4762 31.4679 51.0945 32.3671 50.7178C32.8877 50.4993 33.2582 50.6102 33.5862 51.132C34.3777 52.3976 35.2313 53.624 36.0669 54.8602C36.2105 55.0722 36.39 55.2598 36.5532 55.4588C36.6593 55.4261 36.7637 55.3952 36.8682 55.3625Z" fill="black"/>
<path d="M65.1591 69.0049C65.1591 67.9562 65.164 66.9076 65.1575 65.8589C65.151 64.7956 65.4317 64.4988 66.4957 64.502C67.0376 64.5037 67.5777 64.5444 68.1196 64.5575C68.7968 64.5754 69.0694 64.9293 69.0694 65.5898C69.0694 68.3281 69.0857 71.0663 69.0955 73.8046C69.0971 74.4292 69.0661 75.0538 69.0988 75.6768C69.1314 76.3194 68.8017 76.5591 68.2256 76.5787C67.5484 76.6015 66.8711 76.6097 66.1938 76.6341C65.337 76.6651 64.7593 76.2346 64.3382 75.5382C63.7948 74.6428 63.2562 73.7442 62.716 72.8472C62.6328 72.8603 62.5496 72.8733 62.4663 72.8864C62.4663 73.7442 62.4369 74.6021 62.4729 75.4583C62.5251 76.6896 62.388 76.8168 61.164 76.6635C60.6026 76.5934 60.0265 76.5738 59.4602 76.6064C58.7813 76.6472 58.525 76.3455 58.5283 75.7062C58.5365 74.2677 58.5561 72.8277 58.5218 71.3909C58.4761 69.442 58.3961 67.4931 58.3096 65.5442C58.2737 64.7287 58.5104 64.4547 59.3084 64.4662C60.0673 64.4776 60.8278 64.4874 61.5867 64.4727C62.7944 64.4499 62.9363 64.5444 63.3786 65.673C63.6952 66.4787 64.0135 67.2859 64.3725 68.0753C64.5406 68.4455 64.8082 68.77 65.0318 69.1158C65.0759 69.0767 65.1167 69.0408 65.1591 69.0049Z" fill="black"/>
<path d="M44.2596 52.2605C44.2237 48.9221 46.9834 45.8821 50.1511 45.9963C54.4351 46.1528 56.5551 48.3219 56.6057 52.0925C56.6547 55.7131 54.2491 58.6992 50.7664 58.5899C47.0128 58.4758 44.5322 56.2675 44.2596 52.2605ZM52.4621 52.554C52.3984 52.1822 52.356 51.8038 52.2695 51.4369C52.0883 50.672 51.7113 50.0621 50.8366 50.0082C49.7611 49.9397 48.963 50.3589 48.7721 51.2917C48.6415 51.9343 48.7346 52.6894 48.9484 53.3189C49.2845 54.3072 49.9749 54.6807 50.724 54.5111C51.8909 54.2453 52.4164 53.6418 52.4621 52.554Z" fill="black"/>
<path d="M76.1455 63.9946C78.4271 64.1903 81.2831 65.9484 81.8624 68.8481C82.3455 71.2765 81.7482 73.2613 80.2402 75.0161C79.6755 75.6734 78.7812 76.1757 77.9407 76.435C76.6416 76.8362 75.3246 76.7481 73.9994 76.143C71.6281 75.0601 70.4564 73.2319 70.4123 70.7236C70.365 68.1191 71.5025 66.0463 73.7824 64.7334C74.4809 64.3339 75.354 64.2327 76.1455 63.9946ZM78.0419 70.1838C78.0354 70.1202 78.0337 69.8462 77.9783 69.5837C77.7612 68.5856 77.4528 68.3605 76.3887 68.1827C75.5058 68.0343 75.0945 68.5856 74.7436 69.202C74.2769 70.0224 74.4531 71.526 75.1402 72.1621C75.4144 72.4165 75.9219 72.604 76.2826 72.5502C77.6568 72.348 78.037 71.8261 78.0419 70.1838Z" fill="black"/>
<path d="M65.1376 51.8985C66.9458 52.9145 67.3456 53.699 66.9409 55.3657C66.5786 56.8596 65.3318 57.7778 63.6182 57.8333C62.1265 57.8822 60.6365 58.0078 59.1465 57.9898C57.9943 57.9768 57.7462 57.649 57.7218 56.4943C57.6858 54.702 57.6777 52.908 57.6369 51.1157C57.6059 49.7033 57.5667 48.291 57.4835 46.8819C57.441 46.1529 57.7593 45.7452 58.4415 45.7843C60.6887 45.9115 62.9393 46.042 65.1735 46.2948C66.1935 46.4106 66.8544 47.1657 67.0829 48.1801C67.3293 49.2728 67.1743 50.3035 66.2979 51.0961C65.9617 51.4011 65.5472 51.6196 65.1376 51.8985ZM61.2354 53.0939C61.4362 53.7577 61.6173 54.3546 61.7969 54.9499C62.2326 54.8063 62.7271 54.7411 63.0796 54.4834C63.2526 54.3562 63.2983 53.7919 63.1661 53.5587C62.7826 52.8868 62.1053 52.9781 61.2354 53.0939ZM61.5782 50.2513C62.435 50.3263 63.2134 49.9431 63.1335 49.4815C63.0029 48.7281 62.3664 48.8178 61.7463 48.8194C61.6908 49.2989 61.6369 49.7457 61.5782 50.2513Z" fill="black"/>
<path d="M44.2708 72.7869C44.2708 73.7458 44.2495 74.7048 44.2773 75.6621C44.3067 76.6928 44.2724 76.7467 43.2752 76.6896C42.5702 76.6488 41.8652 76.5656 41.1618 76.5933C40.496 76.6194 40.2968 76.321 40.3115 75.7225C40.3899 72.658 40.4617 69.5936 40.5319 66.5292C40.54 66.2046 40.558 65.8768 40.5188 65.5572C40.4258 64.8249 40.7261 64.4678 41.4654 64.502C42.1426 64.533 42.8199 64.6064 43.4972 64.6096C44.1565 64.6145 44.3181 64.9587 44.305 65.5425C44.2822 66.676 44.2985 67.8111 44.2985 69.1957C44.5645 68.8141 44.7489 68.6135 44.8632 68.3786C45.3609 67.3593 45.8489 66.3335 46.3206 65.3011C46.5392 64.8233 46.8575 64.6227 47.4009 64.6488C48.2953 64.6928 49.1929 64.6472 50.0888 64.6667C50.8363 64.683 50.9685 64.895 50.6094 65.567C49.8065 67.0706 48.984 68.5645 48.1402 70.0454C47.9052 70.458 47.8253 70.7793 48.1076 71.2245C48.8763 72.4346 49.5911 73.6806 50.319 74.9168C50.4691 75.1729 50.6046 75.4436 50.7008 75.7241C50.8869 76.2574 50.802 76.6374 50.1166 76.6406C48.9252 76.6455 47.7306 76.7157 46.5441 76.6406C46.2651 76.6227 45.9126 76.1791 45.7722 75.8546C45.4099 75.013 45.1537 74.1275 44.8354 73.2647C44.7669 73.0788 44.6167 72.9239 44.5041 72.7543C44.4274 72.7673 44.3491 72.7771 44.2708 72.7869Z" fill="black"/>
<path d="M81.154 60.7622C81.3009 60.2909 81.4788 59.6401 81.7073 59.0074C82.6636 56.3604 83.6379 53.72 84.5992 51.0764C84.8538 50.3751 85.3597 50.1468 86.0174 50.3996C87.4079 50.9361 88.7771 51.5265 90.1529 52.0989C90.8546 52.3909 91.5629 52.6681 92.2418 53.0073C92.4197 53.0954 92.64 53.433 92.5944 53.5782C92.3724 54.2713 92.0656 54.9367 91.7865 55.6102C91.5042 56.2952 91.0146 56.3686 90.3977 56.0799C89.7351 55.7701 89.0839 55.4308 88.4001 55.1797C88.2206 55.1144 87.7848 55.2808 87.7424 55.4227C87.6804 55.6282 87.8012 56.0473 87.966 56.1321C88.5666 56.4371 89.2259 56.6279 89.8526 56.8872C90.3389 57.0878 90.6245 57.3536 90.2328 57.9342C89.9799 58.3093 89.8069 58.7578 89.6927 59.1982C89.5164 59.8668 89.1508 59.9223 88.5992 59.6727C88.0313 59.4167 87.465 59.1492 86.8758 58.9601C86.6963 58.903 86.4401 59.0856 86.2198 59.159C86.3307 59.371 86.3879 59.6842 86.5641 59.7788C87.1337 60.087 87.7326 60.3561 88.3463 60.5665C89.0284 60.7997 89.1557 61.2368 88.9175 61.8337C88.6563 62.486 88.4115 63.1579 88.0378 63.7451C87.9138 63.9408 87.3671 64.037 87.0994 63.9408C86.2345 63.6309 85.4168 63.1889 84.5665 62.8367C83.744 62.4958 82.9035 62.199 82.068 61.8891C81.6077 61.7179 81.0953 61.6102 81.154 60.7622Z" fill="black"/>
<path d="M72.8358 57.4286C73.0937 56.2087 73.4902 54.4115 73.8525 52.6061C74.13 51.2248 74.3699 49.8369 74.6114 48.449C74.773 47.5161 75.0717 47.3009 76.0052 47.4998C76.7999 47.6694 77.6029 47.8113 78.3862 48.025C79.0586 48.2093 79.483 48.5778 79.2202 49.3982C78.9183 50.349 78.6735 51.3177 78.4303 52.2865C78.161 53.3612 77.9374 54.4474 77.66 55.5205C77.4935 56.1614 77.8085 56.4289 78.3552 56.5643C78.9852 56.7208 79.6217 56.8562 80.2467 57.0307C80.924 57.2199 81.1557 57.6618 80.9142 58.337C80.7037 58.9241 80.516 59.5194 80.2892 60.0984C79.922 61.0427 79.7637 61.1144 78.7583 60.8388C77.4005 60.467 76.046 60.0853 74.6881 59.7119C74.5053 59.6613 74.316 59.6385 74.1284 59.6107C72.9321 59.4362 72.7852 59.2617 72.8358 57.4286Z" fill="black"/>
<path d="M70.0565 58.7548C69.4902 58.7092 68.7869 58.6668 68.0867 58.5934C67.4454 58.5265 67.2103 58.14 67.2887 57.517C67.571 55.2582 67.8534 52.9995 68.121 50.7374C68.2646 49.5257 68.3903 48.3123 68.498 47.0957C68.5584 46.4221 68.8668 46.1139 69.5555 46.2101C70.4694 46.3373 71.3915 46.4107 72.2973 46.5787C73.1361 46.7352 73.2455 47.0158 73.0937 47.8459C72.498 51.1223 71.917 54.4004 71.354 57.6817C71.2348 58.3748 71.0553 58.9212 70.0565 58.7548Z" fill="black"/>
<path d="M52.3998 70.4971C52.3998 68.814 52.4014 67.1326 52.3998 65.4495C52.3998 64.5362 52.5728 64.3503 53.4834 64.3389C54.1901 64.3308 54.8968 64.3177 55.6018 64.3471C56.1975 64.3715 56.5157 64.6357 56.5092 65.3191C56.4765 68.6836 56.488 72.0481 56.4798 75.4142C56.4765 76.3487 56.2774 76.5737 55.357 76.6373C54.683 76.6846 54.0057 76.6798 53.33 76.714C52.6707 76.7466 52.3884 76.4302 52.3916 75.7893C52.3982 74.0263 52.3949 72.2617 52.3949 70.4987C52.3949 70.4971 52.3965 70.4971 52.3998 70.4971Z" fill="black"/>
<path d="M95.5157 49.4978C95.3068 49.6136 95.0555 49.8648 94.9004 49.8158C94.5789 49.7131 94.1775 49.5141 94.0453 49.2401C93.6911 48.5111 94.3766 47.7087 95.2872 47.7022C96.0853 47.6957 96.774 48.2518 96.9894 49.0738C97.1901 49.8419 96.8295 50.6802 96.1114 51.0814C95.1012 51.6457 94.042 51.4989 93.0302 51.1613C91.2317 50.5628 89.474 49.8436 87.6788 49.2352C81.7596 47.2276 75.7114 45.7843 69.4886 45.07C56.7182 43.6038 44.3215 45.2575 32.2072 49.4065C30.3891 50.0262 28.5776 50.6884 26.7188 51.1548C25.2614 51.5234 24.0521 50.6313 23.9591 49.3722C23.8742 48.2355 25.0101 47.226 26.0856 47.5783C26.4528 47.699 26.8444 48.1279 26.9603 48.4981C27.0484 48.7786 26.8036 49.2842 26.5491 49.5207C26.1296 49.9104 25.689 49.6707 25.6123 49.1553C25.9158 49.1064 26.2504 49.1195 26.4968 48.9792C26.5882 48.927 26.5605 48.3644 26.4397 48.2975C26.1231 48.1214 25.5992 47.8996 25.3871 48.0398C24.9611 48.3236 24.4128 48.8455 24.4258 49.2516C24.4405 49.7196 24.9122 50.3589 25.3577 50.5889C26.4723 51.1629 27.6115 50.6394 28.6576 50.2366C34.7498 47.8914 41.0053 46.1464 47.4533 45.1401C54.0025 44.1159 60.5828 43.8338 67.1989 44.4062C75.9138 45.1597 84.2696 47.3548 92.4133 50.4715C93.2945 50.809 94.308 50.8955 95.266 50.9167C96.0086 50.933 96.5096 50.3769 96.6206 49.625C96.7136 48.989 96.3562 48.5389 95.8111 48.2486C95.6495 48.1621 95.4129 48.061 95.2742 48.1197C94.969 48.2469 94.6687 48.4377 94.4435 48.6759C94.3602 48.7639 94.4337 49.1814 94.5398 49.232C94.778 49.3461 95.0799 49.3233 95.3574 49.3576C95.408 49.4049 95.4618 49.4505 95.5157 49.4978Z" fill="black"/>
<path d="M37.0102 67.0315C37.0314 66.6499 36.9629 66.3139 37.0706 66.2421C37.3595 66.0513 37.7821 65.8067 38.0433 65.8964C38.3566 66.004 38.7646 66.4411 38.7597 66.7298C38.7532 67.1832 38.5427 67.7377 38.2261 68.0606C37.681 68.6167 36.6349 68.558 36.0457 68.0899C35.3635 67.5468 35.091 66.5716 35.5969 65.7415C36.0637 64.9766 36.7442 64.3438 37.3529 63.6295C36.2432 64.016 35.0747 64.4123 33.9176 64.8461C33.7886 64.895 33.7772 65.2212 33.6418 65.2995C33.3529 65.4658 32.9792 65.6974 32.7148 65.6273C32.5043 65.5719 32.2089 65.0027 32.2937 64.8461C32.4325 64.5901 32.8307 64.4156 33.1522 64.334C33.5373 64.2362 33.991 64.3634 34.3566 64.2329C40.302 62.1095 46.3926 60.5911 52.679 59.9616C62.5363 58.9749 72.1749 60.1394 81.6095 63.0913C83.2366 63.6001 84.8278 64.2215 86.45 64.7483C86.7584 64.8477 87.1403 64.6993 87.4798 64.7417C87.7947 64.7809 88.2419 64.8363 88.3659 65.0434C88.4932 65.2555 88.4051 65.7937 88.2158 65.9437C88.02 66.0986 87.4798 66.0937 87.2807 65.929C86.2019 65.0369 86.153 64.9749 84.7478 64.5819C85.2146 65.1902 85.7955 65.8083 86.2035 66.5243C86.5969 67.2141 86.4239 67.948 85.8951 68.5613C85.4088 69.1255 84.7674 69.1875 84.1048 69.0326C83.1207 68.801 82.6066 67.7034 83.1191 66.9548C83.4585 66.4574 83.9595 66.3009 84.454 66.6564C84.658 66.8032 84.6842 67.1946 84.8604 67.6577C84.3594 67.2712 84.1228 67.0135 83.8306 66.9092C83.7392 66.8766 83.3459 67.2696 83.359 67.4474C83.3851 67.785 83.5222 68.2041 83.7637 68.4161C84.2174 68.814 84.8082 68.9233 85.3386 68.5205C85.8657 68.1193 86.2509 67.5762 85.9131 66.9043C85.6291 66.34 85.2717 65.7708 84.8147 65.3435C83.2137 63.8447 81.1525 63.2968 79.1092 62.7325C72.1063 60.7999 64.9778 59.8426 57.7089 60.0301C51.6835 60.1851 45.761 61.0918 40.0131 62.8939C38.7205 63.2984 37.5618 64.2541 36.4765 65.1234C36.0506 65.4642 35.7993 66.2748 35.8303 66.8521C35.8531 67.2712 36.4096 67.8714 36.8405 67.9953C37.2322 68.1079 37.8229 67.7491 38.2326 67.4653C38.3974 67.3511 38.3827 66.8586 38.3093 66.5748C38.2717 66.4264 37.8899 66.2291 37.7365 66.278C37.5276 66.3416 37.3839 66.6221 37.0102 67.0315Z" fill="black"/>
<path d="M81.9732 76.1463C82.1625 75.9538 82.3306 75.6358 82.5232 75.6195C82.8006 75.5966 83.331 75.7695 83.3441 75.9C83.3947 76.4072 83.2837 76.9291 83.2348 77.4216C83.8419 77.6418 84.6366 77.8342 85.3368 78.2061C86.254 78.6937 86.5461 79.9364 86.1218 81.0063C85.7709 81.8886 84.9173 82.3045 83.8402 82.1153C83.1532 81.9946 82.6652 81.2835 82.7566 80.5317C82.8284 79.9364 83.3637 79.5874 84.0916 79.6608C84.7525 79.726 84.9728 80.1289 84.746 80.8513C84.7003 80.8399 84.6203 80.835 84.6154 80.8138C84.5191 80.38 84.4326 79.8761 83.8337 80.0343C83.5546 80.1077 83.1075 80.5447 83.1483 80.6426C83.3196 81.0503 83.5758 81.5722 83.9349 81.7157C84.5779 81.9734 85.2242 81.719 85.6371 81.1025C86.0353 80.5105 86.0516 79.2873 85.5065 78.9122C84.8406 78.454 84.0491 78.0984 83.2625 77.9158C82.4285 77.7217 81.5358 77.7413 80.6692 77.7413C67.1808 77.7331 53.6923 77.7249 40.2055 77.7576C39.0549 77.7608 37.8733 77.9451 36.762 78.2501C35.4743 78.6024 34.9635 80.0261 35.7142 81.0503C35.9884 81.4222 36.5808 81.6619 37.0639 81.7434C37.3609 81.794 37.8244 81.5053 38.0398 81.2313C38.3401 80.8497 38.3923 80.3637 37.7885 80.1011C37.2271 79.8581 36.9072 80.0375 36.806 80.6377C36.7913 80.7258 36.7195 80.8057 36.6738 80.8889C36.5955 80.8709 36.5172 80.853 36.4388 80.8334C36.5008 80.535 36.4682 80.075 36.6461 79.9707C36.9823 79.7717 37.4637 79.6559 37.8358 79.7375C38.1198 79.7994 38.4511 80.1827 38.5359 80.4877C38.7008 81.0764 38.518 81.7614 37.9125 81.9098C37.2826 82.0647 36.4421 82.112 35.9198 81.8119C34.6567 81.0895 34.7693 78.8845 36.0569 78.1767C36.7277 77.8081 37.5078 77.6336 38.1132 77.4183C38.0757 76.9226 37.9876 76.3795 38.0382 75.8462C38.048 75.7418 38.6045 75.595 38.8803 75.6407C39.068 75.6717 39.2067 76.0011 39.3666 76.1984C39.3095 76.2474 39.2524 76.2963 39.1953 76.3452C39.1039 76.28 39.0206 76.1903 38.9195 76.1528C38.7497 76.0908 38.5669 76.0598 38.3891 76.0158C38.345 76.2115 38.2079 76.4561 38.2781 76.5915C38.394 76.8133 38.6175 77.0481 38.8476 77.1248C39.2769 77.2683 39.7403 77.3694 40.1908 77.371C53.8425 77.3841 67.4941 77.3841 81.1442 77.371C81.6207 77.371 82.1511 77.3123 82.5558 77.0938C82.8202 76.9519 82.9018 76.4741 83.0667 76.1463C82.7598 76.1463 82.4612 76.1463 81.9732 76.1463Z" fill="black"/>
<path d="M33.3708 44.8987C35.5561 44.2529 37.7267 43.5565 39.9266 42.9694C50.1951 40.2295 60.6138 39.3798 71.1402 40.9634C78.6213 42.0887 87.2333 44.4519 88.7723 45.6375C88.5797 45.6212 88.3708 45.6457 88.1946 45.5837C83.7409 44.0229 79.2088 42.7655 74.5641 41.9191C70.5527 41.1868 66.5135 40.7579 62.4335 40.6617C52.8406 40.4334 43.5333 41.9827 34.461 45.052C34.1428 45.1597 33.805 45.2053 33.4769 45.2804C33.4394 45.1515 33.4051 45.0243 33.3708 44.8987Z" fill="black"/>
<path d="M80.7919 79.0754C67.9023 79.0754 55.0128 79.0754 42.1233 79.0754C42.1233 79.0069 42.1233 78.9384 42.1233 78.8699C55.0112 78.8699 67.8974 78.8699 80.7853 78.8699C80.787 78.9384 80.7902 79.0069 80.7919 79.0754Z" fill="black"/>
<path d="M42.9604 63.2314C54.027 63.2314 65.0936 63.2314 76.1602 63.2314C76.1602 63.2902 76.1602 63.3505 76.1602 63.4092C65.0936 63.4092 54.0287 63.4092 42.9621 63.4092C42.9621 63.3505 42.9604 63.2902 42.9604 63.2314Z" fill="black"/>
<path d="M60.253 39.7077C60.253 38.584 60.2464 37.5875 60.2546 36.591C60.2595 35.9925 60.7719 35.9648 61.1228 36.0186C61.4459 36.0692 61.9584 36.3578 61.9845 36.5878C62.0857 37.4685 62.0465 38.3687 62.0041 39.2592C61.9959 39.4141 61.7413 39.6587 61.5716 39.6864C61.1799 39.7517 60.7719 39.7077 60.253 39.7077Z" fill="black"/>
<path d="M61.224 84.3121C60.8013 84.6416 60.5451 84.9841 60.3623 84.9482C60.0963 84.8976 59.8825 84.5731 59.6475 84.3643C59.8743 84.149 60.0734 83.8261 60.3378 83.7576C60.5173 83.712 60.7882 84.0251 61.224 84.3121Z" fill="black"/>
<path d="M58.412 42.4916C57.9485 42.7639 57.6825 43.0461 57.467 43.0134C57.232 42.9776 57.0427 42.6449 56.8354 42.4426C57.0688 42.2371 57.2794 41.9142 57.5405 41.8669C57.7282 41.8327 57.9827 42.167 58.412 42.4916Z" fill="black"/>
<path d="M73.0512 43.2631C72.6154 43.5452 72.3331 43.8665 72.1372 43.8208C71.8924 43.7638 71.7211 43.4017 71.5171 43.1734C71.739 42.9907 71.9561 42.6727 72.1813 42.6662C72.4082 42.658 72.6432 42.9646 73.0512 43.2631Z" fill="black"/>
<path d="M78.822 44.279C78.3928 44.5856 78.1137 44.9232 77.9391 44.8759C77.6829 44.8074 77.5033 44.4617 77.2896 44.2333C77.505 44.0393 77.709 43.7115 77.9407 43.6886C78.1545 43.6691 78.3993 43.9773 78.822 44.279Z" fill="black"/>
<path d="M40.9465 44.9511C40.5255 45.2463 40.2774 45.5562 40.0604 45.5366C39.8254 45.5154 39.6181 45.1859 39.3994 44.9902C39.6181 44.7603 39.8058 44.408 40.0685 44.3395C40.2448 44.2922 40.5271 44.6429 40.9465 44.9511Z" fill="black"/>
<path d="M80.7085 44.0312C81.0398 44.4341 81.3988 44.6869 81.3695 44.8809C81.3303 45.137 80.9876 45.349 80.7754 45.579C80.5698 45.3751 80.2287 45.1892 80.1977 44.9608C80.1683 44.7358 80.4506 44.47 80.7085 44.0312Z" fill="black"/>
<path d="M35.2803 46.5167C34.8609 46.8429 34.5981 47.1903 34.4251 47.1495C34.1624 47.0875 33.9649 46.7581 33.738 46.5412C33.9486 46.3341 34.1362 45.9997 34.3745 45.959C34.5785 45.9247 34.8396 46.228 35.2803 46.5167Z" fill="black"/>
<path d="M63.2169 83.386C63.5401 83.8638 63.8404 84.1117 63.8273 84.3449C63.8159 84.5684 63.4813 84.7771 63.2888 84.9908C63.0668 84.7722 62.7355 84.5847 62.6588 84.3221C62.6082 84.146 62.9167 83.8655 63.2169 83.386Z" fill="black"/>
<path d="M67.2088 42.5943C66.7812 42.8895 66.5348 43.1912 66.3096 43.1765C66.0828 43.1618 65.8788 42.8291 65.6633 42.6367C65.882 42.4214 66.0746 42.0838 66.3259 42.0316C66.5185 41.9909 66.7878 42.3089 67.2088 42.5943Z" fill="black"/>
<path d="M57.3464 83.4006C57.6679 83.8459 57.9976 84.1084 57.9584 84.2927C57.9013 84.5569 57.5781 84.7657 57.3676 84.9973C57.1473 84.7967 56.7654 84.6091 56.7475 84.3922C56.7279 84.1476 57.038 83.8785 57.3464 83.4006Z" fill="black"/>
<path d="M69.2747 43.7554C68.9434 43.3558 68.5843 43.0982 68.6219 42.9253C68.6773 42.666 69.0103 42.467 69.2257 42.2419C69.4346 42.4442 69.7757 42.6252 69.8148 42.8568C69.8508 43.0639 69.5505 43.3265 69.2747 43.7554Z" fill="black"/>
<path d="M37.2093 44.7732C37.5112 45.2315 37.8099 45.4859 37.7822 45.6963C37.7495 45.936 37.4247 46.1366 37.2273 46.3535C37.0135 46.1301 36.6855 45.9327 36.6234 45.6718C36.581 45.4908 36.9009 45.2217 37.2093 44.7732Z" fill="black"/>
<path d="M83.6495 46.6143C83.3312 46.2033 83.0081 45.9685 83.0163 45.7467C83.0244 45.5232 83.3622 45.3112 83.5565 45.0959C83.7849 45.3014 84.1342 45.4743 84.1995 45.7222C84.2468 45.9065 83.9269 46.1886 83.6495 46.6143Z" fill="black"/>
<path d="M92.8751 48.5422C92.4442 48.8276 92.1521 49.1554 91.9873 49.0999C91.7359 49.0151 91.4699 48.6906 91.4144 48.4247C91.3867 48.2894 91.7996 47.9241 92.0232 47.9143C92.2386 47.9045 92.4671 48.2225 92.8751 48.5422Z" fill="black"/>
<path d="M42.8609 45.2135C42.5851 44.7585 42.2799 44.4731 42.3305 44.279C42.3958 44.0279 42.7434 43.8501 42.9686 43.6414C43.1481 43.868 43.4631 44.0882 43.4713 44.3214C43.4778 44.5481 43.1726 44.7846 42.8609 45.2135Z" fill="black"/>
<path d="M86.4369 45.636C86.7192 46.0665 87.0146 46.3177 86.9934 46.5395C86.9706 46.7727 86.6458 46.9782 86.4548 47.1951C86.2378 46.9733 85.8967 46.776 85.8445 46.5199C85.8037 46.3291 86.1366 46.0616 86.4369 45.636Z" fill="black"/>
<path d="M60.4751 43.2843C60.1454 42.8782 59.7961 42.6271 59.8288 42.4444C59.8745 42.1933 60.1797 41.8801 60.431 41.8149C60.5779 41.7774 60.9696 42.146 61.0071 42.3727C61.0414 42.5831 60.7492 42.844 60.4751 43.2843Z" fill="black"/>
<path d="M63.2869 43.3298C63.016 42.8911 62.7239 42.6269 62.7631 42.428C62.8088 42.198 63.1466 42.0251 63.3571 41.8262C63.5677 42.0512 63.8924 42.2518 63.9495 42.5111C63.9854 42.6791 63.6264 42.9303 63.2869 43.3298Z" fill="black"/>
<path d="M52.542 42.9123C52.085 43.1814 51.819 43.4651 51.5971 43.4341C51.3669 43.4015 51.1793 43.0656 50.9736 42.8633C51.2054 42.6546 51.4143 42.3235 51.6738 42.2795C51.8647 42.2452 52.1193 42.5877 52.542 42.9123Z" fill="black"/>
<path d="M29.72 48.4624C29.3038 48.7853 29.0427 49.1278 28.8713 49.0887C28.6216 49.03 28.3197 48.7217 28.2642 48.4706C28.2316 48.3189 28.6053 47.9454 28.8321 47.9112C29.0345 47.8802 29.2875 48.177 29.72 48.4624Z" fill="black"/>
<path d="M31.6147 48.4312C31.3046 47.9713 31.0092 47.725 31.0255 47.5032C31.0419 47.2847 31.3732 47.0873 31.5657 46.8818C31.7746 47.0775 32.1174 47.2537 32.1533 47.4771C32.1875 47.6908 31.9019 47.955 31.6147 48.4312Z" fill="black"/>
<path d="M55.4582 42.622C55.0159 42.9025 54.7614 43.1944 54.541 43.17C54.3093 43.1455 54.1118 42.8177 53.8997 42.622C54.1216 42.41 54.3207 42.0756 54.5753 42.0235C54.7646 41.9859 55.029 42.3137 55.4582 42.622Z" fill="black"/>
<path d="M49.6305 43.2694C49.167 43.5532 48.8797 43.8598 48.7035 43.806C48.4456 43.7277 48.2661 43.3885 48.054 43.1618C48.2824 42.9857 48.5028 42.684 48.741 42.6676C48.9548 42.6546 49.1898 42.9547 49.6305 43.2694Z" fill="black"/>
<path d="M75.0571 44.6215C74.76 44.2056 74.463 43.9724 74.4744 43.7571C74.4859 43.5353 74.7976 43.3282 74.9787 43.1162C75.2105 43.3152 75.5663 43.4815 75.6332 43.7245C75.6838 43.9056 75.3525 44.1877 75.0571 44.6215Z" fill="black"/>
<path d="M45.7984 44.6214C45.4834 44.1794 45.1668 43.9266 45.1896 43.713C45.2125 43.4945 45.5601 43.1732 45.787 43.1552C45.9714 43.1406 46.3271 43.4896 46.35 43.7048C46.3745 43.9217 46.084 44.1745 45.7984 44.6214Z" fill="black"/>
<path d="M90.1498 47.4087C89.6977 47.7529 89.466 48.0644 89.2587 48.0497C89.0351 48.035 88.681 47.7235 88.6663 47.5213C88.6516 47.3207 88.9617 46.9668 89.182 46.9178C89.3844 46.8738 89.6585 47.1429 90.1498 47.4087Z" fill="black"/>
<path d="M62.5657 39.4939C62.5657 38.4208 62.5657 37.3493 62.5657 36.2762C62.6081 36.2746 62.6522 36.2746 62.6946 36.2729C62.6946 37.3493 62.6946 38.4273 62.6946 39.5037C62.6522 39.5005 62.6097 39.4972 62.5657 39.4939Z" fill="black"/>
<path d="M59.6346 36.2893C59.6346 37.3477 59.6346 38.4061 59.6346 39.4629C59.5922 39.4629 59.5498 39.4646 59.5073 39.4646C59.5073 38.4012 59.5073 37.3363 59.5073 36.2729C59.5498 36.2778 59.5922 36.2827 59.6346 36.2893Z" fill="black"/>
<path d="M58.737 39.8791C58.7838 39.8791 58.8218 39.1132 58.8218 38.1683C58.8218 37.2235 58.7838 36.4575 58.737 36.4575C58.6901 36.4575 58.6521 37.2235 58.6521 38.1683C58.6521 39.1132 58.6901 39.8791 58.737 39.8791Z" fill="black"/>
<path d="M58.0251 62.6231C58.0251 61.8811 58.0251 61.139 58.0251 60.397C58.0659 60.397 58.1067 60.397 58.1459 60.397C58.1459 61.1374 58.1459 61.8762 58.1459 62.6166C58.1067 62.6199 58.0659 62.6215 58.0251 62.6231Z" fill="black"/>
<path d="M59.814 82.2869C59.814 81.5432 59.814 80.7995 59.814 80.0558C59.8499 80.0542 59.8858 80.0509 59.92 80.0493C59.92 80.7897 59.92 81.5318 59.92 82.2722C59.8858 82.2755 59.8499 82.2804 59.814 82.2869Z" fill="black"/>
<path d="M61.513 80.041C61.513 80.7929 61.513 81.5447 61.513 82.2965C61.4755 82.2982 61.4379 82.2998 61.4004 82.3014C61.4004 81.5431 61.4004 80.7847 61.4004 80.0264C61.4379 80.0313 61.4755 80.0362 61.513 80.041Z" fill="black"/>
<path d="M60.377 62.6036C60.377 61.8746 60.377 61.144 60.377 60.415C60.4145 60.415 60.452 60.4133 60.4896 60.4133C60.4896 61.1423 60.4896 61.873 60.4896 62.602C60.452 62.602 60.4145 62.602 60.377 62.6036Z" fill="black"/>
<path d="M61.3287 60.4004C61.3287 61.1441 61.3287 61.8894 61.3287 62.6331C61.2928 62.6331 61.2569 62.6347 61.2209 62.6347C61.2209 61.891 61.2209 61.1457 61.2209 60.402C61.2569 60.402 61.2928 60.4004 61.3287 60.4004Z" fill="black"/>
<path d="M57.2092 62.6523C57.2092 61.8858 57.2092 61.1177 57.2092 60.3512C57.2451 60.3495 57.2794 60.3495 57.3153 60.3479C57.3153 61.1144 57.3153 61.8826 57.3153 62.6491C57.281 62.6507 57.2451 62.6523 57.2092 62.6523Z" fill="black"/>
<path d="M60.5649 82.2769C60.5649 81.5299 60.5649 80.7814 60.5649 80.0344C60.6041 80.0361 60.6433 80.0361 60.6841 80.0377C60.6841 80.7879 60.6841 81.5365 60.6841 82.2867C60.6433 82.2834 60.6041 82.2801 60.5649 82.2769Z" fill="black"/>
<path d="M63.7782 80.0623C63.7782 80.7456 63.7782 81.4273 63.7782 82.1106C63.7439 82.1123 63.7113 82.1139 63.677 82.1139C63.677 81.4306 63.677 80.7489 63.677 80.0655C63.7113 80.0655 63.7455 80.0639 63.7782 80.0623Z" fill="black"/>
<path d="M62.1672 82.2883C62.1672 81.5495 62.1672 80.8124 62.1672 80.0736C62.2064 80.0719 62.2456 80.0703 62.2864 80.0703C62.2864 80.8107 62.2864 81.5495 62.2864 82.2899C62.2472 82.2899 62.2064 82.2883 62.1672 82.2883Z" fill="black"/>
<path d="M59.1418 80.08C59.1418 80.8204 59.1418 81.5608 59.1418 82.3029C59.1043 82.3029 59.0651 82.3013 59.0276 82.3013C59.0276 81.5608 59.0276 80.8188 59.0276 80.0784C59.0651 80.0784 59.1027 80.08 59.1418 80.08Z" fill="black"/>
<path d="M59.584 62.7015C59.584 61.9317 59.584 61.162 59.584 60.3922C59.6183 60.3905 59.6509 60.3905 59.6852 60.3889C59.6852 61.1587 59.6852 61.9285 59.6852 62.6999C59.6525 62.6999 59.6183 62.6999 59.584 62.7015Z" fill="black"/>
<path d="M62.6814 62.6395C62.6814 61.9708 62.6814 61.3021 62.6814 60.6318C62.7124 60.6302 62.7418 60.6286 62.7728 60.627C62.7728 61.2972 62.7728 61.9659 62.7728 62.6362C62.7418 62.6378 62.7124 62.6378 62.6814 62.6395Z" fill="black"/>
<path d="M66.0011 37.4406C66.0011 38.0864 66.0011 38.7339 66.0011 39.3797C65.9603 39.3797 65.9195 39.3797 65.8787 39.3781C65.8787 38.729 65.8787 38.0783 65.8787 37.4292C65.9195 37.4341 65.9603 37.4374 66.0011 37.4406Z" fill="black"/>
<path d="M57.4363 82.0876C57.4363 81.4353 57.4363 80.7845 57.4363 80.1322C57.4722 80.1289 57.5081 80.1273 57.5456 80.124C57.5456 80.7813 57.5456 81.4401 57.5456 82.0974C57.5097 82.0941 57.4722 82.0909 57.4363 82.0876Z" fill="black"/>
<path d="M57.0625 39.4027C57.0625 38.7242 57.0625 38.0442 57.0625 37.3657C57.1017 37.3657 57.1408 37.3674 57.18 37.3674C57.18 38.0458 57.18 38.7242 57.18 39.4011C57.1408 39.4011 57.1017 39.4011 57.0625 39.4027Z" fill="black"/>
<path d="M56.5193 60.6138C56.5193 61.3004 56.5193 61.987 56.5193 62.6736C56.4801 62.672 56.4393 62.6704 56.4001 62.6704C56.4001 61.9756 56.4001 61.2809 56.4001 60.5845C56.4393 60.5943 56.4801 60.604 56.5193 60.6138Z" fill="black"/>
<path d="M58.1673 82.2835C58.1591 82.1596 58.146 82.0372 58.146 81.9133C58.1444 81.2985 58.1444 80.682 58.3027 80.0623C58.3027 80.7994 58.3027 81.5382 58.3027 82.2754C58.2586 82.2786 58.213 82.2803 58.1673 82.2835Z" fill="black"/>
</svg>
