<svg width="100" height="100" viewBox="0 0 100 100" fill="none" xmlns="http://www.w3.org/2000/svg">
<circle cx="50" cy="50" r="50" fill="white"/>
<path fill-rule="evenodd" clip-rule="evenodd" d="M34.647 60.0081H31.1603V70.0007H32.475V65.2327H34.647C36.3902 65.2327 37.6048 64.1908 37.6048 62.6205C37.6048 61.0502 36.3902 60.0081 34.647 60.0081ZM34.647 64.0338H32.475V61.2072H34.647C35.6327 61.2072 36.2759 61.707 36.2759 62.6205C36.2759 63.5339 35.6327 64.0338 34.647 64.0338ZM45.3781 70.0007H46.9643L43.3206 65.2185C44.8638 65.0757 45.9067 64.0765 45.9067 62.6205C45.9067 61.0502 44.6922 60.0081 42.949 60.0081H39.4625V70.0007H40.7772V65.2327H41.7915L45.3781 70.0007ZM40.7772 61.2072H42.949C43.935 61.2072 44.5779 61.707 44.5779 62.6205C44.5779 63.5339 43.935 64.0338 42.949 64.0338H40.7772V61.2072ZM48.7932 70.0007H50.1079V60.0081H48.7932V70.0007ZM52.1654 70.0007H59.81V68.8015H53.8229L59.653 60.9786V60.0081H52.7229V61.2072H57.9525L52.1654 68.9585V70.0007ZM63.1822 68.8015V65.2327H67.3978V64.0338H63.1822V61.2072H67.712V60.0081H61.8678V70.0007H67.7833V68.8015H63.1822Z" fill="black"/>
<path fill-rule="evenodd" clip-rule="evenodd" d="M34.5827 47.0657V54.6029L28.7241 47.0657H27.6953V57.0583H28.9814V49.3211L34.9541 57.0583H35.8689V47.0657H34.5827ZM42.956 57.2725C45.8281 57.2725 48.1859 54.9457 48.1859 52.062C48.1859 49.1783 45.8281 46.8516 42.956 46.8516C40.0839 46.8516 37.7263 49.1783 37.7263 52.062C37.7263 54.9457 40.0839 57.2725 42.956 57.2725ZM42.956 56.0162C40.827 56.0162 39.0693 54.2462 39.0693 52.062C39.0693 49.8779 40.827 48.1078 42.956 48.1078C45.0853 48.1078 46.8427 49.8779 46.8427 52.062C46.8427 54.2462 45.0853 56.0162 42.956 56.0162ZM54.859 51.591C55.7019 51.1913 56.2019 50.4346 56.2019 49.464C56.2019 47.9792 55.0589 47.0657 53.2156 47.0657H50.0434V57.0583H53.5299C55.3876 57.0583 56.6593 55.845 56.6593 54.075C56.6593 52.8756 55.9592 51.9905 54.859 51.591ZM53.187 48.2363C54.1586 48.2363 54.8875 48.6787 54.8875 49.6066C54.8875 50.5344 54.1159 51.1056 53.187 51.1056H51.3581V48.2363H53.187ZM53.4586 55.888H51.3581V52.2762H53.4586C54.4731 52.2762 55.3446 52.9613 55.3446 54.0891C55.3446 55.2167 54.4731 55.888 53.4586 55.888ZM60.0456 55.8592V52.2903H64.261V51.0912H60.0456V48.2648H64.5755V47.0657H58.7312V57.0583H64.6468V55.8592H60.0456ZM68.3906 55.8592V47.0657H67.0759V57.0583H72.9204V55.8592H68.3906Z" fill="black"/>
<path fill-rule="evenodd" clip-rule="evenodd" d="M55.6161 34.1208V44.1135H61.5319V42.9143H56.9308V39.3457H61.1461V38.1463H56.9308V35.32H61.4606V34.1208H55.6161ZM52.0154 34.1208V38.1463H46.4998V34.1208H45.1851V44.1135H46.4998V39.3457H52.0154V44.1135H53.3301V34.1208H52.0154ZM36.5544 34.1208V35.32H39.3552V44.1135H40.6699V35.32H43.4704V34.1208H36.5544Z" fill="black"/>
</svg>
