<svg width="120" height="120" viewBox="0 0 120 120" fill="none" xmlns="http://www.w3.org/2000/svg">
<circle cx="60" cy="60" r="60" fill="#F9F9F9"/>
<path fill-rule="evenodd" clip-rule="evenodd" d="M41.5764 72.0088H37.3923V83.9999H38.97V78.2783H41.5764C43.6682 78.2783 45.1257 77.0281 45.1257 75.1437C45.1257 73.2594 43.6682 72.0088 41.5764 72.0088ZM41.5764 76.8396H38.97V73.4478H41.5764C42.7593 73.4478 43.5311 74.0476 43.5311 75.1437C43.5311 76.2398 42.7593 76.8396 41.5764 76.8396ZM54.4537 83.9999H56.3572L51.9847 78.2613C53.8366 78.0899 55.0881 76.8909 55.0881 75.1437C55.0881 73.2594 53.6306 72.0088 51.5387 72.0088H47.355V83.9999H48.9326V78.2783H50.1498L54.4537 83.9999ZM48.9326 73.4478H51.5387C52.722 73.4478 53.4935 74.0476 53.4935 75.1437C53.4935 76.2398 52.722 76.8396 51.5387 76.8396H48.9326V73.4478ZM58.5519 83.9999H60.1295V72.0088H58.5519V83.9999ZM62.5985 83.9999H71.772V82.5609H64.5875L71.5836 73.1735V72.0088H63.2674V73.4478H69.543L62.5985 82.7494V83.9999ZM75.8186 82.5609V78.2783H80.8773V76.8396H75.8186V73.4478H81.2544V72.0088H74.2413V83.9999H81.34V82.5609H75.8186Z" fill="black"/>
<path fill-rule="evenodd" clip-rule="evenodd" d="M41.4993 56.4774V65.522L34.4689 56.4774H33.2344V68.4686H34.7777V59.184L41.945 68.4686H43.0426V56.4774H41.4993ZM51.5472 68.7255C54.9937 68.7255 57.8231 65.9334 57.8231 62.473C57.8231 59.0125 54.9937 56.2205 51.5472 56.2205C48.1007 56.2205 45.2716 59.0125 45.2716 62.473C45.2716 65.9334 48.1007 68.7255 51.5472 68.7255ZM51.5472 67.218C48.9924 67.218 46.8832 65.094 46.8832 62.473C46.8832 59.852 48.9924 57.728 51.5472 57.728C54.1023 57.728 56.2112 59.852 56.2112 62.473C56.2112 65.094 54.1023 67.218 51.5472 67.218ZM65.8307 61.9078C66.8422 61.4281 67.4423 60.5201 67.4423 59.3554C67.4423 57.5736 66.0707 56.4774 63.8587 56.4774H60.0521V68.4686H64.2358C66.4651 68.4686 67.9912 67.0126 67.9912 64.8886C67.9912 63.4493 67.1511 62.3871 65.8307 61.9078ZM63.8244 57.8821C64.9904 57.8821 65.865 58.413 65.865 59.5265C65.865 60.6399 64.9391 61.3253 63.8244 61.3253H61.6297V57.8821H63.8244ZM64.1503 67.0642H61.6297V62.73H64.1503C65.3678 62.73 66.4136 63.5521 66.4136 64.9056C66.4136 66.2587 65.3678 67.0642 64.1503 67.0642ZM72.0548 67.0296V62.747H77.1132V61.308H72.0548V57.9164H77.4906V56.4774H70.4774V68.4686H77.5761V67.0296H72.0548ZM82.0687 67.0296V56.4774H80.4911V68.4686H87.5045V67.0296H82.0687Z" fill="black"/>
<path fill-rule="evenodd" clip-rule="evenodd" d="M66.7392 40.9458V52.9369H73.8382V51.498H68.3168V47.2156H73.3752V45.7764H68.3168V42.3848H73.7526V40.9458H66.7392ZM62.4184 40.9458V45.7764H55.7996V40.9458H54.222V52.9369H55.7996V47.2156H62.4184V52.9369H63.996V40.9458H62.4184ZM43.8652 40.9458V42.3848H47.2262V52.9369H48.8038V42.3848H52.1644V40.9458H43.8652Z" fill="black"/>
</svg>
