<svg width="120" height="120" viewBox="0 0 120 120" fill="none" xmlns="http://www.w3.org/2000/svg">
<circle cx="60" cy="60" r="60" fill="#F9F9F9"/>
<path d="M69.8571 58.062H79.6956V67.9007H69.8571V58.062ZM63.8944 73.8634C63.8944 76.8448 64.4907 78.9318 65.3851 79.8262C66.2795 80.7206 67.472 81.0187 69.2608 81.3169H71.944V84H48.3912V81.3169C50.1801 81.3169 51.6707 81.3168 52.5651 81.0186C54.354 80.7205 55.5465 79.528 56.1428 77.7392C56.4409 76.8448 56.441 75.354 56.441 73.5652V38.3851C52.5652 38.3851 49.2857 39.8757 47.1987 42.2608C45.1117 44.6459 43.621 48.2236 43.3229 53.2919L40.6396 52.9939L41.236 36H79.3975L79.9938 52.9939L77.3106 53.2919C76.7143 48.2236 75.5217 44.6459 73.4347 42.2608C71.0496 39.8757 68.0683 38.3851 63.8944 38.3851V73.8634ZM40.6396 58.062H50.4782V67.9007H40.6396V58.062Z" fill="black"/>
</svg>
