<svg width="100" height="100" viewBox="0 0 100 100" fill="none" xmlns="http://www.w3.org/2000/svg">
<circle cx="50" cy="50" r="50" fill="white"/>
<path d="M55.6516 49.3287H61.5955V55.2727H55.6516V49.3287ZM52.0493 58.875C52.0493 60.6762 52.4095 61.937 52.9499 62.4774C53.4902 63.0178 54.2107 63.1979 55.2914 63.378H56.9124V64.999H42.6831V63.378C43.7638 63.378 44.6644 63.3779 45.2047 63.1978C46.2855 63.0177 47.0059 62.2973 47.3662 61.2166C47.5463 60.6762 47.5463 59.7756 47.5463 58.6949V37.4409C45.2048 37.4409 43.2235 38.3415 41.9626 39.7824C40.7018 41.2234 39.8012 43.3848 39.6211 46.4468L38 46.2668L38.3603 36H61.4154L61.7757 46.2668L60.1546 46.4468C59.7944 43.3848 59.0739 41.2234 57.813 39.7824C56.3721 38.3415 54.5709 37.4409 52.0493 37.4409V58.875ZM38 49.3287H43.9439V55.2727H38V49.3287Z" fill="black"/>
</svg>
