<svg width="120" height="120" viewBox="0 0 120 120" fill="none" xmlns="http://www.w3.org/2000/svg">
<circle cx="60" cy="60" r="60" fill="#F9F9F9"/>
<path d="M37.2373 49.4382C39.7949 49.4382 42.1812 48.1675 43.7964 46.0904C45.4117 48.1675 47.798 49.4382 50.3556 49.4382C52.9131 49.4382 55.2995 48.1675 56.9149 46.0904C58.5303 48.1675 60.9166 49.4382 63.4741 49.4382C66.0317 49.4382 68.418 48.1675 70.0333 46.0904C71.6487 48.1675 74.035 49.4382 76.5926 49.4382C79.1501 49.4382 81.5364 48.1675 83.1517 46.0904C84.7671 48.1675 87.1533 49.4382 89.7108 49.4382C93.3899 49.4382 96.106 47.3868 97.3587 43.6618C97.6524 42.7882 97.1872 41.8402 96.3195 41.5444C95.4519 41.2482 94.5102 41.7171 94.2165 42.5906C93.4226 44.9508 91.9489 46.0983 89.7106 46.0983C87.5417 46.0983 85.5488 44.5051 84.7513 42.1341C84.5169 41.437 83.8699 40.9993 83.1772 41.0007C83.1678 41.0003 83.1583 41.0002 83.1489 41C83.1426 41.0002 83.1364 41.0003 83.1303 41.0005C82.436 40.9972 81.7864 41.4355 81.5514 42.1342C80.7539 44.5053 78.761 46.0984 76.5922 46.0984C74.4233 46.0984 72.4304 44.5053 71.6329 42.1342C71.3985 41.437 70.7515 40.9993 70.0588 41.0008C70.0494 41.0005 70.0399 41.0003 70.0306 41.0002C70.0245 41.0003 70.0183 41.0005 70.012 41.0007C69.3175 40.9972 68.668 41.4357 68.4331 42.1344C67.6356 44.5054 65.6427 46.0986 63.474 46.0986C61.3051 46.0986 59.3122 44.5054 58.5147 42.1344C58.2801 41.4374 57.6332 40.9995 56.9406 41.001C56.9311 41.0007 56.9217 41.0005 56.9124 41.0003C56.9062 41.0005 56.9001 41.0007 56.8938 41.0008C56.1993 40.9973 55.5498 41.4359 55.3149 42.1346C54.5174 44.5056 52.5245 46.0988 50.3556 46.0988C48.1867 46.0988 46.1937 44.5056 45.3964 42.1346C45.162 41.4375 44.515 40.9998 43.8223 41.0012C43.8129 41.0008 43.8034 41.0007 43.7941 41.0005C43.788 41.0007 43.7818 41.0008 43.7755 41.001C43.081 40.9975 42.4317 41.436 42.1966 42.1347C41.3991 44.5058 39.4062 46.0989 37.2373 46.0989C34.9991 46.0989 33.5253 44.9515 32.7315 42.5913C32.4377 41.7179 31.4963 41.249 30.6284 41.5451C29.7608 41.8408 29.2955 42.7887 29.5893 43.6624C30.8421 47.3868 33.5582 49.4382 37.2373 49.4382Z" fill="#AAC8F8"/>
<path d="M37.2959 60.8536C38.9113 62.9307 41.2975 64.2014 43.855 64.2014C46.4125 64.2014 48.7989 62.9307 50.4141 60.8536C52.0295 62.9307 54.4157 64.2014 56.9733 64.2014C59.5308 64.2014 61.9171 62.9307 63.5324 60.8536C65.1478 62.9307 67.534 64.2014 70.0915 64.2014C72.649 64.2014 75.0354 62.9307 76.6506 60.8536C78.266 62.9307 80.6522 64.2014 83.2098 64.2014C86.8889 64.2014 89.605 62.1498 90.8576 58.425C91.1514 57.5514 90.6861 56.6033 89.8185 56.3076C88.9507 56.0113 88.0092 56.4803 87.7154 57.3538C86.9216 59.7142 85.4478 60.8614 83.2096 60.8614C81.0407 60.8614 79.0478 59.2683 78.2503 56.8973C78.0157 56.2002 77.3687 55.7625 76.676 55.7639C76.6666 55.7635 76.6571 55.7634 76.6478 55.7632C76.6417 55.7634 76.6355 55.7635 76.6294 55.7637C75.9347 55.7602 75.2855 56.1987 75.0505 56.8974C74.253 59.2686 72.2601 60.8616 70.0912 60.8616C67.9223 60.8616 65.9294 59.2685 65.1319 56.8974C64.8975 56.2004 64.2506 55.7627 63.5578 55.764C63.5483 55.7637 63.5389 55.7635 63.5296 55.7633C63.5234 55.7635 63.5173 55.7637 63.5112 55.7639C62.8167 55.7603 62.1671 56.1989 61.9322 56.8976C61.1347 59.2688 59.1418 60.8618 56.9729 60.8618C54.804 60.8618 52.8111 59.2686 52.0136 56.8976C51.7792 56.2005 51.1322 55.7628 50.4395 55.7642C50.4301 55.7639 50.4206 55.7637 50.4112 55.7635C50.405 55.7637 50.3989 55.7638 50.3927 55.764C49.6982 55.7605 49.0489 56.199 48.8138 56.8978C48.0163 59.269 46.0234 60.8619 43.8545 60.8619C41.6856 60.8619 39.6927 59.2688 38.8952 56.8978C38.6608 56.2007 38.0138 55.763 37.3211 55.7644C37.3116 55.764 37.3022 55.7639 37.2927 55.7637C37.2866 55.7639 37.2805 55.764 37.2743 55.7642C36.5798 55.7607 35.9305 56.1992 35.6954 56.8979C34.8979 59.2691 32.905 60.8621 30.7361 60.8621C28.4979 60.8621 27.0241 59.7147 26.2303 57.3545C25.9365 56.4811 24.995 56.0125 24.1272 56.3083C23.2596 56.604 22.7943 57.5519 23.088 58.4256C24.3407 62.1507 27.0568 64.2021 30.7359 64.2021C33.2943 64.2014 35.6807 62.9307 37.2959 60.8536Z" fill="#AAC8F8"/>
<path d="M96.3195 71.0709C95.4519 70.775 94.5102 71.2436 94.2165 72.1172C93.4226 74.4774 91.9489 75.6248 89.7106 75.6248C87.5417 75.6248 85.5488 74.0316 84.7513 71.6606C84.5168 70.9634 83.8694 70.5255 83.1766 70.527C83.1674 70.5267 83.1585 70.5265 83.1495 70.5264C83.1429 70.5265 83.1364 70.5267 83.1298 70.5269C82.4355 70.5237 81.7864 70.9621 81.5516 71.6606C80.7541 74.0318 78.7611 75.6248 76.5924 75.6248C74.4235 75.6248 72.4306 74.0316 71.6331 71.6606C71.3985 70.9632 70.7513 70.5254 70.0582 70.527C70.0492 70.5267 70.0402 70.5265 70.0313 70.5264C70.0248 70.5265 70.0182 70.5267 70.0117 70.5269C69.3174 70.5235 68.6682 70.9621 68.4333 71.6606C67.6358 74.0318 65.6429 75.6248 63.4741 75.6248C61.3052 75.6248 59.3123 74.0316 58.5148 71.6606C58.2803 70.9632 57.6329 70.5254 56.9399 70.527C56.9309 70.5267 56.922 70.5265 56.913 70.5264C56.9066 70.5265 56.8999 70.5267 56.8935 70.5269C56.199 70.5235 55.5499 70.9621 55.3151 71.6606C54.5176 74.0318 52.5246 75.6248 50.3557 75.6248C48.1868 75.6248 46.1939 74.0316 45.3966 71.6606C45.162 70.9632 44.5147 70.5254 43.8217 70.527C43.8127 70.5267 43.8037 70.5265 43.7946 70.5264C43.7882 70.5265 43.7815 70.5267 43.775 70.5269C43.0806 70.5235 42.4315 70.9621 42.1966 71.6606C41.3991 74.0318 39.4062 75.6248 37.2373 75.6248C34.9991 75.6248 33.5253 74.4774 32.7315 72.1172C32.4377 71.2438 31.4963 70.7752 30.6284 71.0709C29.7608 71.3667 29.2955 72.3146 29.5893 73.1883C30.8419 76.9133 33.558 78.9647 37.2372 78.9647C39.7947 78.9647 42.181 77.6941 43.7964 75.6168C45.4117 77.6941 47.798 78.9647 50.3556 78.9647C52.9131 78.9647 55.2995 77.6941 56.9149 75.6168C58.5303 77.6941 60.9166 78.9647 63.4741 78.9647C66.0317 78.9647 68.418 77.6941 70.0333 75.6168C71.6487 77.6941 74.035 78.9647 76.5926 78.9647C79.1501 78.9647 81.5365 77.6941 83.1517 75.6168C84.7671 77.6941 87.1534 78.9647 89.711 78.9647C93.3901 78.9647 96.1062 76.9133 97.3589 73.1883C97.6525 72.3146 97.1872 71.3667 96.3195 71.0709Z" fill="#AAC8F8"/>
</svg>
