<svg width="100" height="100" viewBox="0 0 100 100" fill="none" xmlns="http://www.w3.org/2000/svg">
<circle cx="50" cy="50" r="50" fill="white"/>
<path d="M26 42.9999L28.7438 44.6063C30.5049 45.6374 32.7285 45.4244 34.2619 44.0778L34.5403 43.8332C36.1687 42.4032 38.6054 42.4032 40.2338 43.8333V43.8333C41.8623 45.2633 44.2989 45.2633 45.9274 43.8333V43.8333C47.5558 42.4032 49.9924 42.4032 51.6209 43.8333V43.8333C53.2493 45.2633 55.686 45.2633 57.3144 43.8333L57.4647 43.7012C59.0454 42.3131 61.3725 42.1921 63.0887 43.4087L66.0384 45.4999" stroke="#17BAFF" stroke-width="4" stroke-linecap="round" stroke-linejoin="bevel"/>
<path d="M26 65.6667L28.7438 67.273C30.5049 68.3041 32.7285 68.0911 34.2619 66.7445L34.5403 66.5C36.1687 65.0699 38.6054 65.0699 40.2338 66.5V66.5C41.8623 67.9301 44.2989 67.9301 45.9274 66.5V66.5C47.5558 65.0699 49.9924 65.0699 51.6209 66.5V66.5C53.2493 67.9301 55.686 67.9301 57.3144 66.5L57.4647 66.368C59.0454 64.9798 61.3725 64.8588 63.0887 66.0755L66.0384 68.1667" stroke="#17BAFF" stroke-width="4" stroke-linecap="round" stroke-linejoin="bevel"/>
<path d="M33.5 54.6665L36.2438 56.2729C38.0049 57.304 40.2285 57.091 41.7619 55.7444L42.0403 55.4998C43.6687 54.0698 46.1054 54.0698 47.7338 55.4999C49.3623 56.9299 51.7989 56.9299 53.4274 55.4999C55.0558 54.0698 57.4924 54.0698 59.1209 55.4999C60.7493 56.9299 63.186 56.9299 64.8144 55.4999L64.9817 55.3529C66.5565 53.97 68.8703 53.8361 70.5941 55.0283L73.0833 56.7499" stroke="black" stroke-width="4" stroke-linecap="round" stroke-linejoin="bevel"/>
<path d="M33.5 31.4492L36.2438 33.0556C38.0049 34.0867 40.2285 33.8737 41.7619 32.5271L42.0403 32.2826C43.6687 30.8525 46.1054 30.8525 47.7338 32.2826C49.3623 33.7127 51.7989 33.7127 53.4274 32.2826C55.0558 30.8525 57.4924 30.8525 59.1209 32.2826C60.7493 33.7127 63.186 33.7127 64.8144 32.2826L64.9817 32.1356C66.5565 30.7527 68.8703 30.6188 70.5941 31.811L73.0833 33.5326" stroke="black" stroke-width="4" stroke-linecap="round" stroke-linejoin="bevel"/>
</svg>
