<svg width="68" height="68" viewBox="0 0 68 68" fill="none" xmlns="http://www.w3.org/2000/svg">
<path d="M52.4363 21.7226C52.4363 11.3445 44.2457 2.83325 34.0226 2.83325C23.7996 2.83325 15.609 11.3445 15.609 21.7226C15.609 24.4791 16.3167 27.094 17.3431 29.5058C18.3871 31.959 18.675 34.6132 18.1656 36.5958C17.9163 37.566 17.4948 38.3115 16.9471 38.8336C16.4149 39.3411 15.6671 39.7314 14.5791 39.8553C12.9546 40.0403 11.3004 40.0096 9.65633 39.7528L8.60309 39.5883C4.94139 39.0165 2.10305 42.4738 3.00279 45.929C3.50587 47.8609 5.08829 49.3481 7.08344 49.6597L8.23388 49.8393C12.7734 50.5482 17.365 50.1389 21.6487 48.7032C21.7189 48.6797 21.7891 48.6783 21.8624 48.6978C21.8693 48.6996 21.876 48.7015 21.8825 48.7036C19.8212 51.4592 17.2094 53.6146 13.9295 54.9353L12.9374 55.3347C9.56401 56.693 8.72147 61.0836 11.2195 63.654C12.6224 65.0975 14.7467 65.5646 16.6233 64.809L17.7069 64.3727C24.89 61.4804 30.6495 55.7855 33.7422 48.5529L34.2886 47.275L34.835 48.5529C37.9277 55.7855 43.6872 61.4804 50.8703 64.3727L51.9539 64.809C53.8305 65.5646 55.9548 65.0975 57.3577 63.654C59.8557 61.0836 59.0132 56.693 55.6398 55.3347L54.6477 54.9353C51.4613 53.6523 48.8362 51.553 46.7787 48.8692C46.8215 48.8658 46.866 48.8704 46.913 48.8851C51.0351 50.1725 55.4244 50.5173 59.7661 49.8394L60.9165 49.6597C62.9117 49.3481 64.4941 47.8609 64.9972 45.929C65.8969 42.4738 63.0586 39.0165 59.3969 39.5883L58.3436 39.7528C56.7239 40.0058 55.0942 40.0393 53.4929 39.8634C52.4009 39.7434 51.6508 39.3544 51.117 38.8477C50.5675 38.3261 50.1439 37.5795 49.8928 36.6063C49.3796 34.6175 49.6661 31.9521 50.7106 29.4895C51.7326 27.0798 52.4363 24.4691 52.4363 21.7226ZM22.0538 48.8108C22.0538 48.8108 22.0533 48.8101 22.0523 48.8087C22.0534 48.81 22.0538 48.8107 22.0538 48.8108Z" stroke="black" stroke-width="4"/>
</svg>
