<svg width="100" height="100" viewBox="0 0 100 100" fill="none" xmlns="http://www.w3.org/2000/svg">
<circle cx="50" cy="50" r="50" fill="white"/>
<path d="M50.1673 67.0756C40.9259 67.0756 33.3275 59.4087 33.3275 50.1673C33.3275 48.2506 33.6697 46.4023 34.2858 44.6225L44.1433 63.7898C44.2802 64.0636 44.4171 64.269 44.7594 64.269C45.1017 64.269 45.2386 64.0636 45.3755 63.7898L49.9619 53.59C50.0304 53.4531 50.0989 53.3847 50.1673 53.3847C50.3042 53.3847 50.3042 53.5216 50.3727 53.59L55.0276 63.7898C55.1645 64.0636 55.3014 64.269 55.6437 64.269C55.986 64.269 56.1229 64.0636 56.2598 63.7898L66.1173 44.6225C66.7333 46.3339 67.0756 48.1821 67.0756 50.1673C67.0072 59.4087 59.4087 67.0756 50.1673 67.0756V67.0756ZM50.1673 45.7862C50.0304 45.7862 50.0304 45.6493 49.9619 45.5808L44.6909 34.2174C46.4023 33.6013 48.2506 33.259 50.1673 33.259C52.084 33.259 53.9323 33.6013 55.6437 34.2174L50.3727 45.5808C50.3042 45.6493 50.3042 45.7862 50.1673 45.7862ZM44.6225 58.1081C44.4856 58.1081 44.4856 57.9711 44.4171 57.9027L35.7918 41.3367C37.2978 38.8723 39.4884 36.8186 42.0212 35.3811L48.1137 48.5244C48.2506 48.7982 48.3875 48.8667 48.5929 48.8667H51.7418C51.9471 48.8667 52.084 48.7982 52.221 48.5244L58.245 35.3811C60.7778 36.8186 62.9683 38.8723 64.4743 41.3367L55.9175 57.9027C55.8491 58.0396 55.7806 58.1081 55.7121 58.1081C55.5752 58.1081 55.5752 57.9711 55.5068 57.9027L52.221 50.6465C52.084 50.3727 51.9471 50.3042 51.7418 50.3042H48.5929C48.3875 50.3042 48.2506 50.3727 48.1137 50.6465L44.8278 57.9027C44.7594 57.9711 44.7594 58.1081 44.6225 58.1081V58.1081ZM50.1673 69.3346C60.7778 69.3346 69.3346 60.7778 69.3346 50.1673C69.3346 39.5568 60.7778 31 50.1673 31C39.5568 31 31 39.5568 31 50.1673C31 60.7778 39.5568 69.3346 50.1673 69.3346Z" fill="black"/>
</svg>
