<svg width="120" height="120" viewBox="0 0 120 120" fill="none" xmlns="http://www.w3.org/2000/svg">
<circle cx="60" cy="60" r="60" fill="#F9F9F9"/>
<path d="M60 84.7C46.5 84.7 35.4 73.5 35.4 60C35.4 57.2 35.9 54.5 36.8 51.9L51.2 79.9C51.4 80.3 51.6 80.6 52.1 80.6C52.6 80.6 52.8 80.3 53 79.9L59.7 65C59.8 64.8 59.9 64.7 60 64.7C60.2 64.7 60.2 64.9 60.3 65L67.1 79.9C67.3 80.3 67.5 80.6 68 80.6C68.5 80.6 68.7 80.3 68.9 79.9L83.3 51.9C84.2 54.4 84.7 57.1 84.7 60C84.6 73.5 73.5 84.7 60 84.7V84.7ZM60 53.6C59.8 53.6 59.8 53.4 59.7 53.3L52 36.7C54.5 35.8 57.2 35.3 60 35.3C62.8 35.3 65.5 35.8 68 36.7L60.3 53.3C60.2 53.4 60.2 53.6 60 53.6ZM51.9 71.6C51.7 71.6 51.7 71.4 51.6 71.3L39 47.1C41.2 43.5 44.4 40.5 48.1 38.4L57 57.6C57.2 58 57.4 58.1 57.7 58.1H62.3C62.6 58.1 62.8 58 63 57.6L71.8 38.4C75.5 40.5 78.7 43.5 80.9 47.1L68.4 71.3C68.3 71.5 68.2 71.6 68.1 71.6C67.9 71.6 67.9 71.4 67.8 71.3L63 60.7C62.8 60.3 62.6 60.2 62.3 60.2H57.7C57.4 60.2 57.2 60.3 57 60.7L52.2 71.3C52.1 71.4 52.1 71.6 51.9 71.6V71.6ZM60 88C75.5 88 88 75.5 88 60C88 44.5 75.5 32 60 32C44.5 32 32 44.5 32 60C32 75.5 44.5 88 60 88Z" fill="black"/>
</svg>
