<svg width="100" height="100" viewBox="0 0 100 100" fill="none" xmlns="http://www.w3.org/2000/svg">
<circle cx="50" cy="50" r="50" fill="white"/>
<mask id="path-2-outside-1" maskUnits="userSpaceOnUse" x="17.9978" y="26.2104" width="65" height="56" fill="black">
<rect fill="white" x="17.9978" y="26.2104" width="65" height="56"/>
<path d="M78.3334 45.433V32.0952C78.3334 31.4812 77.7183 31.0554 77.1408 31.2641C70.0951 33.8102 70.0787 43.8405 77.1665 46.267C77.7385 46.4628 78.3334 46.0377 78.3334 45.433Z"/>
<path d="M25.8312 57.0831H35.1939C36.9093 57.0831 37.8287 55.0652 36.7031 53.7708L33.8088 50.4424C32.3677 48.7851 32.4544 46.2954 34.0074 44.7425L34.4442 44.3057C37.7842 40.9656 42.0966 38.7696 46.7623 38.033C52.4964 37.1276 58.337 37.1276 64.0711 38.033L69.1689 38.8379C70.1299 38.9896 70.5997 40.0955 70.0418 40.8925L69.6301 41.4807C66.8552 45.4448 64.9869 49.9711 64.1578 54.7384L64.0295 55.4763C63.8435 56.5455 63.75 57.6288 63.75 58.7141C63.75 69.6575 54.6639 78.4133 43.728 78.0083L41.9525 77.9425C41.4848 77.9252 41.019 77.8739 40.5587 77.7891L39.9928 77.6849C31.2508 76.0745 24.4635 69.1447 23.0353 60.371C22.7547 58.6476 24.0851 57.0831 25.8312 57.0831Z"/>
</mask>
<path d="M77.1665 46.267L78.462 42.4826L78.462 42.4826L77.1665 46.267ZM77.1408 31.2641L78.5002 35.026L78.5002 35.026L77.1408 31.2641ZM34.0074 44.7425L36.8358 47.5709L36.8358 47.5709L34.0074 44.7425ZM33.8088 50.4424L36.8272 47.8177L36.8272 47.8177L33.8088 50.4424ZM36.7031 53.7708L33.6846 56.3955L33.6846 56.3955L36.7031 53.7708ZM39.9928 77.6849L39.2682 81.6187L39.2682 81.6187L39.9928 77.6849ZM40.5587 77.7891L41.2834 73.8553L41.2834 73.8553L40.5587 77.7891ZM41.9525 77.9425L41.8045 81.9397L41.8045 81.9397L41.9525 77.9425ZM43.728 78.0083L43.58 82.0055L43.58 82.0055L43.728 78.0083ZM64.0295 55.4763L60.0886 54.791L60.0886 54.791L64.0295 55.4763ZM64.1578 54.7384L60.217 54.0531L60.217 54.0531L64.1578 54.7384ZM69.6301 41.4807L72.907 43.7745L72.907 43.7745L69.6301 41.4807ZM70.0418 40.8925L66.7649 38.5987L66.7649 38.5987L70.0418 40.8925ZM69.1689 38.8379L68.5451 42.7889L68.5451 42.7889L69.1689 38.8379ZM64.0711 38.033L63.4472 41.984L63.4472 41.984L64.0711 38.033ZM46.7623 38.033L46.1385 34.0819L46.7623 38.033ZM23.0353 60.371L26.9833 59.7283L26.9833 59.7283L23.0353 60.371ZM74.3334 32.0952V45.433H82.3334V32.0952H74.3334ZM78.462 42.4826C75.0709 41.3217 74.8846 36.3326 78.5002 35.026L75.7814 27.5022C65.3056 31.2877 65.0865 46.3594 75.8709 50.0514L78.462 42.4826ZM74.3334 45.433C74.3334 43.2938 76.4381 41.7897 78.462 42.4826L75.8709 50.0514C79.0389 51.1359 82.3334 48.7815 82.3334 45.433H74.3334ZM82.3334 32.0952C82.3334 28.6673 78.9272 26.3654 75.7814 27.5022L78.5002 35.026C76.5093 35.7455 74.3334 34.2951 74.3334 32.0952H82.3334ZM35.1939 53.0831H25.8312V61.0831H35.1939V53.0831ZM31.6158 41.4772L31.179 41.914L36.8358 47.5709L37.2726 47.1341L31.6158 41.4772ZM30.7904 53.0671L33.6846 56.3955L39.7215 51.1461L36.8272 47.8177L30.7904 53.0671ZM39.2682 81.6187L39.8341 81.7229L41.2834 73.8553L40.7175 73.7511L39.2682 81.6187ZM41.8045 81.9397L43.58 82.0055L43.8761 74.011L42.1006 73.9452L41.8045 81.9397ZM67.9703 56.1617L68.0987 55.4238L60.217 54.0531L60.0886 54.791L67.9703 56.1617ZM72.907 43.7745L73.3187 43.1864L66.7649 38.5987L66.3532 39.1868L72.907 43.7745ZM69.7928 34.8868L64.6949 34.0819L63.4472 41.984L68.5451 42.7889L69.7928 34.8868ZM64.6949 34.0819C58.5475 33.1113 52.2859 33.1113 46.1385 34.0819L47.3862 41.984C52.7069 41.1439 58.1265 41.1439 63.4472 41.984L64.6949 34.0819ZM68.0987 55.4238C68.8272 51.2349 70.4688 47.2577 72.907 43.7745L66.3532 39.1868C63.2416 43.6319 61.1466 48.7074 60.217 54.0531L68.0987 55.4238ZM43.58 82.0055C56.7815 82.4945 67.75 71.9247 67.75 58.7141H59.75C59.75 67.3903 52.5464 74.3321 43.8761 74.011L43.58 82.0055ZM19.0873 61.0137C20.787 71.4551 28.8644 79.7022 39.2682 81.6187L40.7175 73.7511C33.6372 72.4468 28.1401 66.8342 26.9833 59.7283L19.0873 61.0137ZM31.179 41.914C28.1403 44.9527 27.9706 49.8243 30.7904 53.0671L36.8272 47.8177C36.7648 47.7459 36.7686 47.6381 36.8358 47.5709L31.179 41.914ZM67.75 58.7141C67.75 57.8585 67.8237 57.0046 67.9703 56.1617L60.0886 54.791C59.8633 56.0865 59.75 57.3991 59.75 58.7141H67.75ZM39.8341 81.7229C40.4848 81.8428 41.1433 81.9153 41.8045 81.9397L42.1006 73.9452C41.8263 73.9351 41.5532 73.905 41.2834 73.8553L39.8341 81.7229ZM25.8312 53.0831C21.6194 53.0831 18.4105 56.8567 19.0873 61.0137L26.9833 59.7283C27.0989 60.4385 26.5507 61.0831 25.8312 61.0831V53.0831ZM35.1939 61.0831C40.3401 61.0831 43.0983 55.0295 39.7215 51.1461L33.6846 56.3955C32.559 55.101 33.4785 53.0831 35.1939 53.0831V61.0831ZM37.2726 47.1341C40.0149 44.3918 43.5555 42.5889 47.3862 41.984L46.1385 34.0819C40.6377 34.9504 35.5536 37.5394 31.6158 41.4772L37.2726 47.1341ZM73.3187 43.1864C75.5723 39.967 73.6744 35.4997 69.7928 34.8868L68.5451 42.7889C66.5853 42.4795 65.6271 40.2241 66.7649 38.5987L73.3187 43.1864Z" fill="black" mask="url(#path-2-outside-1)"/>
<path d="M73.5001 54.1324C73.7696 53.5141 73.7093 52.8017 73.3397 52.2374C72.9702 51.6732 72.3411 51.3333 71.6667 51.3333L64.569 51.3333C59.5603 51.3333 55.5 55.3936 55.5 60.4023C55.5 68.3176 66.3324 70.5759 69.4952 63.3199L73.5001 54.1324Z" fill="white" stroke="#17BAFF" stroke-width="4" stroke-linecap="round" stroke-linejoin="round"/>
<circle cx="45.4167" cy="46.2498" r="2.08333" fill="black"/>
<path d="M45.8334 37.4999V27.4608C45.8334 26.1552 45.2991 24.9066 44.3547 24.0051L43.7171 23.3965C39.8246 19.6809 33.656 19.8278 29.9448 23.7246C28.9104 24.8107 28.3334 26.2532 28.3334 27.7531V28.7499" stroke="#17BAFF" stroke-width="4" stroke-linecap="round" stroke-linejoin="round"/>
<circle cx="26.0519" cy="32.0518" r="4.15797" transform="rotate(45 26.0519 32.0518)" fill="white" stroke="#17BAFF" stroke-width="4"/>
</svg>
