<svg width="120" height="120" viewBox="0 0 120 120" fill="none" xmlns="http://www.w3.org/2000/svg">
<circle cx="60" cy="60" r="60" fill="#004CC5"/>
<path d="M92.5521 34.9667C86.9354 34.9667 82.3813 39.4133 81.9259 44.9333H54.6015V38.0333C54.6015 30.8267 48.833 25 41.6983 25C35.8539 25 30.9203 28.91 29.3264 34.2767C26.8975 34.7367 25 36.96 25 39.5667C25 42.5567 27.3529 44.9333 30.3131 44.9333C33.2732 44.9333 35.6262 42.5567 35.6262 39.5667C35.6262 37.3433 34.3359 35.5033 32.4383 34.66C33.8045 30.8267 37.4478 28.0667 41.6983 28.0667C47.1632 28.0667 51.5654 32.5133 51.5654 38.0333V44.9333H50.8064C44.3548 44.9333 38.3586 48.3833 35.0949 54.0567C34.0322 55.82 34.3359 58.12 35.8539 59.5767L42.6091 66.4H29.7818C28.4915 66.4 27.2011 67.0133 26.3662 68.01C25.4554 69.0067 25.0759 70.3867 25.3036 71.7667C27.1252 84.4933 38.1309 94 50.8823 94C51.4895 94 52.0967 94 52.704 93.9233C61.8121 93.2333 69.554 87.7133 73.5768 79.8933C77.7514 77.7467 80.9392 73.8367 82.1536 69.0833C82.5331 67.7033 82.2295 66.2467 81.3187 65.0967C80.4838 63.9467 79.1935 63.3333 77.7514 63.3333H76.9923C77.3719 61.34 78.1309 59.4233 79.0417 57.5833L82.609 51.0667C84.1271 55.0533 87.998 57.9667 92.4762 57.9667C93.3111 57.9667 93.9942 57.2767 93.9942 56.4333V36.5C94.0701 35.6567 93.387 34.9667 92.5521 34.9667ZM32.5901 39.5667C32.5901 40.7933 31.6034 41.8667 30.3131 41.8667C29.0228 41.8667 28.036 40.7933 28.036 39.5667C28.036 38.2633 29.0228 37.2667 30.3131 37.2667C31.6034 37.2667 32.5901 38.2633 32.5901 39.5667ZM77.7514 66.4C78.2068 66.4 78.6622 66.63 78.9658 67.0133C79.2694 67.3967 79.3453 67.8567 79.2694 68.3933C78.055 73.2233 74.2599 77.0567 69.4781 78.2833C69.0227 78.36 68.5673 78.2833 68.1119 77.9767C67.6565 77.67 67.5047 77.21 67.5047 76.75V67.9333C67.5047 67.09 68.1878 66.4 69.0227 66.4H77.7514ZM76.461 56.1267C75.2466 58.35 74.4117 60.8033 73.9563 63.3333H69.0227C66.518 63.3333 64.4686 65.4033 64.4686 67.9333V76.75C64.4686 78.2067 65.0759 79.51 66.2144 80.3533C67.0493 80.9667 67.9601 81.35 69.0227 81.35C69.0227 81.35 69.0986 81.35 69.1745 81.35C65.3795 86.7167 59.3833 90.3967 52.5521 90.8567C40.6357 91.7 30.0095 83.1133 28.2638 71.23C28.1879 70.77 28.3397 70.31 28.6433 69.9267C28.9469 69.62 29.3264 69.39 29.7818 69.39H46.2523C46.8596 69.39 47.3909 69.0067 47.6186 68.47C47.8463 67.8567 47.6945 67.2433 47.315 66.7833L37.9791 57.43C37.5237 56.97 37.3719 56.2033 37.6755 55.59C40.408 50.9133 45.4174 48 50.8064 48H80.8633L76.461 56.1267ZM91.0341 54.7467C87.5426 54.0567 84.962 50.9133 84.962 47.2333V45.7C84.962 42.02 87.5426 38.8767 91.0341 38.1867V54.7467ZM47.0114 57.2C47.0114 59.73 49.0607 61.8 51.5654 61.8C54.0702 61.8 56.1195 59.73 56.1195 57.2C56.1195 54.67 54.0702 52.6 51.5654 52.6C49.0607 52.6 47.0114 54.67 47.0114 57.2ZM51.5654 55.6667C52.4003 55.6667 53.0835 56.3567 53.0835 57.2C53.0835 58.0433 52.4003 58.7333 51.5654 58.7333C50.7305 58.7333 50.0474 58.0433 50.0474 57.2C50.0474 56.3567 50.7305 55.6667 51.5654 55.6667Z" fill="#AAC8F8"/>
</svg>
